<svg width="20" height="20" viewBox="0 0 20 20" fill="none" xmlns="http://www.w3.org/2000/svg">
<path d="M18.7891 4.96172C18.702 4.87432 18.5985 4.80497 18.4846 4.75765C18.3706 4.71033 18.2485 4.68598 18.1251 4.68598C18.0017 4.68598 17.8795 4.71033 17.7655 4.75765C17.6516 4.80497 17.5481 4.87432 17.461 4.96172L15.0008 7.42187L12.579 5L15.0415 2.53828C15.2176 2.36216 15.3165 2.12329 15.3165 1.87422C15.3165 1.62514 15.2176 1.38627 15.0415 1.21015C14.8654 1.03403 14.6265 0.935089 14.3774 0.935089C14.1283 0.935089 13.8895 1.03403 13.7133 1.21015L11.2508 3.67187L9.41413 1.83672C9.32692 1.74951 9.22339 1.68033 9.10945 1.63314C8.99551 1.58594 8.87339 1.56165 8.75006 1.56165C8.50099 1.56165 8.26212 1.66059 8.086 1.83672C7.90988 2.01284 7.81094 2.25171 7.81094 2.50078C7.81094 2.74985 7.90988 2.98872 8.086 3.16484L8.36022 3.4375L4.44538 7.35468C4.12612 7.67389 3.87287 8.05286 3.70009 8.46995C3.52731 8.88704 3.43838 9.33408 3.43838 9.78554C3.43838 10.237 3.52731 10.684 3.70009 11.1011C3.87287 11.5182 4.12612 11.8972 4.44538 12.2164L5.45163 13.2227L1.83756 16.8367C1.75036 16.9239 1.68118 17.0274 1.63399 17.1414C1.58679 17.2553 1.5625 17.3774 1.5625 17.5008C1.5625 17.6241 1.58679 17.7462 1.63399 17.8602C1.68118 17.9741 1.75036 18.0776 1.83756 18.1648C2.01368 18.341 2.25255 18.4399 2.50163 18.4399C2.62495 18.4399 2.74707 18.4156 2.86101 18.3684C2.97495 18.3212 3.07848 18.252 3.16569 18.1648L6.77975 14.5508L7.786 15.557C8.10521 15.8763 8.48418 16.1295 8.90127 16.3023C9.31836 16.4751 9.7654 16.564 10.2169 16.564C10.6683 16.564 11.1154 16.4751 11.5325 16.3023C11.9495 16.1295 12.3285 15.8763 12.6477 15.557L16.5633 11.6406L16.8376 11.9156C16.9248 12.0028 17.0283 12.072 17.1422 12.1192C17.2562 12.1664 17.3783 12.1907 17.5016 12.1907C17.625 12.1907 17.7471 12.1664 17.861 12.1192C17.975 12.072 18.0785 12.0028 18.1657 11.9156C18.2529 11.8284 18.3221 11.7249 18.3693 11.6109C18.4165 11.497 18.4408 11.3749 18.4408 11.2516C18.4408 11.1282 18.4165 11.0061 18.3693 10.8922C18.3221 10.7782 18.2529 10.6747 18.1657 10.5875L16.329 8.75L18.7915 6.28828C18.8785 6.20106 18.9474 6.09754 18.9944 5.98364C19.0414 5.86975 19.0655 5.74771 19.0653 5.62451C19.065 5.50131 19.0405 5.37936 18.9932 5.26563C18.9458 5.1519 18.8764 5.04863 18.7891 4.96172ZM11.3204 14.2297C11.1753 14.3748 11.003 14.49 10.8134 14.5686C10.6238 14.6471 10.4205 14.6876 10.2153 14.6876C10.0101 14.6876 9.80682 14.6471 9.61721 14.5686C9.4276 14.49 9.25532 14.3748 9.11022 14.2297L5.77116 10.8906C5.626 10.7455 5.51085 10.5732 5.43229 10.3836C5.35372 10.194 5.31329 9.99079 5.31329 9.78554C5.31329 9.5803 5.35372 9.37707 5.43229 9.18745C5.51085 8.99784 5.626 8.82557 5.77116 8.68047L9.68835 4.76562L15.2352 10.3125L11.3204 14.2297Z" fill="white"/>
</svg>
