<svg width="26" height="26" viewBox="0 0 26 26" fill="none" xmlns="http://www.w3.org/2000/svg">
<rect opacity="0.2" width="26" height="26" rx="13" fill="#EB5757"/>
<path d="M11.8589 12.9607L7.07362 7H9.09816L12.319 11.0891C12.5276 11.3512 12.6687 11.5662 12.7423 11.7339C12.816 11.8912 12.8528 12.0695 12.8528 12.2687H13.1472C13.1472 12.0695 13.184 11.8912 13.2577 11.7339C13.3313 11.5662 13.4724 11.3512 13.681 11.0891L16.9018 7H18.9264L14.1411 12.9607L19 19H16.9939L13.8282 15.0839C13.5583 14.7484 13.3742 14.4915 13.2761 14.3132C13.1902 14.1245 13.1472 13.9201 13.1472 13.6999H12.8528C12.8528 13.9201 12.8037 14.1245 12.7055 14.3132C12.6196 14.4915 12.4417 14.7484 12.1718 15.0839L9.00613 19H7L11.8589 12.9607Z" fill="#FF3850"/>
</svg>
