<svg width="32" height="32" viewBox="0 0 32 32" fill="none" xmlns="http://www.w3.org/2000/svg">
<path d="M16 31C14.1441 30.998 12.3648 30.2599 11.0524 28.9476C9.74012 27.6352 9.00199 25.8559 9 24L9 6C9 4.67392 9.52678 3.40215 10.4645 2.46447C11.4021 1.52678 12.6739 1 14 1C15.3261 1 16.5979 1.52678 17.5355 2.46447C18.4732 3.40215 19 4.67392 19 6L19 24C19 24.7956 18.6839 25.5587 18.1213 26.1213C17.5587 26.6839 16.7956 27 16 27C15.2044 27 14.4413 26.6839 13.8787 26.1213C13.3161 25.5587 13 24.7956 13 24L13 10C13 9.73478 13.1054 9.48043 13.2929 9.29289C13.4804 9.10536 13.7348 9 14 9C14.2652 9 14.5196 9.10536 14.7071 9.29289C14.8946 9.48043 15 9.73478 15 10L15 24C15 24.2652 15.1054 24.5196 15.2929 24.7071C15.4804 24.8946 15.7348 25 16 25C16.2652 25 16.5196 24.8946 16.7071 24.7071C16.8946 24.5196 17 24.2652 17 24L17 6C17 5.20435 16.6839 4.44129 16.1213 3.87868C15.5587 3.31607 14.7956 3 14 3C13.2044 3 12.4413 3.31607 11.8787 3.87868C11.3161 4.44129 11 5.20435 11 6L11 24C11 25.3261 11.5268 26.5979 12.4645 27.5355C13.4021 28.4732 14.6739 29 16 29C17.3261 29 18.5979 28.4732 19.5355 27.5355C20.4732 26.5979 21 25.3261 21 24L21 10C21 9.73478 21.1054 9.48043 21.2929 9.29289C21.4804 9.10536 21.7348 9 22 9C22.2652 9 22.5196 9.10536 22.7071 9.29289C22.8946 9.48043 23 9.73478 23 10L23 24C22.998 25.8559 22.2599 27.6352 20.9476 28.9476C19.6352 30.2599 17.8559 30.998 16 31Z" fill="#565656"/>
</svg>
