<svg width="11" height="16" viewBox="0 0 11 16" fill="none" xmlns="http://www.w3.org/2000/svg">
<path d="M1.44441 0.00904777C2.24489 0.00554424 2.89766 0.650851 2.90338 1.45133L2.98931 13.4891C2.99521 14.3154 2.32933 14.989 1.50301 14.9926C0.674668 14.9963 0.00082308 14.3254 0.00082308 13.497L0.00082308 1.45897C0.00082308 0.660451 0.645901 0.0125427 1.44441 0.00904777Z" fill="#276CEC"/>
<path d="M9.44246 0.018233C10.2429 0.0146826 10.8957 0.659951 10.9014 1.46043L10.9874 13.4982C10.9933 14.3245 10.3274 14.9982 9.50106 15.0018C8.67271 15.0055 7.99887 14.3346 7.99887 13.5063L7.99887 1.46824C7.99887 0.669721 8.64395 0.0217746 9.44246 0.018233Z" fill="#276CEC"/>
</svg>
