<svg width="356" height="198" viewBox="0 0 356 198" fill="none" xmlns="http://www.w3.org/2000/svg">
<g clip-path="url(#clip0_820_1069)">
<path d="M110.993 48.8981C110.431 47.9239 109.893 46.9339 109.411 45.9281C108.904 44.92 108.45 43.8864 108.05 42.8314C108.035 42.789 108.035 42.7426 108.051 42.7006C108.067 42.6585 108.098 42.6235 108.137 42.6017L142.527 24.9718C142.562 24.9541 142.6 24.9435 142.64 24.9407C142.679 24.9379 142.719 24.9429 142.756 24.9554C142.794 24.9679 142.828 24.9877 142.858 25.0136C142.888 25.0395 142.912 25.071 142.93 25.1064C144.356 28.0741 146.148 30.8518 148.262 33.3749C150.348 35.9234 152.74 38.2056 155.382 40.1702C160.698 44.1045 166.943 46.5881 173.506 47.3774C173.546 47.3813 173.584 47.3931 173.618 47.4121C173.653 47.4311 173.683 47.4569 173.708 47.488C173.732 47.5191 173.75 47.5548 173.76 47.5929C173.771 47.6311 173.773 47.671 173.768 47.7101C173.764 47.7497 173.752 47.7881 173.733 47.8232C173.714 47.8582 173.688 47.8891 173.658 47.9142C173.627 47.9392 173.591 47.9579 173.553 47.969C173.515 47.9802 173.475 47.9837 173.435 47.9794C166.769 47.1748 160.425 44.6504 155.026 40.6534C152.345 38.6565 149.917 36.34 147.795 33.755C145.653 31.1878 143.841 28.3622 142.4 25.344L142.811 25.4945L108.319 42.9185L108.406 42.6967C108.825 43.7184 109.332 44.7163 109.854 45.6984C110.376 46.6805 110.953 47.6309 111.547 48.5734C111.568 48.6066 111.582 48.6438 111.589 48.6827C111.596 48.7216 111.596 48.7615 111.587 48.8001C111.579 48.8387 111.563 48.8753 111.54 48.9077C111.518 48.9402 111.489 48.9678 111.456 48.9892C111.422 49.0105 111.385 49.025 111.346 49.032C111.308 49.039 111.268 49.0382 111.229 49.0297C111.191 49.0213 111.154 49.0053 111.122 48.9827C111.089 48.9601 111.062 48.9314 111.04 48.8981H110.993ZM164.464 79.398C153.698 79.361 143.14 76.4345 133.888 70.9236C133.851 70.9049 133.818 70.8789 133.792 70.847C133.765 70.8152 133.746 70.7782 133.734 70.7385C133.723 70.6988 133.72 70.6571 133.725 70.6161C133.731 70.5751 133.744 70.5357 133.766 70.5002C133.787 70.4647 133.815 70.434 133.849 70.41C133.882 70.386 133.921 70.3692 133.961 70.3606C134.001 70.3521 134.043 70.3519 134.084 70.3602C134.124 70.3685 134.162 70.385 134.196 70.4088C159.259 85.0212 181.41 76.2617 183.166 75.5251L185.112 70.5355C185.125 70.4974 185.146 70.4623 185.173 70.4322C185.2 70.4022 185.232 70.378 185.269 70.3608C185.305 70.3437 185.345 70.3341 185.385 70.3326C185.425 70.3311 185.466 70.3377 185.503 70.3521C185.541 70.3664 185.575 70.3882 185.604 70.4161C185.633 70.444 185.657 70.4775 185.673 70.5145C185.688 70.5516 185.697 70.5915 185.697 70.6318C185.697 70.6722 185.689 70.7121 185.674 70.7494L183.68 75.8657C183.649 75.9364 183.593 75.993 183.522 76.0241C183.395 76.0874 175.824 79.398 164.464 79.398Z" fill="#15181A"/>
<path d="M177.938 51.1237L209.914 34.0006C209.914 34.0006 230.871 35.1886 241.377 64.0966C248.244 82.9779 241.891 94.6441 241.891 94.6441L202.019 104.544C202.019 104.544 204.693 93.2422 198.965 77.4022C192.241 58.711 177.938 51.1237 177.938 51.1237Z" fill="#C5DBFF"/>
<path d="M167.288 51.1237C177.936 45.3262 188.648 39.4733 199.423 33.7393C199.472 33.728 199.524 33.728 199.573 33.7393C201.185 33.9054 202.776 34.2371 204.32 34.7293C205.111 34.9431 205.847 35.2678 206.614 35.5213C207.381 35.7747 208.101 36.1786 208.845 36.5033C211.75 37.9477 214.466 39.746 216.93 41.8573C218.153 42.9188 219.31 44.0534 220.395 45.2549C220.941 45.8648 221.495 46.4509 222.025 47.0686L223.488 49.0011C224.491 50.283 225.415 51.6238 226.257 53.0165C227.106 54.391 227.875 55.8137 228.559 57.2775C231.328 63.0987 233.559 69.2605 234.271 75.7232C234.679 78.9399 234.71 82.1932 234.366 85.4173C234.046 88.6662 233.176 91.8371 231.795 94.7945C231.779 94.8309 231.755 94.8633 231.725 94.8893C231.695 94.9154 231.659 94.9344 231.621 94.945L191.757 104.845C191.719 104.856 191.679 104.859 191.64 104.854C191.601 104.849 191.563 104.836 191.529 104.816C191.496 104.796 191.466 104.769 191.442 104.737C191.419 104.706 191.402 104.67 191.393 104.631C191.381 104.587 191.381 104.541 191.393 104.497C191.857 101.979 192.064 99.421 192.01 96.8617C191.974 94.2934 191.752 91.7311 191.346 89.1951C190.954 86.6591 190.399 84.1511 189.684 81.6869C189.352 80.4435 188.893 79.2317 188.513 78.0121C188.134 76.7924 187.572 75.6361 187.113 74.4322C184.049 67.3404 179.456 61.0145 173.664 55.9073C172.691 55.0678 171.702 54.252 170.674 53.5313C170.152 53.1512 169.637 52.7393 169.092 52.4304C168.831 52.2483 168.554 52.082 168.3 51.9077L167.897 51.6622L167.691 51.5434H167.636C167.588 51.5172 167.542 51.4853 167.501 51.4484C167.408 51.3568 167.335 51.246 167.288 51.1237ZM167.889 51.1237C167.901 51.1032 167.907 51.08 167.907 51.0563C167.907 51.0327 167.901 51.0095 167.889 50.989H167.937L168.15 51.1078C168.293 51.1949 168.435 51.2741 168.569 51.3692C168.846 51.5355 169.123 51.7097 169.361 51.8919C169.906 52.2483 170.429 52.6285 170.943 53.0086C171.987 53.8006 172.992 54.5926 173.973 55.448C175.916 57.1643 177.735 59.017 179.416 60.992C182.763 64.968 185.516 69.4101 187.588 74.1788C188.062 75.3905 188.585 76.5548 189.012 77.8061C189.439 79.0575 189.858 80.2534 190.191 81.5127C190.915 84.0029 191.477 86.5373 191.876 89.1001C192.283 91.6626 192.505 94.2513 192.54 96.8458C192.59 99.453 192.378 102.059 191.907 104.623L191.543 104.267L231.407 94.3669L231.218 94.5173C232.516 91.6174 233.318 88.5199 233.591 85.3539C233.904 82.1909 233.859 79.0027 233.456 75.8499C232.736 69.5139 230.506 63.4155 227.76 57.6814C224.999 51.9221 221.149 46.7528 216.424 42.4592C214.016 40.3737 211.359 38.5965 208.513 37.1686C205.684 35.7315 202.636 34.776 199.494 34.3412H199.652C189.13 39.9406 178.561 45.5005 167.889 51.1237ZM88.6039 106.651C84.4778 107.823 80.2306 108.517 75.9462 108.718L74.3639 108.805L73.5728 108.845H72.7817H69.5698C67.4338 108.686 65.2899 108.552 63.1697 108.187C58.9255 107.546 54.7652 106.435 50.7651 104.877C48.7641 104.098 46.8117 103.198 44.9188 102.184C43.0116 101.182 41.1934 100.019 39.4839 98.707C39.4264 98.6642 39.3872 98.6013 39.374 98.5309C39.3608 98.4604 39.3746 98.3876 39.4127 98.3269L56.7063 70.6068C56.7486 70.5424 56.8134 70.496 56.8881 70.477C56.9628 70.4579 57.0419 70.4675 57.1098 70.5039C59.8119 71.9109 62.7331 72.8482 65.7487 73.2759C68.772 73.7589 71.8337 73.9578 74.894 73.8699L77.1882 73.7511C77.9793 73.6957 78.7151 73.6085 79.4824 73.5373C81.0009 73.4056 82.5 73.1055 83.9522 72.6423C86.8633 71.7012 89.6643 70.4478 92.3063 68.904C92.34 68.8844 92.3772 68.8716 92.4159 68.8666C92.4545 68.8615 92.4938 68.8642 92.5314 68.8746C92.5689 68.8849 92.6041 68.9026 92.6347 68.9267C92.6654 68.9508 92.6909 68.9808 92.7098 69.0149C92.7296 69.0492 92.7425 69.0871 92.7476 69.1264C92.7528 69.1657 92.7502 69.2056 92.7399 69.2439C92.7296 69.2821 92.7118 69.318 92.6877 69.3494C92.6635 69.3808 92.6334 69.4071 92.5991 69.4268C91.2304 70.1317 89.8381 70.8128 88.422 71.4147C87.0071 72.029 85.5568 72.558 84.0788 72.9987C82.5963 73.4524 81.0679 73.7393 79.522 73.854C78.7309 73.9174 77.9872 73.9966 77.2199 74.0441L74.9098 74.1471C71.8186 74.2666 68.723 74.1022 65.6617 73.6561C64.135 73.4201 62.6239 73.0921 61.1366 72.674C59.6248 72.2769 58.1605 71.7166 56.7696 71.0028L57.1889 70.9078L39.8873 98.6278L39.824 98.2397C41.5067 99.521 43.2929 100.66 45.164 101.645C47.0352 102.651 48.9665 103.539 50.9471 104.306C54.9068 105.848 59.0244 106.948 63.2251 107.585C65.3215 107.942 67.4417 108.076 69.554 108.235H72.7184H73.5095L74.3007 108.187L75.8829 108.1C80.1298 107.904 84.34 107.219 88.4299 106.057C88.5065 106.035 88.5887 106.044 88.6584 106.083C88.7281 106.121 88.7797 106.186 88.8017 106.263C88.8267 106.34 88.8199 106.425 88.7828 106.498C88.7458 106.57 88.6814 106.625 88.6039 106.651ZM167.145 102.398C167.882 104.39 169.077 106.181 170.634 107.625C172.984 106.236 175.583 105.321 178.284 104.932V93.2818C178.284 93.2026 178.284 93.1234 178.284 93.0442C177.098 93.0442 175.721 93.1709 174.329 93.3531C172.206 93.6967 170.272 94.7768 168.865 96.4043C167.457 98.0317 166.667 100.103 166.631 102.255L167.509 114.595C167.509 113.803 167.114 112.456 167.312 111.791C167.076 108.666 167.02 105.529 167.145 102.398Z" fill="#15181A"/>
<path d="M167.629 112.504C167.721 113.444 167.926 114.369 168.239 115.26C168.566 116.147 169.008 116.989 169.552 117.763C170.643 119.322 172.171 120.523 173.943 121.216C174.833 121.543 175.78 121.686 176.727 121.635H179.623L185.414 121.699L196.996 121.825C197.953 121.825 198.95 121.881 199.867 121.825C200.796 121.735 201.692 121.44 202.494 120.962C203.294 120.481 203.975 119.825 204.486 119.044C204.997 118.262 205.325 117.374 205.445 116.448C205.565 115.519 205.475 114.575 205.181 113.686C204.888 112.796 204.398 111.985 203.748 111.311C203.099 110.637 202.306 110.118 201.429 109.792C200.551 109.467 199.612 109.343 198.681 109.431H187.099H175.509C174.515 109.493 173.517 109.385 172.558 109.114C171.612 108.771 170.749 108.231 170.027 107.53C168.622 106.126 167.542 104.431 166.862 102.564L167.448 102.485C167.302 105.825 167.362 109.171 167.629 112.504ZM167.123 112.504C166.821 109.125 166.729 105.732 166.846 102.342C166.847 102.271 166.872 102.202 166.918 102.148C166.965 102.094 167.029 102.058 167.099 102.046C167.169 102.035 167.241 102.049 167.302 102.086C167.363 102.123 167.409 102.18 167.432 102.247C168.078 104.029 169.101 105.649 170.43 106.999C171.089 107.649 171.875 108.153 172.74 108.48C173.643 108.733 174.582 108.83 175.517 108.765L187.099 108.829L198.688 108.892C199.689 108.823 200.692 108.972 201.629 109.329C202.566 109.686 203.414 110.242 204.116 110.959C204.811 111.684 205.335 112.555 205.65 113.509C205.956 114.468 206.048 115.482 205.919 116.479C205.718 117.982 205.014 119.372 203.922 120.422C202.83 121.472 201.414 122.12 199.907 122.261C198.894 122.317 197.961 122.261 196.988 122.261L185.398 122.103L179.607 122.023H176.704C175.717 122.067 174.731 121.919 173.8 121.588C171.961 120.845 170.363 119.607 169.184 118.011C168.006 116.414 167.292 114.521 167.123 112.543V112.504Z" fill="#15181A"/>
<path d="M199.344 119.346C201.336 119.346 202.951 117.73 202.951 115.735C202.951 113.74 201.336 112.123 199.344 112.123C197.351 112.123 195.736 113.74 195.736 115.735C195.736 117.73 197.351 119.346 199.344 119.346Z" fill="#15181A"/>
<path d="M252.602 85.7419V85.8053C252.602 86.7778 252.216 87.7105 251.529 88.3982C250.842 89.0859 249.91 89.4723 248.939 89.4723L248.559 91.3018L247.412 93.757H252.633L252.602 85.7419Z" fill="#15181A"/>
<path d="M145.802 45.2628L152.685 87.2942C152.685 87.2942 137.417 86.8507 124.585 100.093C111.753 113.335 107.9 131.836 107.9 131.836L90.6777 100.679C90.6777 100.679 90.8043 87.12 106.959 67.0824C124.727 45.0252 145.802 45.2628 145.802 45.2628Z" fill="#C5DBFF"/>
<path d="M137.4 39.0139L144.52 81.2038C144.538 81.3213 144.509 81.4413 144.44 81.5377C144.37 81.6341 144.265 81.6991 144.148 81.7186H144.061C141.273 81.7734 138.502 82.1697 135.81 82.8987C133.099 83.6092 130.465 84.5855 127.946 85.8132C125.435 87.0612 123.051 88.5492 120.826 90.2563C119.724 91.1169 118.668 92.0343 117.662 93.0046C117.155 93.4877 116.633 93.9629 116.143 94.4619L114.727 96.0459C111.01 100.28 107.873 104.992 105.399 110.056C102.889 115.106 100.944 120.418 99.6005 125.896C99.5866 125.955 99.5553 126.008 99.5107 126.049C99.4661 126.09 99.4103 126.116 99.3506 126.125C99.2908 126.133 99.2299 126.124 99.1757 126.097C99.1215 126.07 99.0766 126.028 99.0468 125.976L81.8243 94.8262C81.8086 94.7827 81.8086 94.735 81.8243 94.6915C82.1235 91.1796 82.9227 87.7285 84.1976 84.4431C85.4239 81.1692 86.8942 77.9923 88.5962 74.9391C89.0155 74.1471 89.4743 73.4263 89.9174 72.666L90.574 71.5335L91.286 70.4326L92.71 68.2308L94.2289 66.0845C96.2495 63.2028 98.4367 60.442 100.779 57.816C101.072 57.4913 101.341 57.1428 101.65 56.8339L102.583 55.9073L104.426 54.054C105.028 53.4125 105.732 52.8898 106.388 52.3037L108.382 50.593C111.135 48.4238 114.07 46.4973 117.155 44.8351C120.238 43.1585 123.483 41.7973 126.839 40.7722C127.677 40.5267 128.524 40.3128 129.37 40.0752C130.217 39.8376 131.079 39.6951 131.941 39.5287C132.803 39.3624 133.674 39.2278 134.544 39.1327C134.979 39.0773 135.422 39.0377 135.857 39.006C136.079 39.006 136.3 39.006 136.522 39.006H136.854H137.083C137.189 38.9937 137.295 38.9964 137.4 39.0139ZM137.004 39.4733C137.001 39.4943 137.001 39.5157 137.004 39.5367H136.862H136.538C136.324 39.5248 136.11 39.5248 135.897 39.5367C135.47 39.5367 135.034 39.6 134.607 39.6634C133.753 39.7505 132.898 39.901 132.044 40.0435C131.19 40.1861 130.351 40.3999 129.505 40.59C128.658 40.7801 127.827 41.0335 127.005 41.2791C123.686 42.2884 120.478 43.6339 117.432 45.2945C114.37 46.9364 111.458 48.8445 108.73 50.9969L106.8 52.7631C106.159 53.3412 105.455 53.856 104.861 54.4896L103.018 56.3271L102.053 57.2458C101.752 57.5547 101.483 57.8952 101.191 58.2199C98.8741 60.8098 96.7081 63.5308 94.7036 66.3696L93.1926 68.5001L91.7844 70.6939L91.0724 71.7869L90.4157 72.9115C89.9806 73.7035 89.5218 74.4005 89.1025 75.1608C87.416 78.1986 85.9615 81.3598 84.7514 84.6173C83.4886 87.838 82.6895 91.222 82.3781 94.6678V94.5173L99.6005 125.667L99.0389 125.754C100.373 120.219 102.313 114.849 104.822 109.74C107.304 104.608 110.457 99.8305 114.197 95.5311L115.628 93.9471C116.127 93.4402 116.657 92.9571 117.163 92.4581C118.16 91.4364 119.299 90.5652 120.391 89.6465C122.652 87.8984 125.076 86.3733 127.63 85.0925C130.192 83.8266 132.874 82.8185 135.636 82.0829C138.406 81.319 141.26 80.9013 144.132 80.8395L143.681 81.3622L137.004 39.4733Z" fill="#15181A"/>
<path d="M275.98 104.148C269.358 104.148 262.885 106.114 257.379 109.797C251.874 113.48 247.583 118.714 245.049 124.839C242.514 130.963 241.851 137.703 243.143 144.204C244.435 150.706 247.624 156.678 252.306 161.366C256.988 166.053 262.954 169.246 269.448 170.539C275.943 171.832 282.674 171.168 288.792 168.631C294.91 166.095 300.138 161.799 303.817 156.287C307.496 150.775 309.46 144.295 309.46 137.665C309.458 128.777 305.93 120.253 299.651 113.967C293.373 107.682 284.859 104.15 275.98 104.148ZM275.766 155.074C275.406 155.435 274.978 155.722 274.507 155.918C274.036 156.114 273.531 156.214 273.021 156.214C272.511 156.214 272.006 156.114 271.535 155.918C271.064 155.722 270.636 155.435 270.276 155.074L254.248 139.02C253.887 138.66 253.601 138.232 253.405 137.761C253.21 137.29 253.109 136.785 253.109 136.275C253.109 135.765 253.21 135.261 253.405 134.79C253.601 134.319 253.887 133.891 254.248 133.531L257.009 130.759C257.738 130.033 258.725 129.625 259.754 129.625C260.783 129.625 261.77 130.033 262.499 130.759L270.252 138.521C270.98 139.247 271.966 139.654 272.993 139.654C274.021 139.654 275.007 139.247 275.735 138.521L288.922 125.318C289.283 124.957 289.71 124.67 290.181 124.474C290.653 124.278 291.158 124.177 291.668 124.177C292.178 124.177 292.683 124.278 293.154 124.474C293.625 124.67 294.053 124.957 294.413 125.318L297.19 128.082C297.551 128.443 297.837 128.871 298.033 129.343C298.228 129.814 298.329 130.32 298.329 130.83C298.329 131.341 298.228 131.847 298.033 132.318C297.837 132.79 297.551 133.218 297.19 133.579L275.766 155.074Z" fill="#3EB14A"/>
<path d="M313.105 141.554C313.076 138.281 312.597 135.027 311.681 131.884C310.693 128.769 309.271 125.81 307.457 123.093C305.582 120.423 303.367 118.011 300.867 115.917C298.312 113.905 295.503 112.241 292.512 110.967C289.497 109.751 286.329 108.952 283.098 108.591C279.859 108.319 276.598 108.476 273.399 109.058C270.209 109.722 267.125 110.817 264.23 112.314C258.437 115.396 253.692 120.136 250.599 125.928C249.085 128.819 247.977 131.905 247.308 135.099C246.714 138.31 246.549 141.586 246.818 144.841C247.456 151.383 250.016 157.59 254.175 162.677C256.28 165.177 258.709 167.385 261.398 169.243C264.13 171.03 267.092 172.437 270.203 173.424C273.342 174.334 276.588 174.819 279.855 174.866C279.886 174.865 279.917 174.87 279.946 174.882C279.975 174.893 280.001 174.911 280.022 174.933C280.044 174.956 280.061 174.982 280.071 175.012C280.082 175.041 280.086 175.072 280.084 175.103C280.084 175.134 280.078 175.164 280.066 175.192C280.054 175.22 280.036 175.245 280.014 175.266C279.991 175.287 279.965 175.303 279.936 175.313C279.908 175.323 279.877 175.327 279.847 175.325C276.533 175.282 273.239 174.798 270.053 173.884C266.892 172.887 263.882 171.465 261.105 169.654C258.372 167.775 255.903 165.538 253.764 163.002C249.521 157.843 246.905 151.538 246.248 144.889C245.967 141.579 246.126 138.248 246.723 134.981C247.402 131.726 248.52 128.58 250.046 125.627C253.184 119.714 258.001 114.863 263.89 111.688C266.837 110.139 269.984 109.006 273.241 108.322C278.15 107.312 283.224 107.423 288.085 108.646C292.946 109.869 297.469 112.173 301.317 115.387C306.448 119.666 310.198 125.37 312.092 131.781C313 134.97 313.495 138.263 313.564 141.578C313.564 141.64 313.54 141.699 313.497 141.743C313.454 141.788 313.396 141.814 313.334 141.816C313.304 141.817 313.273 141.811 313.244 141.8C313.215 141.789 313.189 141.773 313.167 141.751C313.145 141.73 313.127 141.704 313.115 141.676C313.103 141.647 313.097 141.617 313.097 141.586L313.105 141.554Z" fill="#15181A"/>
<path d="M301.223 137.634C297.468 141.33 293.739 145.089 290.037 148.912L284.499 154.575L281.714 157.41L280.322 158.82C280.093 159.057 279.863 159.295 279.578 159.54C279.291 159.768 278.978 159.959 278.645 160.111C277.973 160.412 277.235 160.534 276.502 160.466C275.768 160.398 275.065 160.142 274.46 159.723C273.924 159.294 273.422 158.825 272.957 158.321L271.557 156.919L265.94 151.272L260.347 145.641L258.946 144.231L258.25 143.526C258.001 143.276 257.766 143.011 257.546 142.734C257.103 142.163 256.812 141.487 256.703 140.772C256.594 140.057 256.669 139.326 256.921 138.648C257.179 137.982 257.588 137.385 258.116 136.905L259.524 135.511C260.006 135.044 260.426 134.585 260.964 134.101C261.803 133.422 262.871 133.089 263.947 133.172C265.024 133.254 266.028 133.746 266.755 134.545L269.555 137.357L272.356 140.176L273.756 141.578C274.172 142.058 274.66 142.47 275.204 142.798C275.75 143.083 276.36 143.224 276.976 143.207C277.592 143.19 278.194 143.017 278.724 142.703C278.986 142.542 279.228 142.351 279.444 142.132L280.148 141.435L281.556 140.034L292.806 128.811C293.337 128.341 293.979 128.015 294.671 127.864C295.364 127.713 296.083 127.742 296.761 127.948C297.434 128.159 298.043 128.534 298.533 129.041L299.934 130.45C300.408 130.918 300.867 131.377 301.342 131.868C301.824 132.384 302.162 133.017 302.323 133.705C302.495 134.399 302.485 135.126 302.292 135.815C302.099 136.504 301.731 137.131 301.223 137.634ZM300.891 137.309C301.332 136.867 301.652 136.318 301.82 135.716C301.988 135.114 301.997 134.479 301.848 133.872C301.71 133.262 301.409 132.701 300.978 132.248L299.586 130.846L298.177 129.444C297.741 128.992 297.196 128.66 296.595 128.478C295.998 128.3 295.366 128.28 294.759 128.419C294.152 128.557 293.591 128.851 293.13 129.27L281.928 140.501L280.52 141.903L279.824 142.608C279.574 142.856 279.295 143.074 278.993 143.257C278.381 143.623 277.685 143.827 276.971 143.848C276.258 143.868 275.551 143.706 274.919 143.376C274.325 143.025 273.791 142.581 273.337 142.061L271.936 140.659L269.144 137.808L266.327 135.004C265.713 134.307 264.851 133.877 263.924 133.806C262.998 133.735 262.081 134.029 261.367 134.624C260.924 135.028 260.441 135.543 259.983 135.994L258.582 137.404C258.123 137.815 257.771 138.332 257.554 138.909C257.345 139.478 257.286 140.092 257.381 140.691C257.477 141.29 257.724 141.854 258.1 142.33C258.306 142.572 258.525 142.802 258.756 143.019L259.46 143.716L260.869 145.118L266.493 150.718L272.11 156.325L273.519 157.727C273.952 158.194 274.418 158.63 274.911 159.034C275.402 159.368 275.97 159.571 276.561 159.624C277.152 159.676 277.747 159.577 278.289 159.335C278.841 159.066 279.333 158.689 279.737 158.226L281.145 156.832L283.977 154.044L289.633 148.5C293.42 144.809 297.173 141.079 300.891 137.309ZM178.593 148.159L173.055 151.327C173.012 151.359 172.963 151.381 172.91 151.392C172.858 151.403 172.804 151.403 172.752 151.391C172.699 151.38 172.65 151.358 172.607 151.326C172.564 151.294 172.528 151.254 172.502 151.207C172.475 151.161 172.459 151.109 172.454 151.056C172.449 151.002 172.455 150.949 172.472 150.898C172.49 150.847 172.517 150.801 172.554 150.761C172.59 150.722 172.634 150.691 172.684 150.67L178.221 147.629C178.299 147.597 178.385 147.595 178.464 147.623C178.543 147.651 178.609 147.707 178.649 147.78C178.689 147.854 178.701 147.94 178.682 148.021C178.663 148.103 178.614 148.175 178.546 148.223L178.593 148.159ZM167.312 154.02L161.386 156.293C161.332 156.33 161.271 156.354 161.206 156.363C161.142 156.372 161.076 156.367 161.014 156.348C160.951 156.328 160.894 156.295 160.847 156.25C160.799 156.206 160.762 156.151 160.738 156.09C160.714 156.029 160.705 155.964 160.71 155.899C160.715 155.834 160.734 155.771 160.767 155.714C160.799 155.657 160.844 155.609 160.898 155.572C160.952 155.535 161.013 155.511 161.078 155.501L166.972 153.284C167.077 153.245 167.193 153.249 167.294 153.296C167.396 153.343 167.475 153.428 167.514 153.533C167.552 153.638 167.548 153.754 167.501 153.856C167.454 153.958 167.369 154.037 167.264 154.076L167.312 154.02ZM155.279 158.115L149.061 159.477C148.999 159.495 148.935 159.501 148.871 159.493C148.807 159.485 148.746 159.464 148.691 159.431C148.636 159.398 148.588 159.354 148.55 159.302C148.513 159.25 148.486 159.191 148.473 159.128C148.459 159.065 148.459 159.001 148.471 158.938C148.484 158.875 148.509 158.815 148.546 158.762C148.582 158.709 148.629 158.665 148.684 158.631C148.739 158.597 148.8 158.575 148.863 158.566L155.018 157.252C155.13 157.237 155.243 157.266 155.335 157.331C155.427 157.396 155.491 157.494 155.515 157.604C155.539 157.714 155.521 157.83 155.464 157.927C155.407 158.025 155.316 158.097 155.208 158.131L155.279 158.115ZM142.756 160.372L136.427 160.8C136.362 160.804 136.298 160.796 136.237 160.775C136.175 160.754 136.119 160.721 136.071 160.679C136.022 160.636 135.982 160.584 135.954 160.526C135.926 160.468 135.909 160.405 135.905 160.34C135.899 160.276 135.907 160.212 135.927 160.151C135.947 160.089 135.978 160.033 136.02 159.984C136.062 159.935 136.114 159.896 136.171 159.867C136.229 159.838 136.292 159.822 136.356 159.818L142.637 159.43C142.699 159.425 142.762 159.433 142.821 159.453C142.881 159.473 142.935 159.505 142.982 159.546C143.029 159.587 143.068 159.637 143.095 159.693C143.123 159.75 143.139 159.811 143.143 159.873C143.151 159.989 143.116 160.104 143.044 160.196C142.973 160.288 142.87 160.351 142.756 160.372ZM130.043 160.776L123.714 160.245C123.643 160.247 123.573 160.233 123.508 160.206C123.443 160.178 123.384 160.138 123.336 160.086C123.287 160.035 123.25 159.974 123.227 159.907C123.203 159.84 123.194 159.769 123.199 159.699C123.205 159.628 123.225 159.56 123.259 159.498C123.292 159.435 123.339 159.381 123.395 159.338C123.45 159.294 123.515 159.263 123.583 159.246C123.652 159.229 123.723 159.227 123.793 159.24H123.832L130.098 159.762H130.138C130.208 159.762 130.278 159.776 130.342 159.804C130.407 159.833 130.464 159.874 130.512 159.926C130.56 159.978 130.596 160.039 130.619 160.105C130.642 160.172 130.65 160.243 130.644 160.313C130.638 160.383 130.617 160.451 130.584 160.513C130.55 160.575 130.503 160.629 130.448 160.671C130.392 160.714 130.328 160.745 130.259 160.762C130.191 160.778 130.12 160.78 130.051 160.768L130.043 160.776ZM117.417 159.192L111.23 157.727C111.116 157.686 111.022 157.605 110.964 157.5C110.906 157.394 110.889 157.27 110.916 157.152C110.944 157.035 111.014 156.932 111.112 156.862C111.211 156.793 111.332 156.762 111.452 156.776L117.575 158.202H117.614C117.678 158.217 117.738 158.245 117.792 158.283C117.845 158.321 117.89 158.37 117.925 158.426C117.959 158.482 117.982 158.544 117.993 158.609C118.004 158.674 118.001 158.74 117.986 158.804C117.971 158.868 117.944 158.928 117.905 158.982C117.867 159.035 117.818 159.08 117.762 159.115C117.707 159.149 117.645 159.172 117.58 159.183C117.515 159.194 117.449 159.191 117.385 159.176L117.417 159.192ZM105.162 155.85L99.2447 153.474C99.1297 153.425 99.0383 153.333 98.9896 153.218C98.9409 153.102 98.9388 152.973 98.9836 152.856C99.031 152.742 99.1213 152.65 99.2351 152.601C99.3489 152.552 99.4772 152.55 99.5928 152.595L105.447 154.899C105.552 154.954 105.634 155.046 105.675 155.158C105.717 155.269 105.716 155.392 105.673 155.503C105.63 155.614 105.548 155.705 105.442 155.759C105.336 155.812 105.214 155.825 105.099 155.794L105.162 155.85ZM93.5249 150.71L87.9872 147.542C87.8847 147.481 87.81 147.382 87.779 147.267C87.748 147.151 87.7631 147.028 87.821 146.924C87.882 146.821 87.9812 146.747 88.0968 146.717C88.2125 146.687 88.3353 146.705 88.4381 146.766L93.8889 149.934C93.994 149.996 94.0703 150.098 94.1014 150.216C94.1325 150.335 94.1158 150.461 94.055 150.567C94.0255 150.62 93.9857 150.666 93.9381 150.703C93.8904 150.74 93.8359 150.767 93.7776 150.782C93.7193 150.798 93.6586 150.802 93.5988 150.793C93.5391 150.785 93.4817 150.764 93.43 150.733L93.5249 150.71ZM82.7737 143.914L77.8056 139.954C77.7287 139.878 77.6828 139.776 77.6768 139.668C77.6709 139.56 77.7054 139.454 77.7735 139.37C77.8416 139.286 77.9385 139.23 78.0454 139.214C78.1522 139.197 78.2613 139.221 78.3514 139.281L83.2721 143.202C83.3225 143.236 83.3653 143.281 83.3976 143.332C83.43 143.384 83.4513 143.442 83.4602 143.503C83.4691 143.563 83.4655 143.625 83.4494 143.684C83.4334 143.743 83.4054 143.798 83.3671 143.846C83.3288 143.893 83.2811 143.932 83.227 143.961C83.1729 143.989 83.1135 144.006 83.0526 144.01C82.9916 144.014 82.9305 144.006 82.873 143.985C82.8155 143.965 82.7628 143.932 82.7184 143.891L82.7737 143.914ZM73.1538 135.606L68.8265 130.926C68.7894 130.889 68.76 130.845 68.7399 130.797C68.7198 130.748 68.7095 130.697 68.7095 130.644C68.7095 130.592 68.7198 130.54 68.7399 130.492C68.76 130.444 68.7894 130.4 68.8265 130.363C68.9004 130.291 68.9998 130.25 69.1033 130.25C69.2069 130.25 69.3063 130.291 69.3802 130.363L73.6839 134.957C73.7613 135.038 73.8044 135.146 73.8044 135.258C73.8044 135.37 73.7613 135.478 73.6839 135.559C73.6039 135.638 73.4958 135.683 73.3833 135.683C73.2707 135.683 73.1626 135.638 73.0826 135.559L73.1538 135.606ZM64.8709 125.928L61.303 120.661C61.2774 120.624 61.2593 120.583 61.2499 120.539C61.2404 120.495 61.2397 120.45 61.2478 120.405C61.2559 120.361 61.2726 120.319 61.297 120.282C61.3214 120.244 61.353 120.211 61.39 120.186C61.4663 120.136 61.5589 120.117 61.6487 120.133C61.7385 120.149 61.8186 120.199 61.8726 120.273L65.4642 125.461C65.5173 125.542 65.537 125.641 65.5194 125.737C65.5017 125.833 65.448 125.918 65.3693 125.976C65.2952 126.031 65.2031 126.057 65.1109 126.048C65.0187 126.04 64.9332 125.997 64.8709 125.928ZM243.243 45.0569C245.352 45.0569 247.462 45.1493 249.572 45.3341C249.622 45.338 249.672 45.3521 249.717 45.3755C249.762 45.3989 249.802 45.4311 249.834 45.4703C249.867 45.5094 249.891 45.5547 249.906 45.6034C249.92 45.6521 249.925 45.7033 249.92 45.7538C249.916 45.8049 249.902 45.8546 249.878 45.9002C249.855 45.9457 249.823 45.9863 249.784 46.0194C249.745 46.0525 249.7 46.0776 249.651 46.0932C249.603 46.1088 249.551 46.1146 249.5 46.1102C247.391 45.8779 245.297 45.7512 243.219 45.7301C243.175 45.7301 243.131 45.7212 243.09 45.704C243.049 45.6868 243.012 45.6616 242.981 45.6299C242.95 45.5981 242.926 45.5605 242.91 45.5193C242.893 45.478 242.886 45.4339 242.887 45.3895C242.887 45.3438 242.896 45.2985 242.914 45.2565C242.932 45.2145 242.959 45.1767 242.992 45.1455C243.026 45.1143 243.065 45.0903 243.108 45.075C243.151 45.0598 243.197 45.0536 243.243 45.0569ZM255.908 46.2211C257.989 46.625 260.062 47.124 262.095 47.7259C262.2 47.7668 262.287 47.8458 262.337 47.9473C262.387 48.0489 262.397 48.1655 262.365 48.2741C262.333 48.3827 262.261 48.4754 262.165 48.5337C262.068 48.5921 261.952 48.6119 261.842 48.5892C259.832 47.9873 257.799 47.4725 255.742 47.0686C255.68 47.0647 255.62 47.0477 255.565 47.0187C255.511 46.9896 255.463 46.9492 255.425 46.9001C255.387 46.8509 255.36 46.7943 255.346 46.7339C255.331 46.6735 255.33 46.6108 255.342 46.5499C255.354 46.489 255.379 46.4314 255.415 46.3809C255.451 46.3303 255.497 46.2881 255.551 46.257C255.604 46.2258 255.664 46.2065 255.726 46.2004C255.787 46.1942 255.85 46.2013 255.908 46.2211ZM268.115 49.8168C270.085 50.6088 272.023 51.4958 273.906 52.47C273.963 52.4991 274.013 52.5391 274.054 52.5877C274.095 52.6363 274.127 52.6926 274.146 52.7532C274.166 52.8139 274.173 52.8778 274.168 52.9413C274.163 53.0049 274.145 53.0667 274.116 53.1234C274.087 53.1801 274.047 53.2305 273.998 53.2717C273.95 53.3129 273.894 53.3442 273.833 53.3637C273.772 53.3832 273.708 53.3905 273.645 53.3853C273.582 53.3801 273.52 53.3624 273.463 53.3333C271.601 52.3618 269.703 51.4774 267.767 50.6801C267.653 50.6342 267.562 50.5454 267.513 50.4327C267.464 50.3201 267.462 50.1927 267.506 50.0782C267.554 49.9637 267.644 49.8723 267.758 49.8234C267.871 49.7746 268 49.7722 268.115 49.8168ZM279.428 55.6697C281.217 56.8245 282.947 58.0695 284.61 59.4C284.662 59.4416 284.705 59.493 284.737 59.5514C284.769 59.6097 284.79 59.6738 284.797 59.74C284.804 59.8062 284.799 59.8732 284.78 59.9372C284.762 60.0011 284.731 60.0608 284.689 60.1128C284.605 60.2173 284.484 60.2849 284.351 60.3012C284.218 60.3174 284.084 60.2811 283.977 60.1999C282.331 58.901 280.639 57.6734 278.882 56.533C278.827 56.4971 278.78 56.4507 278.743 56.3964C278.705 56.3422 278.679 56.2812 278.666 56.2168C278.652 56.1525 278.651 56.0861 278.663 56.0214C278.675 55.9567 278.7 55.8951 278.736 55.84C278.772 55.7848 278.818 55.7373 278.872 55.7001C278.926 55.6629 278.987 55.6368 279.052 55.6232C279.116 55.6096 279.182 55.6088 279.247 55.6208C279.311 55.6329 279.373 55.6576 279.428 55.6934V55.6697ZM289.412 63.5738C290.947 65.047 292.408 66.5887 293.795 68.1991C293.879 68.2968 293.92 68.4238 293.911 68.5523C293.901 68.6808 293.841 68.8002 293.743 68.8842C293.646 68.9682 293.519 69.01 293.39 69.0003C293.262 68.9907 293.143 68.9304 293.059 68.8327C291.688 67.2487 290.243 65.7334 288.724 64.2866C288.678 64.241 288.641 64.1867 288.616 64.1269C288.592 64.0671 288.579 64.0029 288.579 63.9382C288.579 63.8734 288.592 63.8092 288.616 63.7494C288.641 63.6896 288.678 63.6353 288.724 63.5897C288.818 63.4982 288.944 63.4471 289.076 63.4471C289.207 63.4471 289.333 63.4982 289.428 63.5897L289.412 63.5738ZM297.727 73.2125C298.95 74.9443 300.097 76.7342 301.168 78.5822C301.228 78.6895 301.243 78.8162 301.211 78.9348C301.178 79.0535 301.1 79.1544 300.994 79.2158C300.888 79.2757 300.762 79.2909 300.645 79.2583C300.528 79.2256 300.429 79.1477 300.369 79.0416C299.317 77.2358 298.177 75.4697 296.951 73.7669C296.915 73.7149 296.889 73.6562 296.875 73.5942C296.862 73.5323 296.86 73.4682 296.871 73.4057C296.882 73.3432 296.906 73.2834 296.94 73.2299C296.974 73.1764 297.018 73.1301 297.07 73.0937C297.122 73.0573 297.18 73.0315 297.242 73.0177C297.304 73.004 297.368 73.0026 297.431 73.0137C297.493 73.0247 297.553 73.0479 297.606 73.082C297.66 73.1161 297.706 73.1605 297.742 73.2125H297.727ZM304.079 84.245C304.965 86.1775 305.756 88.1575 306.452 90.1613C306.491 90.2716 306.484 90.3925 306.433 90.4977C306.383 90.603 306.293 90.6842 306.184 90.7236C306.129 90.7424 306.072 90.7503 306.015 90.7469C305.958 90.7435 305.902 90.7289 305.851 90.7039C305.799 90.6789 305.753 90.6439 305.715 90.6011C305.678 90.5583 305.648 90.5084 305.63 90.4543C304.934 88.4743 304.15 86.4943 303.256 84.6252C303.214 84.5722 303.183 84.5102 303.168 84.4439C303.152 84.3775 303.152 84.3085 303.167 84.2421C303.182 84.1756 303.212 84.1133 303.254 84.06C303.297 84.0067 303.35 83.9637 303.412 83.9342C303.473 83.9047 303.54 83.8895 303.608 83.8898C303.677 83.89 303.744 83.9057 303.805 83.9356C303.866 83.9655 303.92 84.0088 303.962 84.0624C304.004 84.116 304.033 84.1785 304.047 84.245H304.079ZM308.24 96.2834C308.731 98.3506 309.126 100.441 309.419 102.54C309.426 102.592 309.423 102.645 309.41 102.696C309.397 102.747 309.374 102.795 309.342 102.836C309.311 102.878 309.271 102.914 309.226 102.94C309.181 102.967 309.131 102.984 309.079 102.992C309.027 102.999 308.974 102.996 308.923 102.983C308.873 102.97 308.825 102.947 308.783 102.915C308.741 102.883 308.706 102.844 308.679 102.798C308.653 102.753 308.635 102.703 308.628 102.651C308.322 100.576 307.911 98.5195 307.394 96.4814C307.367 96.3712 307.384 96.2546 307.443 96.1573C307.501 96.06 307.596 95.99 307.706 95.9627C307.817 95.9354 307.933 95.953 308.03 96.0117C308.127 96.0703 308.197 96.1652 308.225 96.2755L308.24 96.2834ZM310.005 108.884L310.068 112.678C310.069 112.722 310.061 112.766 310.045 112.808C310.029 112.849 310.004 112.886 309.973 112.918C309.942 112.95 309.905 112.975 309.865 112.992C309.824 113.01 309.78 113.018 309.736 113.018C309.648 113.018 309.564 112.985 309.5 112.924C309.437 112.864 309.399 112.781 309.395 112.694L309.293 108.948C309.29 108.9 309.298 108.853 309.314 108.809C309.331 108.765 309.356 108.725 309.389 108.691C309.421 108.657 309.46 108.63 309.504 108.611C309.547 108.593 309.594 108.583 309.641 108.583C309.687 108.582 309.734 108.59 309.778 108.607C309.821 108.624 309.861 108.65 309.895 108.682C309.929 108.714 309.956 108.753 309.974 108.796C309.993 108.839 310.004 108.885 310.005 108.932V108.884Z" fill="#15181A"/>
<path d="M143.87 123.377L139.219 131.431H148.514L143.87 123.377Z" fill="#0055FF"/>
<path d="M131.929 123.377L127.285 131.431H136.581L131.929 123.377Z" fill="#0055FF"/>
<path d="M138.033 112.464L133.381 120.527H142.676L138.033 112.464Z" fill="#0055FF"/>
<path d="M311.974 59.5109H302.678C302.626 59.5113 302.575 59.4975 302.531 59.471C302.486 59.4444 302.45 59.4062 302.425 59.3604C302.398 59.315 302.384 59.263 302.384 59.21C302.384 59.157 302.398 59.1049 302.425 59.0595L307.069 51.0048C307.098 50.9624 307.137 50.9276 307.182 50.9036C307.228 50.8796 307.279 50.8671 307.33 50.8671C307.381 50.8671 307.432 50.8796 307.478 50.9036C307.523 50.9276 307.562 50.9624 307.591 51.0048L312.235 59.0595C312.262 59.1049 312.276 59.157 312.276 59.21C312.276 59.263 312.262 59.315 312.235 59.3604C312.209 59.4068 312.171 59.4454 312.125 59.4719C312.079 59.4984 312.027 59.5119 311.974 59.5109ZM303.2 58.909H311.452L307.33 51.781L303.2 58.909ZM83.0183 59.5109H73.7228C73.6701 59.5103 73.6184 59.4961 73.5727 59.4697C73.527 59.4434 73.4888 59.4058 73.4617 59.3604C73.4381 59.3138 73.4258 59.2622 73.4258 59.21C73.4258 59.1577 73.4381 59.1061 73.4617 59.0595L78.1135 51.0048C78.1425 50.9624 78.1815 50.9276 78.227 50.9036C78.2725 50.8796 78.3231 50.8671 78.3745 50.8671C78.4259 50.8671 78.4766 50.8796 78.5221 50.9036C78.5676 50.9276 78.6065 50.9624 78.6356 51.0048L83.2794 59.0595C83.3066 59.1049 83.321 59.157 83.321 59.21C83.321 59.263 83.3066 59.315 83.2794 59.3604C83.2536 59.4068 83.2157 59.4454 83.1697 59.4719C83.1237 59.4984 83.0714 59.5119 83.0183 59.5109ZM74.2449 58.909H82.4962L78.3745 51.781L74.2449 58.909ZM192.421 89.496C189.554 89.5023 186.807 90.6479 184.784 92.6811C182.76 94.7142 181.626 97.4685 181.63 100.339V109.138L199.288 109.201C200.967 109.215 202.575 109.886 203.767 111.069C204.96 112.253 205.643 113.856 205.672 115.537C205.694 116.409 205.539 117.276 205.216 118.086C204.894 118.896 204.411 119.632 203.797 120.25C203.182 120.868 202.449 121.355 201.642 121.682C200.834 122.008 199.969 122.168 199.098 122.15C195.388 122.063 187.231 121.992 181.63 121.936V131.844C181.628 133.265 181.906 134.672 182.447 135.986C182.988 137.299 183.782 138.493 184.784 139.499C185.786 140.505 186.976 141.304 188.287 141.849C189.597 142.395 191.002 142.677 192.421 142.679H242.261C243.68 142.677 245.085 142.395 246.395 141.849C247.706 141.304 248.896 140.505 249.898 139.499C250.9 138.493 251.694 137.299 252.235 135.986C252.776 134.672 253.054 133.265 253.052 131.844V89.496H192.421Z" fill="#15181A"/>
<path d="M184.059 84.0074C185.105 83.3777 186.242 82.9154 187.429 82.6372C188.257 82.4648 189.1 82.3798 189.945 82.3838C189.882 82.1383 189.819 81.8928 189.747 81.6552C188.916 81.6319 188.084 81.6876 187.263 81.8215C185.954 82.0499 184.693 82.5027 183.537 83.16C182.383 83.8123 181.359 84.6713 180.515 85.6944C179.708 86.7408 179.073 87.9091 178.632 89.1554C178.165 90.3832 177.913 91.6828 177.889 92.9966C177.889 94.2796 177.889 95.5389 177.889 96.814V109.05H178.624V96.8299C178.624 95.5627 178.624 94.2796 178.624 93.0283C178.641 91.8004 178.877 90.5853 179.321 89.4405C179.785 88.3075 180.441 87.2628 181.259 86.3517C182.065 85.4298 183.01 84.6389 184.059 84.0074ZM253.108 124.7V113.256V98.0337V86.6368C253.147 85.9767 253.086 85.3143 252.926 84.6727C252.727 84.0231 252.371 83.4328 251.89 82.9546C251.408 82.4764 250.815 82.1252 250.165 81.9324C249.523 81.7742 248.862 81.7154 248.203 81.7581H234.421C234.421 81.9244 234.421 82.0987 234.421 82.265H248.171C248.782 82.2276 249.395 82.281 249.991 82.4234C250.559 82.5953 251.077 82.9023 251.502 83.3184C251.917 83.7446 252.226 84.2629 252.403 84.8311C252.55 85.4237 252.603 86.0356 252.562 86.6448V124.708C252.613 125.955 252.523 127.204 252.293 128.431C251.748 130.872 250.387 133.054 248.435 134.616C246.482 136.177 244.056 137.024 241.557 137.016H211.131H192.144C190.887 137.016 189.589 137.056 188.379 136.953C185.916 136.68 183.619 135.576 181.867 133.823C180.114 132.07 179.009 129.771 178.735 127.306C178.632 126.094 178.68 124.803 178.664 123.536V121.952H177.944V123.536C177.944 124.811 177.904 126.063 178.023 127.385C178.306 130.019 179.48 132.476 181.351 134.349C183.222 136.222 185.677 137.398 188.308 137.681C189.629 137.792 190.871 137.745 192.144 137.753H211.131H241.557C244.185 137.744 246.732 136.842 248.78 135.195C250.828 133.547 252.257 131.251 252.831 128.684C253.082 127.372 253.175 126.035 253.108 124.7Z" fill="#15181A"/>
</g>
<defs>
<clipPath id="clip0_820_1069">
<rect width="356" height="198" fill="white"/>
</clipPath>
</defs>
</svg>
