<svg width="22" height="22" viewBox="0 0 22 22" fill="none" xmlns="http://www.w3.org/2000/svg">
<circle cx="11" cy="11" r="11" fill="#FF3850"/>
<path d="M10.0491 10.9672L6.06135 6H7.74847L10.4325 9.4076C10.6063 9.62604 10.7239 9.80515 10.7853 9.94495C10.8466 10.076 10.8773 10.2246 10.8773 10.3906H11.1227C11.1227 10.2246 11.1534 10.076 11.2147 9.94495C11.2761 9.80515 11.3937 9.62604 11.5675 9.4076L14.2515 6H15.9387L11.9509 10.9672L16 16H14.3282L11.6902 12.7366C11.4652 12.457 11.3119 12.2429 11.2301 12.0944C11.1585 11.9371 11.1227 11.7667 11.1227 11.5832H10.8773C10.8773 11.7667 10.8364 11.9371 10.7546 12.0944C10.683 12.2429 10.5348 12.457 10.3098 12.7366L7.67178 16H6L10.0491 10.9672Z" fill="white"/>
</svg>
