<svg width="66" height="66" viewBox="0 0 66 66" fill="none" xmlns="http://www.w3.org/2000/svg">
<rect width="66" height="66" rx="32.5" fill="white"/>
<path d="M44 26.25H33.3113L29.8237 22.7625C29.6615 22.5997 29.4686 22.4706 29.2562 22.3826C29.0438 22.2946 28.8161 22.2496 28.5863 22.25H22C21.5359 22.25 21.0908 22.4344 20.7626 22.7626C20.4344 23.0908 20.25 23.5359 20.25 24V42.0775C20.2503 42.521 20.4266 42.9462 20.7402 43.2598C21.0538 43.5734 21.479 43.7497 21.9225 43.75H44.1112C44.5458 43.7497 44.9624 43.5769 45.2697 43.2697C45.5769 42.9624 45.7497 42.5458 45.75 42.1113V28C45.75 27.5359 45.5656 27.0908 45.2374 26.7626C44.9092 26.4344 44.4641 26.25 44 26.25ZM22 23.75H28.5863C28.6524 23.7503 28.7158 23.7768 28.7625 23.8238L31.1888 26.25H21.75V24C21.75 23.9337 21.7763 23.8701 21.8232 23.8232C21.8701 23.7763 21.9337 23.75 22 23.75ZM44.25 42.1113C44.25 42.1481 44.2354 42.1833 44.2094 42.2094C44.1833 42.2354 44.148 42.25 44.1112 42.25H21.9225C21.877 42.2494 21.8334 42.231 21.8012 42.1988C21.769 42.1666 21.7506 42.1231 21.75 42.0775V27.75H44C44.0663 27.75 44.1299 27.7763 44.1768 27.8232C44.2237 27.8701 44.25 27.9337 44.25 28V42.1113ZM36.75 35C36.75 35.1989 36.671 35.3897 36.5303 35.5303C36.3897 35.671 36.1989 35.75 36 35.75H33.75V38C33.75 38.1989 33.671 38.3897 33.5303 38.5303C33.3897 38.671 33.1989 38.75 33 38.75C32.8011 38.75 32.6103 38.671 32.4697 38.5303C32.329 38.3897 32.25 38.1989 32.25 38V35.75H30C29.8011 35.75 29.6103 35.671 29.4697 35.5303C29.329 35.3897 29.25 35.1989 29.25 35C29.25 34.8011 29.329 34.6103 29.4697 34.4697C29.6103 34.329 29.8011 34.25 30 34.25H32.25V32C32.25 31.8011 32.329 31.6103 32.4697 31.4697C32.6103 31.329 32.8011 31.25 33 31.25C33.1989 31.25 33.3897 31.329 33.5303 31.4697C33.671 31.6103 33.75 31.8011 33.75 32V34.25H36C36.1989 34.25 36.3897 34.329 36.5303 34.4697C36.671 34.6103 36.75 34.8011 36.75 35Z" fill="#606873"/>
</svg>
