<svg width="120" height="120" viewBox="0 0 120 120" fill="none" xmlns="http://www.w3.org/2000/svg">
<circle cx="60" cy="60" r="60" fill="url(#paint0_linear_789_317)"/>
<path d="M28.3059 46.6989C29.1436 46.6989 29.8227 46.0198 29.8227 45.1821C29.8227 44.3444 29.1436 43.6653 28.3059 43.6653C27.4682 43.6653 26.7891 44.3444 26.7891 45.1821C26.7891 46.0198 27.4682 46.6989 28.3059 46.6989Z" fill="#FF5892"/>
<path d="M95.3878 75.6966C95.3785 75.4918 95.4107 75.2872 95.4826 75.0953C95.5546 74.9033 95.6647 74.7279 95.8063 74.5796C95.9479 74.4314 96.1181 74.3134 96.3066 74.2328C96.4951 74.1522 96.698 74.1106 96.903 74.1106C97.108 74.1106 97.3109 74.1522 97.4994 74.2328C97.6879 74.3134 97.8581 74.4314 97.9998 74.5796C98.1414 74.7279 98.2515 74.9033 98.3234 75.0953C98.3953 75.2872 98.4276 75.4918 98.4182 75.6966C98.4004 76.0865 98.233 76.4545 97.9508 76.7241C97.6686 76.9937 97.2933 77.1442 96.903 77.1442C96.5127 77.1442 96.1375 76.9937 95.8552 76.7241C95.573 76.4545 95.4056 76.0865 95.3878 75.6966Z" fill="#06D506"/>
<path d="M85.2648 34.7888C86.1026 34.7888 86.7816 34.1098 86.7816 33.272C86.7816 32.4343 86.1026 31.7552 85.2648 31.7552C84.4271 31.7552 83.748 32.4343 83.748 33.272C83.748 34.1098 84.4271 34.7888 85.2648 34.7888Z" fill="#FF5F4A"/>
<path d="M77.243 40.0155V45.1821H69.2956V39.6047C69.2956 33.7271 64.5082 28.9397 58.6306 28.9397H58.6148C52.7214 28.9397 47.9498 33.7271 47.9498 39.6047V45.1821H40.0024V40.0155C40.0024 29.7455 48.3448 21.4031 58.6148 21.4031H58.6306C68.9006 21.4031 77.243 29.7455 77.243 40.0155ZM61.2582 61.7421L63.6124 69.3893C63.6474 69.5042 63.655 69.6257 63.6347 69.7441C63.6143 69.8625 63.5665 69.9744 63.4951 70.071C63.4237 70.1676 63.3306 70.2462 63.2234 70.3004C63.1162 70.3545 62.9978 70.3829 62.8777 70.3831H54.3615C54.2412 70.3829 54.1226 70.3546 54.0152 70.3003C53.9078 70.2461 53.8147 70.1674 53.7432 70.0706C53.6718 69.9738 53.624 69.8616 53.6038 69.743C53.5836 69.6244 53.5914 69.5027 53.6268 69.3877L55.981 61.7405C54.97 61.1806 54.1633 60.3136 53.6776 59.265C53.1919 58.2163 53.0523 57.0403 53.2792 55.9071C53.6742 53.8626 55.2858 52.1704 57.3129 51.6948C58.1153 51.4987 58.9517 51.4873 59.7591 51.6615C60.5666 51.8357 61.3239 52.1909 61.974 52.7005C62.6241 53.21 63.15 53.8605 63.5121 54.6029C63.8742 55.3453 64.063 56.1603 64.0642 56.9863C64.063 57.9572 63.8022 58.9101 63.3088 59.7463C62.8155 60.5825 62.1074 61.2715 61.2582 61.7421ZM38.6673 89.4158C38.6673 91.1711 37.2358 92.5837 35.4994 92.5837C34.662 92.5837 33.8588 92.251 33.2666 91.6588C32.6745 91.0666 32.3418 90.2635 32.3418 89.426C32.3418 88.5886 32.6745 87.7854 33.2666 87.1932C33.8588 86.6011 34.662 86.2684 35.4994 86.2684C37.2358 86.2684 38.6673 87.6809 38.6673 89.4158ZM51.0182 89.4158C51.0182 91.1711 49.5851 92.5837 47.8503 92.5837C47.0128 92.5837 46.2097 92.251 45.6175 91.6588C45.0253 91.0666 44.6927 90.2635 44.6927 89.426C44.6927 88.5886 45.0253 87.7854 45.6175 87.1932C46.2097 86.6011 47.0128 86.2684 47.8503 86.2684C49.5851 86.2684 51.0182 87.6809 51.0182 89.4158ZM63.3675 89.4158C63.3675 91.1711 61.9344 92.5837 60.1996 92.5837C59.3621 92.5837 58.559 92.251 57.9668 91.6588C57.3746 91.0666 57.0419 90.2635 57.0419 89.426C57.0419 88.5886 57.3746 87.7854 57.9668 87.1932C58.559 86.6011 59.3621 86.2684 60.1996 86.2684C61.9344 86.2684 63.3675 87.6809 63.3675 89.4158ZM75.7167 89.4158C75.7167 91.1711 74.2853 92.5837 72.5504 92.5837C71.713 92.5837 70.9098 92.251 70.3176 91.6588C69.7255 91.0666 69.3928 90.2635 69.3928 89.426C69.3928 88.5886 69.7255 87.7854 70.3176 87.1932C70.9098 86.6011 71.713 86.2684 72.5504 86.2684C74.2853 86.2684 75.7167 87.6809 75.7167 89.4158ZM88.0676 89.4158C88.0676 91.1711 86.6345 92.5837 84.8997 92.5837C84.0623 92.5837 83.2591 92.251 82.6669 91.6588C82.0748 91.0666 81.7421 90.2635 81.7421 89.426C81.7421 88.5886 82.0748 87.7854 82.6669 87.1932C83.2591 86.6011 84.0623 86.2684 84.8997 86.2684C86.6345 86.2684 88.0676 87.6809 88.0676 89.4158Z" fill="#00997D"/>
<path d="M78.0726 44.3762H77.725V40.0154C77.725 29.3188 69.0192 20.613 58.3068 20.613C47.6102 20.613 38.9044 29.3188 38.9044 40.0154V44.3762H38.541C35.9814 44.3762 33.9116 46.4618 33.9116 49.0214V74.254C33.9116 76.8136 35.9814 78.8992 38.541 78.8992H78.0726C80.6322 78.8992 82.7178 76.8136 82.7178 74.254V49.0214C82.7178 46.4618 80.6322 44.3762 78.0726 44.3762ZM40.4844 40.0154C40.4844 30.1878 48.4792 22.193 58.3226 22.193C68.1502 22.193 76.145 30.1878 76.145 40.0154V44.3762H69.7776V39.6046C69.7776 36.5645 68.5699 33.6489 66.4202 31.4991C64.2705 29.3494 61.3549 28.1417 58.3147 28.1417C55.2746 28.1417 52.3589 29.3494 50.2092 31.4991C48.0595 33.6489 46.8518 36.5645 46.8518 39.6046V44.3762H40.4844V40.0154ZM68.1976 39.6046V44.3762H48.4318V39.6046C48.4318 34.1536 52.8558 29.7296 58.3226 29.7296C63.7736 29.7296 68.1976 34.1536 68.1976 39.6046ZM81.1378 74.254C81.1378 75.9446 79.7632 77.3192 78.0726 77.3192H38.541C37.7308 77.3151 36.9552 76.9903 36.3838 76.4159C35.8124 75.8415 35.4916 75.0642 35.4916 74.254V49.0214C35.4916 47.3308 36.8662 45.9562 38.541 45.9562H78.0726C79.7632 45.9562 81.1378 47.3308 81.1378 49.0214V74.254Z" fill="#2E3F68"/>
<path d="M54.2809 62.2381L52.1874 69.0368C52.0057 69.6262 52.1147 70.2756 52.4829 70.7717C52.851 71.2678 53.4372 71.5664 54.055 71.5664H62.5712C62.8767 71.566 63.1779 71.4939 63.4506 71.3561C63.7233 71.2182 63.9599 71.0184 64.1415 70.7727C64.323 70.5269 64.4445 70.242 64.4961 69.9408C64.5477 69.6397 64.5281 69.3306 64.4387 69.0384L62.3436 62.2381C63.1502 61.62 63.8039 60.8248 64.2543 59.9139C64.7046 59.003 64.9397 58.0008 64.9412 56.9846C64.9412 52.7455 60.9912 49.5349 56.7346 50.5382C54.2698 51.1165 52.2933 53.1831 51.8098 55.6795C51.5714 56.8944 51.6763 58.1517 52.1128 59.3102C52.5493 60.4687 53.3001 61.4826 54.2809 62.2381ZM54.1371 56.1298C54.2951 55.3414 54.6739 54.6141 55.2295 54.0327C55.7851 53.4514 56.4945 53.04 57.275 52.8466C57.9035 52.6908 58.5593 52.6801 59.1926 52.8151C59.8259 52.9502 60.4202 53.2276 60.9304 53.6263C61.4407 54.025 61.8536 54.5345 62.1379 55.1164C62.4221 55.6982 62.5703 56.3371 62.5712 56.9846C62.5712 58.5235 61.729 59.9487 60.3734 60.7055C60.1363 60.8373 59.9516 61.0465 59.8504 61.2982C59.7491 61.5499 59.7374 61.8287 59.8172 62.088L62.0071 69.1964H54.6174L56.8073 62.088C56.8871 61.8287 56.8754 61.5499 56.7742 61.2982C56.6729 61.0465 56.4883 60.8373 56.2512 60.7055C55.4553 60.2696 54.8204 59.5899 54.4399 58.7662C54.0593 57.9425 53.9532 57.0184 54.1371 56.1298ZM90.3586 80.8252H29.4259C28.436 80.8269 27.4871 81.221 26.7872 81.9212C26.0873 82.6213 25.6936 83.5704 25.6924 84.5603V94.2931C25.6936 95.283 26.0874 96.2319 26.7873 96.9318C27.4872 97.6317 28.4361 98.0254 29.4259 98.0267H90.3586C91.3487 98.0258 92.298 97.6323 92.9983 96.9323C93.6985 96.2324 94.0925 95.2832 94.0937 94.2931V84.5603C94.0925 83.5701 93.6986 82.6208 92.9984 81.9206C92.2982 81.2204 91.3489 80.8265 90.3586 80.8252ZM92.5137 94.2931C92.5137 95.4813 91.5468 96.4467 90.3586 96.4467H29.4259C28.855 96.4458 28.3077 96.2187 27.9041 95.815C27.5004 95.4113 27.2732 94.864 27.2724 94.2931V84.5603C27.2724 83.3722 28.2362 82.4052 29.4259 82.4052H90.3586C91.5468 82.4052 92.5137 83.3722 92.5137 84.5603V94.2931Z" fill="#2E3F68"/>
<path d="M35.1917 85.085C34.0408 85.0837 32.9364 85.5389 32.1207 86.3508C31.305 87.1626 30.8445 88.2649 30.8403 89.4157C30.8412 90.5697 31.2998 91.6761 32.1156 92.4922C32.9314 93.3083 34.0377 93.7674 35.1917 93.7686C36.3457 93.7674 37.4522 93.3084 38.2682 92.4923C39.0843 91.6763 39.5433 90.5698 39.5446 89.4157C39.5404 88.2646 39.0797 87.1621 38.2637 86.3502C37.4476 85.5383 36.3428 85.0833 35.1917 85.085ZM35.1917 91.3986C34.6662 91.3978 34.1624 91.1886 33.791 90.8168C33.4196 90.4451 33.2107 89.9412 33.2103 89.4157C33.2141 88.8933 33.4247 88.3937 33.796 88.0262C34.1674 87.6587 34.6692 87.4533 35.1917 87.455C35.7144 87.4529 36.2166 87.6581 36.5883 88.0256C36.96 88.3931 37.1708 88.893 37.1746 89.4157C37.1746 90.5091 36.2866 91.3986 35.1917 91.3986ZM47.5425 85.085C46.3916 85.0837 45.2872 85.5389 44.4715 86.3508C43.6558 87.1626 43.1954 88.2649 43.1912 89.4157C43.192 90.5697 43.6507 91.6761 44.4665 92.4922C45.2823 93.3083 46.3886 93.7674 47.5425 93.7686C48.6966 93.7674 49.803 93.3084 50.6191 92.4923C51.4351 91.6763 51.8942 90.5698 51.8954 89.4157C51.8912 88.2646 51.4306 87.1621 50.6145 86.3502C49.7985 85.5383 48.6937 85.0833 47.5425 85.085ZM47.5425 91.3986C47.017 91.3978 46.5133 91.1886 46.1419 90.8168C45.7704 90.4451 45.5616 89.9412 45.5612 89.4157C45.5649 88.8933 45.7756 88.3937 46.1469 88.0262C46.5182 87.6587 47.0201 87.4533 47.5425 87.455C48.0652 87.4529 48.5675 87.6581 48.9391 88.0256C49.3108 88.3931 49.5217 88.893 49.5254 89.4157C49.5254 90.5091 48.6359 91.3986 47.5425 91.3986ZM59.8918 85.085C58.7409 85.0837 57.6365 85.5389 56.8208 86.3508C56.0051 87.1626 55.5447 88.2649 55.5405 89.4157C55.5413 90.5697 56 91.6761 56.8158 92.4922C57.6316 93.3083 58.7379 93.7674 59.8918 93.7686C61.0459 93.7674 62.1523 93.3084 62.9684 92.4923C63.7844 91.6763 64.2434 90.5698 64.2447 89.4157C64.2405 88.2646 63.7799 87.1621 62.9638 86.3502C62.1477 85.5383 61.0429 85.0833 59.8918 85.085ZM59.8918 91.3986C59.3663 91.3978 58.8626 91.1886 58.4912 90.8168C58.1197 90.4451 57.9109 89.9412 57.9105 89.4157C57.9142 88.8933 58.1248 88.3937 58.4962 88.0262C58.8675 87.6587 59.3694 87.4533 59.8918 87.455C60.4145 87.4529 60.9167 87.6581 61.2884 88.0256C61.6601 88.3931 61.8709 88.893 61.8747 89.4157C61.8747 90.5091 60.9852 91.3986 59.8918 91.3986ZM72.2426 85.085C71.0918 85.0837 69.9874 85.5389 69.1717 86.3508C68.356 87.1626 67.8955 88.2649 67.8913 89.4157C67.8922 90.5697 68.3508 91.6761 69.1666 92.4922C69.9824 93.3083 71.0887 93.7674 72.2426 93.7686C73.3965 93.767 74.5025 93.3078 75.3182 92.4918C76.1339 91.6758 76.5927 90.5695 76.594 89.4157C76.5898 88.2649 76.1293 87.1626 75.3136 86.3508C74.4979 85.5389 73.3935 85.0837 72.2426 85.085ZM72.2426 91.3986C71.7172 91.3978 71.2134 91.1886 70.842 90.8168C70.4706 90.4451 70.2617 89.9412 70.2613 89.4157C70.2651 88.8933 70.4757 88.3937 70.847 88.0262C71.2184 87.6587 71.7202 87.4533 72.2426 87.455C72.7651 87.4533 73.2669 87.6587 73.6383 88.0262C74.0096 88.3937 74.2202 88.8933 74.224 89.4157C74.224 90.5091 73.336 91.3986 72.2426 91.3986ZM84.5919 85.085C83.4411 85.0837 82.3367 85.5389 81.521 86.3508C80.7052 87.1626 80.2448 88.2649 80.2406 89.4157C80.2414 90.5697 80.7001 91.6761 81.5159 92.4922C82.3317 93.3083 83.438 93.7674 84.5919 93.7686C85.746 93.7674 86.8525 93.3084 87.6685 92.4923C88.4846 91.6763 88.9436 90.5698 88.9448 89.4157C88.9406 88.2646 88.48 87.1621 87.6639 86.3502C86.8479 85.5383 85.7431 85.0833 84.5919 85.085ZM84.5919 91.3986C84.0664 91.3978 83.5627 91.1886 83.1913 90.8168C82.8199 90.4451 82.611 89.9412 82.6106 89.4157C82.6144 88.8933 82.825 88.3937 83.1963 88.0262C83.5677 87.6587 84.0695 87.4533 84.5919 87.455C85.1147 87.4529 85.6169 87.6581 85.9886 88.0256C86.3602 88.3931 86.5711 88.893 86.5748 89.4157C86.5748 90.5091 85.6853 91.3986 84.5919 91.3986Z" fill="#2E3F68"/>
<defs>
<linearGradient id="paint0_linear_789_317" x1="52.5" y1="-312.857" x2="52.5" y2="111.964" gradientUnits="userSpaceOnUse">
<stop stop-color="#00FFD1" stop-opacity="0.17"/>
<stop offset="1" stop-color="white"/>
</linearGradient>
</defs>
</svg>
