<svg width="40" height="41" viewBox="0 0 40 41" fill="none" xmlns="http://www.w3.org/2000/svg">
<circle cx="20" cy="20.5" r="20" fill="#ECEFF2"/>
<path d="M26.875 15.625H24.1344C24.1648 15.5992 24.1961 15.5742 24.2258 15.5469C24.4631 15.3361 24.6543 15.0786 24.7875 14.7905C24.9207 14.5024 24.9931 14.19 25 13.8726C25.0103 13.5255 24.9495 13.18 24.8213 12.8572C24.6932 12.5344 24.5005 12.2412 24.255 11.9956C24.0094 11.75 23.7163 11.5572 23.3936 11.4289C23.0708 11.3007 22.7253 11.2398 22.3781 11.25C22.0607 11.2568 21.7481 11.3291 21.4598 11.4623C21.1716 11.5956 20.914 11.7868 20.7031 12.0242C20.4113 12.3624 20.1741 12.7441 20 13.1555C19.8259 12.7441 19.5887 12.3624 19.2969 12.0242C19.086 11.7868 18.8284 11.5956 18.5402 11.4623C18.2519 11.3291 17.9393 11.2568 17.6219 11.25C17.2747 11.2398 16.9292 11.3007 16.6064 11.4289C16.2837 11.5572 15.9906 11.75 15.745 11.9956C15.4995 12.2412 15.3068 12.5344 15.1787 12.8572C15.0505 13.18 14.9897 13.5255 15 13.8726C15.0069 14.19 15.0793 14.5024 15.2125 14.7905C15.3457 15.0786 15.5369 15.3361 15.7742 15.5469C15.8039 15.5726 15.8352 15.5976 15.8656 15.625H13.125C12.7935 15.625 12.4755 15.7567 12.2411 15.9911C12.0067 16.2255 11.875 16.5435 11.875 16.875V19.375C11.875 19.7065 12.0067 20.0245 12.2411 20.2589C12.4755 20.4933 12.7935 20.625 13.125 20.625V25.625C13.125 25.9565 13.2567 26.2745 13.4911 26.5089C13.7255 26.7433 14.0435 26.875 14.375 26.875H19.0625C19.1454 26.875 19.2249 26.8421 19.2835 26.7835C19.3421 26.7249 19.375 26.6454 19.375 26.5625V19.375H13.125V16.875H19.375V19.375H20.625V16.875H26.875V19.375H20.625V26.5625C20.625 26.6454 20.6579 26.7249 20.7165 26.7835C20.7751 26.8421 20.8546 26.875 20.9375 26.875H25.625C25.9565 26.875 26.2745 26.7433 26.5089 26.5089C26.7433 26.2745 26.875 25.9565 26.875 25.625V20.625C27.2065 20.625 27.5245 20.4933 27.7589 20.2589C27.9933 20.0245 28.125 19.7065 28.125 19.375V16.875C28.125 16.5435 27.9933 16.2255 27.7589 15.9911C27.5245 15.7567 27.2065 15.625 26.875 15.625ZM16.6023 14.6094C16.4931 14.5104 16.4054 14.3899 16.3449 14.2555C16.2844 14.121 16.2524 13.9755 16.2508 13.8281C16.2468 13.6554 16.2774 13.4836 16.3407 13.3228C16.404 13.1621 16.4987 13.0155 16.6193 12.8918C16.74 12.7682 16.8841 12.6698 17.0432 12.6025C17.2024 12.5352 17.3733 12.5004 17.5461 12.5H17.5844C17.7318 12.5016 17.8773 12.5336 18.0117 12.5941C18.1462 12.6546 18.2667 12.7423 18.3656 12.8516C19.0211 13.5922 19.2523 14.8203 19.3336 15.5797C18.5711 15.4992 17.3438 15.268 16.6023 14.6094ZM23.3992 14.6094C22.6578 15.2656 21.4273 15.4969 20.6648 15.5781C20.7578 14.757 21.0156 13.5547 21.6406 12.8523C21.7396 12.7431 21.8601 12.6554 21.9945 12.5949C22.129 12.5344 22.2745 12.5024 22.4219 12.5008H22.4602C22.6329 12.5019 22.8038 12.5374 22.9626 12.6054C23.1215 12.6733 23.2652 12.7723 23.3854 12.8965C23.5055 13.0207 23.5996 13.1676 23.6622 13.3287C23.7248 13.4897 23.7547 13.6616 23.75 13.8344C23.7475 13.9808 23.7149 14.1251 23.6543 14.2584C23.5937 14.3917 23.5063 14.5112 23.3977 14.6094H23.3992Z" fill="#40464D"/>
</svg>
