<svg width="17" height="12" viewBox="0 0 17 12" fill="none" xmlns="http://www.w3.org/2000/svg">
<path d="M16.1699 8.51651H15.6074V1.76651C15.6074 1.31896 15.4296 0.889735 15.1132 0.573267C14.7967 0.2568 14.3675 0.07901 13.9199 0.07901H3.79492C3.34737 0.07901 2.91815 0.2568 2.60168 0.573267C2.28521 0.889735 2.10742 1.31896 2.10742 1.76651V8.51651H1.54492C1.39574 8.51651 1.25266 8.57577 1.14717 8.68126C1.04169 8.78675 0.982422 8.92983 0.982422 9.07901V10.204C0.982422 10.6516 1.16021 11.0808 1.47668 11.3973C1.79315 11.7137 2.22237 11.8915 2.66992 11.8915H15.0449C15.4925 11.8915 15.9217 11.7137 16.2382 11.3973C16.5546 11.0808 16.7324 10.6516 16.7324 10.204V9.07901C16.7324 8.92983 16.6732 8.78675 16.5677 8.68126C16.4622 8.57577 16.3191 8.51651 16.1699 8.51651ZM7.73242 1.76651H9.98242C10.1316 1.76651 10.2747 1.82577 10.3802 1.93126C10.4857 2.03675 10.5449 2.17983 10.5449 2.32901C10.5449 2.47819 10.4857 2.62127 10.3802 2.72676C10.2747 2.83225 10.1316 2.89151 9.98242 2.89151H7.73242C7.58324 2.89151 7.44016 2.83225 7.33467 2.72676C7.22919 2.62127 7.16992 2.47819 7.16992 2.32901C7.16992 2.17983 7.22919 2.03675 7.33467 1.93126C7.44016 1.82577 7.58324 1.76651 7.73242 1.76651ZM15.6074 10.204C15.6074 10.3532 15.5482 10.4963 15.4427 10.6018C15.3372 10.7072 15.1941 10.7665 15.0449 10.7665H2.66992C2.52074 10.7665 2.37766 10.7072 2.27217 10.6018C2.16669 10.4963 2.10742 10.3532 2.10742 10.204V9.64151H15.6074V10.204Z" fill="#808B9A"/>
</svg>
