<svg width="42" height="42" viewBox="0 0 42 42" fill="none" xmlns="http://www.w3.org/2000/svg">
<rect opacity="0.2" width="42" height="42" rx="21" fill="#EB5757"/>
<path d="M31 17.8125C31 24.375 21.2697 29.6869 20.8553 29.9062C20.7461 29.965 20.624 29.9958 20.5 29.9958C20.376 29.9958 20.2539 29.965 20.1447 29.9062C19.7303 29.6869 10 24.375 10 17.8125C10.0017 16.2715 10.6147 14.794 11.7044 13.7044C12.794 12.6147 14.2715 12.0017 15.8125 12C17.7484 12 19.4434 12.8325 20.5 14.2397C21.5566 12.8325 23.2516 12 25.1875 12C26.7285 12.0017 28.206 12.6147 29.2956 13.7044C30.3853 14.794 30.9983 16.2715 31 17.8125Z" fill="#FF3850"/>
</svg>
