<svg width="42" height="40" viewBox="0 0 42 40" fill="none" xmlns="http://www.w3.org/2000/svg">
<rect width="42" height="40" rx="6" fill="#276CEC"/>
<path d="M30.7772 12.1569C30.7772 12.1569 30.7772 12.1662 30.7772 12.1709L25.0482 30.1653C24.9615 30.4576 24.783 30.7176 24.5366 30.9105C24.2903 31.1034 23.9879 31.2199 23.6701 31.2444C23.6248 31.2481 23.5795 31.25 23.5342 31.25C23.2363 31.2509 22.9444 31.1706 22.6929 31.0186C22.4414 30.8666 22.2408 30.6492 22.1147 30.3922L18.5995 23.3244C18.5648 23.2545 18.5537 23.176 18.5676 23.0998C18.5815 23.0236 18.6198 22.9534 18.6773 22.8988L24.3138 17.5297C24.4553 17.3879 24.533 17.1991 24.5303 17.0035C24.5277 16.8079 24.445 16.6211 24.2998 16.4828C24.1545 16.3445 23.9583 16.2657 23.753 16.2632C23.5476 16.2607 23.3494 16.3347 23.2005 16.4694L17.5551 21.8375C17.4977 21.8922 17.424 21.9287 17.344 21.942C17.264 21.9552 17.1816 21.9446 17.1082 21.9116L9.7254 18.5806C9.43544 18.4541 9.19143 18.2485 9.02426 17.9898C8.85709 17.7311 8.77427 17.431 8.7863 17.1275C8.80234 16.8155 8.92093 16.5163 9.1253 16.272C9.32968 16.0277 9.60951 15.8508 9.92523 15.7662L28.8193 10.31H28.8341C29.1031 10.238 29.3874 10.2355 29.6578 10.3027C29.9281 10.3699 30.1749 10.5044 30.3727 10.6924C30.5704 10.8803 30.7121 11.1151 30.7832 11.3724C30.8543 11.6298 30.8523 11.9005 30.7772 12.1569Z" fill="white"/>
</svg>
