<svg width="17" height="17" viewBox="0 0 17 17" fill="none" xmlns="http://www.w3.org/2000/svg">
<path d="M14.6826 1.9925C14.5569 1.86683 14.3999 1.77695 14.2278 1.73213C14.0558 1.68731 13.8749 1.68916 13.7039 1.7375H13.6945L1.69823 5.3775C1.50295 5.43365 1.32941 5.54797 1.20073 5.70522C1.07204 5.86246 0.994307 6.05518 0.977882 6.25771C0.961458 6.46024 1.00712 6.66296 1.10879 6.83889C1.21045 7.01482 1.3633 7.1556 1.54698 7.2425L6.89823 9.77687L9.4326 15.1281C9.51262 15.2995 9.63999 15.4444 9.79968 15.5457C9.95937 15.6471 10.1447 15.7006 10.3339 15.7C10.3626 15.7 10.3914 15.6987 10.4201 15.6962C10.6219 15.6799 10.8139 15.6022 10.9703 15.4736C11.1267 15.3451 11.24 15.1717 11.2951 14.9769L14.9326 2.98062C14.9326 2.9775 14.9326 2.97437 14.9326 2.97125C14.9816 2.8006 14.9842 2.61999 14.9403 2.44798C14.8963 2.27597 14.8074 2.11876 14.6826 1.9925ZM10.3395 14.6906L10.3364 14.6994L7.87635 9.50624L10.8289 6.55312C10.9187 6.45859 10.968 6.33271 10.9663 6.20233C10.9647 6.07195 10.9121 5.94738 10.8199 5.85518C10.7277 5.76298 10.6031 5.71044 10.4728 5.70878C10.3424 5.70711 10.2165 5.75643 10.122 5.84624L7.16885 8.79875L1.9751 6.33875H1.98385L13.9751 2.7L10.3395 14.6906Z" fill="white"/>
</svg>
