<svg width="28" height="28" viewBox="0 0 28 28" fill="none" xmlns="http://www.w3.org/2000/svg">
<circle cx="14" cy="14" r="14" fill="#282828"/>
<path d="M16.0575 7.30782L9.80746 13.5578C9.74935 13.6159 9.70325 13.6848 9.6718 13.7607C9.64035 13.8365 9.62416 13.9179 9.62416 14C9.62416 14.0821 9.64035 14.1635 9.6718 14.2393C9.70325 14.3152 9.74935 14.3841 9.80746 14.4422L16.0575 20.6922C16.1747 20.8095 16.3338 20.8754 16.4997 20.8754C16.6655 20.8754 16.8246 20.8095 16.9418 20.6922C17.0591 20.5749 17.125 20.4159 17.125 20.25C17.125 20.0842 17.0591 19.9251 16.9418 19.8078L11.1332 14L16.9418 8.19219C16.9999 8.13412 17.046 8.06518 17.0774 7.98931C17.1088 7.91344 17.125 7.83212 17.125 7.75C17.125 7.66788 17.1088 7.58656 17.0774 7.51069C17.046 7.43482 16.9999 7.36588 16.9418 7.30782C16.8838 7.24975 16.8148 7.20368 16.739 7.17226C16.6631 7.14083 16.5818 7.12465 16.4997 7.12465C16.4175 7.12465 16.3362 7.14083 16.2603 7.17226C16.1845 7.20368 16.1155 7.24975 16.0575 7.30782Z" fill="white"/>
</svg>
