<svg width="16" height="14" viewBox="0 0 16 14" fill="none" xmlns="http://www.w3.org/2000/svg">
<path d="M14.75 0.07901H10.8125C10.2158 0.07901 9.64347 0.316063 9.22151 0.73802C8.79955 1.15998 8.5625 1.73227 8.5625 2.32901V8.51651C8.5625 8.66569 8.50324 8.80877 8.39775 8.91426C8.29226 9.01975 8.14918 9.07901 8 9.07901C7.85082 9.07901 7.70774 9.01975 7.60225 8.91426C7.49676 8.80877 7.4375 8.66569 7.4375 8.51651V2.32901C7.4375 1.73227 7.20045 1.15998 6.77849 0.73802C6.35653 0.316063 5.78424 0.07901 5.1875 0.07901H1.25C0.951631 0.07901 0.665483 0.197536 0.454505 0.408515C0.243526 0.619493 0.125 0.905641 0.125 1.20401V10.204C0.125 10.5024 0.243526 10.7885 0.454505 10.9995C0.665483 11.2105 0.951631 11.329 1.25 11.329H5.75C6.19755 11.329 6.62678 11.5068 6.94324 11.8233C7.25971 12.1397 7.4375 12.569 7.4375 13.0165C7.4375 13.1657 7.49676 13.3088 7.60225 13.4143C7.70774 13.5197 7.85082 13.579 8 13.579C8.14918 13.579 8.29226 13.5197 8.39775 13.4143C8.50324 13.3088 8.5625 13.1657 8.5625 13.0165C8.5625 12.569 8.74029 12.1397 9.05676 11.8233C9.37322 11.5068 9.80245 11.329 10.25 11.329H14.75C15.0484 11.329 15.3345 11.2105 15.5455 10.9995C15.7565 10.7885 15.875 10.5024 15.875 10.204V1.20401C15.875 0.905641 15.7565 0.619493 15.5455 0.408515C15.3345 0.197536 15.0484 0.07901 14.75 0.07901ZM13.625 8.51651H10.8125C10.6633 8.51651 10.5202 8.45725 10.4148 8.35176C10.3093 8.24627 10.25 8.10319 10.25 7.95401C10.25 7.80483 10.3093 7.66175 10.4148 7.55626C10.5202 7.45077 10.6633 7.39151 10.8125 7.39151H13.625C13.7742 7.39151 13.9173 7.45077 14.0227 7.55626C14.1282 7.66175 14.1875 7.80483 14.1875 7.95401C14.1875 8.10319 14.1282 8.24627 14.0227 8.35176C13.9173 8.45725 13.7742 8.51651 13.625 8.51651ZM13.625 6.26651H10.8125C10.6633 6.26651 10.5202 6.20725 10.4148 6.10176C10.3093 5.99627 10.25 5.85319 10.25 5.70401C10.25 5.55483 10.3093 5.41175 10.4148 5.30626C10.5202 5.20077 10.6633 5.14151 10.8125 5.14151H13.625C13.7742 5.14151 13.9173 5.20077 14.0227 5.30626C14.1282 5.41175 14.1875 5.55483 14.1875 5.70401C14.1875 5.85319 14.1282 5.99627 14.0227 6.10176C13.9173 6.20725 13.7742 6.26651 13.625 6.26651ZM13.625 4.01651H10.8125C10.6633 4.01651 10.5202 3.95725 10.4148 3.85176C10.3093 3.74627 10.25 3.60319 10.25 3.45401C10.25 3.30483 10.3093 3.16175 10.4148 3.05626C10.5202 2.95077 10.6633 2.89151 10.8125 2.89151H13.625C13.7742 2.89151 13.9173 2.95077 14.0227 3.05626C14.1282 3.16175 14.1875 3.30483 14.1875 3.45401C14.1875 3.60319 14.1282 3.74627 14.0227 3.85176C13.9173 3.95725 13.7742 4.01651 13.625 4.01651Z" fill="#808B9A"/>
</svg>
