<svg width="69" height="69" viewBox="0 0 69 69" fill="none" xmlns="http://www.w3.org/2000/svg">
<path fill-rule="evenodd" clip-rule="evenodd" d="M38.1091 10.0548V57.7918L9.7315 52.8716V14.975L38.1091 10.0548ZM39.4575 15.5656H58.3031C59.3446 15.5656 59.5446 15.7702 59.5446 16.8072V51.0347C59.5446 52.0718 59.3446 52.2764 58.3031 52.2764H39.4575V49.0489H46.6507V44.0915H39.4575V42.6034H46.6507V37.6413H39.4575V36.1532H46.6507V31.1911H39.4575V29.703H46.6507V24.7456H39.4575V23.2574H46.6507V18.2954H39.4575V15.5656ZM3.17413 57.6709C3.17478 62.0887 6.75631 65.6697 11.1741 65.6697H57.8276C62.2454 65.6697 65.827 62.0887 65.8276 57.6709L65.8345 11.0012C65.8352 6.58245 62.2533 3 57.8345 3H11.1672C6.74847 3 3.16655 6.58245 3.1672 11.0012L3.17413 57.6709Z" fill="#1E7145"/>
<path fill-rule="evenodd" clip-rule="evenodd" d="M26.6022 25.1825L24.0123 31.1488L22 25.5437L18.7627 25.6891L21.9767 33.8552L18.3574 41.8432L21.5389 42.0824L24.0915 36.3365L26.4671 42.4154L30.1283 42.6171L26.1596 33.8224L29.9559 24.9386L26.6022 25.1825ZM48.1409 49.3761H56.3391V44.3761H48.1409V49.3761ZM48.1409 42.8751H56.3391V37.8703H48.1409V42.8751ZM48.1409 36.3693H56.3391V31.3646H48.1409V36.3693ZM48.1409 23.3626H56.3391V18.3578H48.1409V23.3626ZM48.1409 29.8636H56.3391V24.8635H48.1409V29.8636Z" fill="#1E7145"/>
</svg>
