<svg width="20" height="20" viewBox="0 0 20 20" fill="none" xmlns="http://www.w3.org/2000/svg">
<path d="M11.8961 2.96331C11.9173 2.88399 11.954 2.80963 12.0039 2.74447C12.0539 2.67932 12.1162 2.62464 12.1873 2.58358C12.2584 2.54252 12.3369 2.51586 12.4183 2.50515C12.4997 2.49443 12.5824 2.49986 12.6617 2.52112C13.8204 2.82342 14.8775 3.42912 15.7242 4.27583C16.5709 5.12255 17.1766 6.17966 17.4789 7.33831C17.5002 7.41761 17.5056 7.50033 17.4949 7.58174C17.4842 7.66314 17.4575 7.74164 17.4165 7.81274C17.3754 7.88384 17.3207 7.94615 17.2556 7.99612C17.1904 8.04608 17.116 8.08272 17.0367 8.10393C16.9839 8.1178 16.9296 8.12489 16.875 8.12503C16.7373 8.12502 16.6034 8.07952 16.4942 7.99561C16.385 7.91169 16.3066 7.79405 16.2711 7.66096C16.0245 6.71512 15.5302 5.85214 14.8391 5.16098C14.1479 4.46982 13.2849 3.97548 12.3391 3.72893C12.2597 3.7078 12.1852 3.67122 12.12 3.6213C12.0548 3.57137 12 3.50907 11.9589 3.43796C11.9177 3.36685 11.891 3.28832 11.8802 3.20688C11.8695 3.12543 11.8749 3.04266 11.8961 2.96331ZM11.7141 6.22893C12.7914 6.51643 13.4836 7.20862 13.7711 8.28596C13.8066 8.41905 13.885 8.53669 13.9942 8.62061C14.1034 8.70452 14.2373 8.75002 14.375 8.75003C14.4296 8.74989 14.4839 8.7428 14.5367 8.72893C14.616 8.70772 14.6904 8.67108 14.7556 8.62112C14.8207 8.57115 14.8754 8.50884 14.9165 8.43774C14.9575 8.36664 14.9842 8.28814 14.9949 8.20674C15.0056 8.12533 15.0002 8.04261 14.9789 7.96331C14.5789 6.46643 13.5336 5.42112 12.0367 5.02112C11.9574 4.99993 11.8747 4.99457 11.7933 5.00535C11.712 5.01613 11.6335 5.04283 11.5624 5.08392C11.4914 5.12502 11.4291 5.17971 11.3792 5.24487C11.3293 5.31003 11.2927 5.38439 11.2715 5.4637C11.2503 5.543 11.2449 5.62571 11.2557 5.70708C11.2665 5.78846 11.2932 5.86692 11.3343 5.93797C11.3754 6.00903 11.4301 6.0713 11.4952 6.12122C11.5604 6.17115 11.6348 6.20775 11.7141 6.22893ZM18.1156 13.6781C17.9763 14.7368 17.4564 15.7085 16.6531 16.4118C15.8497 17.1151 14.8177 17.5019 13.75 17.5C7.54688 17.5 2.50001 12.4531 2.50001 6.25002C2.49809 5.18228 2.88492 4.15035 3.58824 3.34697C4.29155 2.54359 5.26326 2.0237 6.32188 1.8844C6.58958 1.85171 6.86067 1.90648 7.09468 2.04052C7.3287 2.17457 7.51309 2.3807 7.62032 2.62815L9.27032 6.31174V6.32112C9.35242 6.51054 9.38633 6.71734 9.36901 6.92305C9.3517 7.12877 9.2837 7.32699 9.1711 7.50003C9.15704 7.52112 9.14219 7.54065 9.12657 7.56018L7.50001 9.48831C8.08516 10.6774 9.32891 11.9102 10.5336 12.4969L12.4352 10.8789C12.4538 10.8632 12.4734 10.8486 12.4938 10.8352C12.6666 10.7199 12.8655 10.6495 13.0725 10.6304C13.2794 10.6113 13.4878 10.6441 13.6789 10.7258L13.6891 10.7305L17.3695 12.3797C17.6174 12.4866 17.8241 12.6708 17.9585 12.9048C18.093 13.1389 18.1481 13.4102 18.1156 13.6781ZM16.875 13.5219C16.875 13.5219 16.8695 13.5219 16.8664 13.5219L13.1945 11.8774L11.2922 13.4953C11.2737 13.511 11.2544 13.5256 11.2344 13.5391C11.0545 13.6591 10.8466 13.7304 10.6309 13.746C10.4152 13.7616 10.1992 13.721 10.0039 13.6281C8.54063 12.9211 7.08204 11.4735 6.37423 10.0258C6.2805 9.83194 6.23844 9.61716 6.25213 9.40226C6.26582 9.18736 6.33478 8.97965 6.45235 8.79924C6.4656 8.77806 6.48049 8.75795 6.49688 8.73909L8.12501 6.80862L6.48438 3.13674C6.48407 3.13363 6.48407 3.13049 6.48438 3.12737C5.72677 3.2262 5.03116 3.59781 4.52783 4.17261C4.0245 4.74742 3.74796 5.486 3.75001 6.25002C3.7529 8.9013 4.8074 11.4432 6.68214 13.3179C8.55687 15.1926 11.0987 16.2471 13.75 16.25C14.5136 16.2526 15.2519 15.9771 15.8271 15.4748C16.4022 14.9726 16.7747 14.2781 16.875 13.5211V13.5219Z" fill="#40464D"/>
</svg>
