<svg width="30" height="30" viewBox="0 0 30 30" fill="none" xmlns="http://www.w3.org/2000/svg">
<circle cx="15" cy="15" r="15" fill="#276CEC"/>
<g clip-path="url(#clip0_208_298)">
<path d="M15 8C11.1348 8 8 11.1348 8 15C8 18.8652 11.1348 22 15 22C18.8652 22 22 18.8652 22 15C22 11.1348 18.8652 8 15 8ZM15.563 20.7522C15.5326 20.7522 15.5022 20.7522 15.4565 20.7674V17.4652C16.2478 17.45 16.963 17.4348 17.6174 17.3891C17.0391 19.1696 15.9587 20.3565 15.563 20.7522ZM14.437 20.7522C14.0261 20.3413 12.9609 19.1543 12.3826 17.3891C13.0217 17.4348 13.7522 17.4652 14.5435 17.4652V20.7674C14.513 20.7674 14.4826 20.7522 14.437 20.7522ZM9.21739 15C9.21739 14.6196 9.26304 14.2391 9.32391 13.8739C9.6587 13.813 10.2978 13.7217 11.1957 13.6304C11.1196 14.0717 11.0739 14.5283 11.0739 15.0152C11.0739 15.5022 11.1196 15.9587 11.1804 16.3848C10.2978 16.2935 9.64348 16.2022 9.3087 16.1413C9.26304 15.7609 9.21739 15.3804 9.21739 15ZM12.0022 15C12.0022 14.4826 12.063 13.9957 12.1543 13.5391C12.8543 13.4935 13.6457 13.4478 14.5435 13.4478V16.5522C13.6609 16.537 12.8543 16.5065 12.1391 16.4457C12.063 16.0043 12.0022 15.5174 12.0022 15ZM15.5478 9.24783C15.9587 9.6587 17.0087 10.8761 17.6022 12.6109C16.963 12.5652 16.2478 12.5348 15.4565 12.5348V9.23261C15.487 9.23261 15.5174 9.24783 15.5478 9.24783ZM14.5435 9.23261V12.5348C13.7522 12.55 13.037 12.5652 12.3978 12.6109C12.9761 10.8761 14.0413 9.6587 14.437 9.24783C14.4826 9.24783 14.513 9.23261 14.5435 9.23261ZM15.4565 16.5522V13.4478C16.3391 13.463 17.1457 13.4935 17.8457 13.5391C17.937 13.9957 17.9978 14.4826 17.9978 15C17.9978 15.5174 17.9522 16.0043 17.8609 16.4609C17.1609 16.5065 16.3543 16.537 15.4565 16.5522ZM18.7891 13.6304C19.687 13.7217 20.3261 13.813 20.6609 13.8739C20.737 14.2391 20.7826 14.6196 20.7826 15C20.7826 15.3804 20.737 15.7609 20.6761 16.1261C20.3413 16.187 19.7022 16.2783 18.8043 16.3696C18.8804 15.9283 18.9109 15.4717 18.9109 14.9848C18.9109 14.5283 18.8652 14.0565 18.7891 13.6304ZM20.387 12.9C19.9609 12.8391 19.3522 12.763 18.5761 12.687C18.2109 11.3783 17.5717 10.3283 17.0391 9.58261C18.5761 10.1609 19.7935 11.3783 20.387 12.9ZM12.9609 9.58261C12.413 10.313 11.7891 11.363 11.4239 12.6717C10.663 12.7326 10.0543 12.8239 9.61304 12.8848C10.2065 11.3783 11.4391 10.1609 12.9609 9.58261ZM9.61304 17.1C10.0391 17.1609 10.6478 17.237 11.4087 17.313C11.7739 18.6217 12.3826 19.6717 12.9304 20.4022C11.4087 19.8087 10.2065 18.6065 9.61304 17.1ZM17.0696 20.4022C17.6174 19.6717 18.2261 18.637 18.5913 17.3283C19.3522 17.2674 19.9609 17.1761 20.387 17.1152C19.7935 18.6065 18.5913 19.8087 17.0696 20.4022Z" fill="#00FFD1"/>
</g>
<defs>
<clipPath id="clip0_208_298">
<rect width="14" height="14" fill="white" transform="translate(8 8)"/>
</clipPath>
</defs>
</svg>
