<svg width="40" height="40" viewBox="0 0 40 40" fill="none" xmlns="http://www.w3.org/2000/svg">
<circle cx="20" cy="20" r="20" fill="#276CEC"/>
<path d="M26.875 15.125H24.1344C24.1648 15.0992 24.1961 15.0742 24.2258 15.0469C24.4631 14.8361 24.6543 14.5786 24.7875 14.2905C24.9207 14.0024 24.9931 13.69 25 13.3726C25.0103 13.0255 24.9495 12.68 24.8213 12.3572C24.6932 12.0344 24.5005 11.7412 24.255 11.4956C24.0094 11.25 23.7163 11.0572 23.3936 10.9289C23.0708 10.8007 22.7253 10.7398 22.3781 10.75C22.0607 10.7568 21.7481 10.8291 21.4598 10.9623C21.1716 11.0956 20.914 11.2868 20.7031 11.5242C20.4113 11.8624 20.1741 12.2441 20 12.6555C19.8259 12.2441 19.5887 11.8624 19.2969 11.5242C19.086 11.2868 18.8284 11.0956 18.5402 10.9623C18.2519 10.8291 17.9393 10.7568 17.6219 10.75C17.2747 10.7398 16.9292 10.8007 16.6064 10.9289C16.2837 11.0572 15.9906 11.25 15.745 11.4956C15.4995 11.7412 15.3068 12.0344 15.1787 12.3572C15.0505 12.68 14.9897 13.0255 15 13.3726C15.0069 13.69 15.0793 14.0024 15.2125 14.2905C15.3457 14.5786 15.5369 14.8361 15.7742 15.0469C15.8039 15.0726 15.8352 15.0976 15.8656 15.125H13.125C12.7935 15.125 12.4755 15.2567 12.2411 15.4911C12.0067 15.7255 11.875 16.0435 11.875 16.375V18.875C11.875 19.2065 12.0067 19.5245 12.2411 19.7589C12.4755 19.9933 12.7935 20.125 13.125 20.125V25.125C13.125 25.4565 13.2567 25.7745 13.4911 26.0089C13.7255 26.2433 14.0435 26.375 14.375 26.375H19.0625C19.1454 26.375 19.2249 26.3421 19.2835 26.2835C19.3421 26.2249 19.375 26.1454 19.375 26.0625V18.875H13.125V16.375H19.375V18.875H20.625V16.375H26.875V18.875H20.625V26.0625C20.625 26.1454 20.6579 26.2249 20.7165 26.2835C20.7751 26.3421 20.8546 26.375 20.9375 26.375H25.625C25.9565 26.375 26.2745 26.2433 26.5089 26.0089C26.7433 25.7745 26.875 25.4565 26.875 25.125V20.125C27.2065 20.125 27.5245 19.9933 27.7589 19.7589C27.9933 19.5245 28.125 19.2065 28.125 18.875V16.375C28.125 16.0435 27.9933 15.7255 27.7589 15.4911C27.5245 15.2567 27.2065 15.125 26.875 15.125ZM16.6023 14.1094C16.4931 14.0104 16.4054 13.8899 16.3449 13.7555C16.2844 13.621 16.2524 13.4755 16.2508 13.3281C16.2468 13.1554 16.2774 12.9836 16.3407 12.8228C16.404 12.6621 16.4987 12.5155 16.6193 12.3918C16.74 12.2682 16.8841 12.1698 17.0432 12.1025C17.2024 12.0352 17.3733 12.0004 17.5461 12H17.5844C17.7318 12.0016 17.8773 12.0336 18.0117 12.0941C18.1462 12.1546 18.2667 12.2423 18.3656 12.3516C19.0211 13.0922 19.2523 14.3203 19.3336 15.0797C18.5711 14.9992 17.3438 14.768 16.6023 14.1094ZM23.3992 14.1094C22.6578 14.7656 21.4273 14.9969 20.6648 15.0781C20.7578 14.257 21.0156 13.0547 21.6406 12.3523C21.7396 12.2431 21.8601 12.1554 21.9945 12.0949C22.129 12.0344 22.2745 12.0024 22.4219 12.0008H22.4602C22.6329 12.0019 22.8038 12.0374 22.9626 12.1054C23.1215 12.1733 23.2652 12.2723 23.3854 12.3965C23.5055 12.5207 23.5996 12.6676 23.6622 12.8287C23.7248 12.9897 23.7547 13.1616 23.75 13.3344C23.7475 13.4808 23.7149 13.6251 23.6543 13.7584C23.5937 13.8917 23.5063 14.0112 23.3977 14.1094H23.3992Z" fill="white"/>
</svg>
