<svg width="30" height="30" viewBox="0 0 30 30" fill="none" xmlns="http://www.w3.org/2000/svg">
<circle cx="15" cy="15" r="15" fill="#276CEC"/>
<path d="M11.4868 12.7304H9V20.8125H11.4868V12.7304Z" fill="#00FFD1"/>
<path d="M12.1085 10.243C12.0906 9.5374 11.5085 9 10.5632 9C9.61797 9 9 9.5374 9 10.243C9 10.9339 9.5997 11.4868 10.5273 11.4868H10.545C11.5085 11.4868 12.1085 10.9339 12.1085 10.243Z" fill="#00FFD1"/>
<path d="M21.4336 16.2847C21.4336 13.8593 20.1276 12.7304 18.3855 12.7304C16.9799 12.7304 16.3506 13.4969 15.9993 14.0345V12.9161H13.3516C13.3865 13.657 13.3516 20.8125 13.3516 20.8125H15.9993V16.4025C15.9993 16.1665 16.0164 15.9311 16.0864 15.7621C16.2778 15.2906 16.7134 14.8025 17.4448 14.8025C18.4032 14.8025 18.7863 15.5266 18.7863 16.5877V20.8123H21.4335L21.4336 16.2847Z" fill="#00FFD1"/>
</svg>
