<svg width="1440" height="1024" viewBox="0 0 1440 1024" fill="none" xmlns="http://www.w3.org/2000/svg">
<g clip-path="url(#clip0_208_119)">
<rect width="1440" height="1024" fill="white"/>
<rect width="1512" height="982" fill="#F9F9F9"/>
<rect x="1447" y="1045" width="1454" height="1045" transform="rotate(180 1447 1045)" fill="url(#paint0_linear_208_119)"/>
<g filter="url(#filter0_f_208_119)">
<ellipse cx="852.654" cy="-116.777" rx="361.721" ry="208.58" transform="rotate(-20.07 852.654 -116.777)" fill="#01FFD2"/>
</g>
<path fill-rule="evenodd" clip-rule="evenodd" d="M-119.211 -45.7007V-2.22565H-170V-1.8541H-119.211V43.6646H-170V44.0362H-119.211V90.6696H-170V91.0412H-119.211V134.516H-170V134.888H-119.211V180.407H-170V180.778H-119.211V227.412H-170V227.783H-119.211V271.816H-118.775V227.783H-64.0633V271.816H-63.6273V227.783H-10.223V271.816H-9.78706V227.783H42.5274V271.816H42.9633V227.783H97.6755V271.816H98.1115V227.783H151.516V271.816H151.952V227.783H204.266V271.816H204.702V227.783H259.414V271.816H259.85V227.783H313.255V271.816H313.691V227.783H366.005V271.816H366.441V227.783H421.153V271.816H421.589V227.783H474.993V271.816H475.429V227.783H527.744V271.816H528.18V227.783H582.892V271.816H583.328V227.783H636.732V271.816H637.168V227.783H688.393V227.412H637.168V180.778H688.393V180.407H637.168V134.888H688.393V134.516H637.168V91.0412H688.393V90.6696H637.168V44.0362H688.393V43.6646H637.168V-1.8541H688.393V-2.22565H637.168V-45.7007H688.393V-46.0723H637.168V-92.7057H688.393V-93.0773H637.168V-138.596H688.393V-138.968H637.168V-183H636.732V-138.968H583.328V-183H582.892V-138.968H528.18V-183H527.744V-138.968H475.429V-183H474.993V-138.968H421.589V-183H421.153V-138.968H366.441V-183H366.005V-138.968H313.691V-183H313.255V-138.968H259.85V-183H259.414V-138.968H204.702V-183H204.266V-138.968H151.952V-183H151.516V-138.968H98.1115V-183H97.6755V-138.968H42.9633V-183H42.5274V-138.968H-9.78706V-183H-10.223V-138.968H-63.6273V-183H-64.0633V-138.968H-118.775V-183H-119.211V-138.968H-170V-138.596H-119.211V-93.0773H-170V-92.7057H-119.211V-46.0723H-170V-45.7007H-119.211ZM636.732 134.516V91.0412H583.328V134.516H636.732ZM582.892 134.516V91.0412H528.18V134.516H582.892ZM527.744 134.516V91.0412H475.429V134.516H527.744ZM474.993 134.516V91.0412H421.589V134.516H474.993ZM421.153 134.516V91.0412H366.441V134.516H421.153ZM366.005 134.516V91.0412H313.691V134.516H366.005ZM313.691 134.888V180.407H366.005V134.888H313.691ZM366.441 134.888V180.407H421.153V134.888H366.441ZM421.589 134.888V180.407H474.993V134.888H421.589ZM475.429 134.888V180.407H527.744V134.888H475.429ZM528.18 134.888V180.407H582.892V134.888H528.18ZM583.328 180.407V134.888H636.732V180.407H583.328ZM582.892 180.778H528.18V227.412H582.892V180.778ZM583.328 227.412V180.778H636.732V227.412H583.328ZM527.744 227.412V180.778H475.429V227.412H527.744ZM474.993 227.412V180.778H421.589V227.412H474.993ZM421.153 227.412V180.778H366.441V227.412H421.153ZM366.005 227.412V180.778H313.691V227.412H366.005ZM366.005 90.6696H313.691V44.0362H366.005V90.6696ZM366.005 43.6646H313.691V-1.8541H366.005V43.6646ZM366.005 -2.22565H313.691V-45.7007H366.005V-2.22565ZM421.153 -2.22565H366.441V-45.7007H421.153V-2.22565ZM421.589 -2.22565V-45.7007H474.993V-2.22565H421.589ZM527.744 -2.22565H475.429V-45.7007H527.744V-2.22565ZM528.18 -2.22565V-45.7007H582.892V-2.22565H528.18ZM582.892 -1.8541V43.6646H528.18V-1.8541H582.892ZM583.328 -1.8541V43.6646H636.732V-1.8541H583.328ZM582.892 44.0362V90.6696H528.18V44.0362H582.892ZM583.328 44.0362V90.6696H636.732V44.0362H583.328ZM527.744 44.0362V90.6696H475.429V44.0362H527.744ZM474.993 44.0362V90.6696H421.589V44.0362H474.993ZM421.153 44.0362V90.6696H366.441V44.0362H421.153ZM583.328 -2.22565H636.732V-45.7007H583.328V-2.22565ZM527.744 -1.8541V43.6646H475.429V-1.8541H527.744ZM474.993 -1.8541V43.6646H421.589V-1.8541H474.993ZM421.153 -1.8541V43.6646H366.441V-1.8541H421.153ZM313.691 -138.596V-93.0773H366.005V-138.596H313.691ZM366.441 -138.596V-93.0773H421.153V-138.596H366.441ZM421.589 -138.596V-93.0773H474.993V-138.596H421.589ZM475.429 -138.596V-93.0773H527.744V-138.596H475.429ZM528.18 -138.596V-93.0773H582.892V-138.596H528.18ZM583.328 -138.596V-93.0773H636.732V-138.596H583.328ZM636.732 -92.7057H583.328V-46.0723H636.732V-92.7057ZM582.892 -46.0723V-92.7057H528.18V-46.0723H582.892ZM527.744 -46.0723V-92.7057H475.429V-46.0723H527.744ZM474.993 -46.0723V-92.7057H421.589V-46.0723H474.993ZM421.153 -46.0723V-92.7057H366.441V-46.0723H421.153ZM366.005 -46.0723V-92.7057H313.691V-46.0723H366.005ZM313.255 134.516V91.0412H259.85V134.516H313.255ZM259.414 134.516V91.0412H204.702V134.516H259.414ZM204.702 134.888V180.407H259.414V134.888H204.702ZM259.85 134.888V180.407H313.255V134.888H259.85ZM313.255 227.412V180.778H259.85V227.412H313.255ZM259.414 227.412V180.778H204.702V227.412H259.414ZM259.414 90.6696H204.702V44.0362H259.414V90.6696ZM259.414 43.6646H204.702V-1.8541H259.414V43.6646ZM259.414 -2.22565H204.702V-45.7007H259.414V-2.22565ZM259.85 -2.22565V-45.7007H313.255V-2.22565H259.85ZM313.255 44.0362V90.6696H259.85V44.0362H313.255ZM313.255 -1.8541V43.6646H259.85V-1.8541H313.255ZM204.702 -138.596V-93.0773H259.414V-138.596H204.702ZM259.85 -138.596V-93.0773H313.255V-138.596H259.85ZM313.255 -46.0723V-92.7057H259.85V-46.0723H313.255ZM259.414 -46.0723V-92.7057H204.702V-46.0723H259.414ZM204.266 134.516V91.0412H151.952V134.516H204.266ZM151.516 134.516V91.0412H98.1115V134.516H151.516ZM97.6755 134.516V91.0412H42.9633V134.516H97.6755ZM42.9633 134.888V180.407H97.6755V134.888H42.9633ZM98.1115 134.888V180.407H151.516V134.888H98.1115ZM151.952 134.888V180.407H204.266V134.888H151.952ZM204.266 227.412V180.778H151.952V227.412H204.266ZM151.516 227.412V180.778H98.1115V227.412H151.516ZM97.6755 227.412V180.778H42.9633V227.412H97.6755ZM97.6755 90.6696H42.9633V44.0362H97.6755V90.6696ZM97.6755 43.6646H42.9633V-1.8541H97.6755V43.6646ZM97.6755 -2.22565H42.9633V-45.7007H97.6755V-2.22565ZM151.516 -2.22565H98.1115V-45.7007H151.516V-2.22565ZM151.952 -2.22565V-45.7007H204.266V-2.22565H151.952ZM204.266 44.0362V90.6696H151.952V44.0362H204.266ZM151.516 44.0362V90.6696H98.1115V44.0362H151.516ZM204.266 -1.8541V43.6646H151.952V-1.8541H204.266ZM151.516 -1.8541V43.6646H98.1115V-1.8541H151.516ZM42.9633 -138.596V-93.0773H97.6755V-138.596H42.9633ZM98.1115 -138.596V-93.0773H151.516V-138.596H98.1115ZM151.952 -138.596V-93.0773H204.266V-138.596H151.952ZM204.266 -46.0723V-92.7057H151.952V-46.0723H204.266ZM151.516 -46.0723V-92.7057H98.1115V-46.0723H151.516ZM97.6755 -46.0723V-92.7057H42.9633V-46.0723H97.6755ZM42.5274 134.516V91.0412H-9.78706V134.516H42.5274ZM-10.223 134.516V91.0412H-63.6273V134.516H-10.223ZM-63.6273 134.888V180.407H-10.223V134.888H-63.6273ZM-9.78706 134.888V180.407H42.5274V134.888H-9.78706ZM-63.6273 180.778V227.412H-10.223V180.778H-63.6273ZM-9.78706 180.778V227.412H42.5274V180.778H-9.78706ZM-10.223 90.6696H-63.6273V44.0362H-10.223V90.6696ZM-10.223 43.6646H-63.6273V-1.8541H-10.223V43.6646ZM-10.223 -2.22565H-63.6273V-45.7007H-10.223V-2.22565ZM42.5274 -2.22565H-9.78706V-45.7007H42.5274V-2.22565ZM-9.78706 43.6646V-1.8541H42.5274V43.6646H-9.78706ZM-9.78706 90.6696V44.0362H42.5274V90.6696H-9.78706ZM-63.6273 -138.596V-93.0773H-10.223V-138.596H-63.6273ZM-9.78706 -138.596V-93.0773H42.5274V-138.596H-9.78706ZM-63.6273 -92.7057V-46.0723H-10.223V-92.7057H-63.6273ZM-9.78706 -92.7057V-46.0723H42.5274V-92.7057H-9.78706ZM-64.0633 134.516V91.0412H-118.775V134.516H-64.0633ZM-118.775 134.888H-64.0633V180.407H-118.775V134.888ZM-118.775 180.778V227.412H-64.0633V180.778H-118.775ZM-118.775 43.6646V-1.8541H-64.0633V43.6646H-118.775ZM-118.775 -2.22565H-64.0633V-45.7007H-118.775V-2.22565ZM-64.0633 44.0362V90.6696H-118.775V44.0362H-64.0633ZM-118.775 -46.0723H-64.0633V-92.7057H-118.775V-46.0723ZM-118.775 -93.0773H-64.0633V-138.596H-118.775V-93.0773Z" fill="white" fill-opacity="0.9"/>
<path fill-rule="evenodd" clip-rule="evenodd" d="M-119.211 374.746V418.221H-170V418.593H-119.211V464.111H-170V464.483H-119.211V511.116H-170V511.488H-119.211V554.963H-170V555.334H-119.211V600.853H-170V601.225H-119.211V647.858H-170V648.23H-119.211V692.262H-118.775V648.23H-64.0633V692.262H-63.6273V648.23H-10.223V692.262H-9.78706V648.23H42.5274V692.262H42.9633V648.23H97.6755V692.262H98.1115V648.23H151.516V692.262H151.952V648.23H204.266V692.262H204.702V648.23H259.414V692.262H259.85V648.23H313.255V692.262H313.691V648.23H366.005V692.262H366.441V648.23H421.153V692.262H421.589V648.23H474.993V692.262H475.429V648.23H527.744V692.262H528.18V648.23H582.892V692.262H583.328V648.23H636.732V692.262H637.168V648.23H688.393V647.858H637.168V601.225H688.393V600.853H637.168V555.334H688.393V554.963H637.168V511.488H688.393V511.116H637.168V464.483H688.393V464.111H637.168V418.593H688.393V418.221H637.168V374.746H688.393V374.374H637.168V327.741H688.393V327.369H637.168V281.851H688.393V281.479H637.168V237.447H636.732V281.479H583.328V237.447H582.892V281.479H528.18V237.447H527.744V281.479H475.429V237.447H474.993V281.479H421.589V237.447H421.153V281.479H366.441V237.447H366.005V281.479H313.691V237.447H313.255V281.479H259.85V237.447H259.414V281.479H204.702V237.447H204.266V281.479H151.952V237.447H151.516V281.479H98.1115V237.447H97.6755V281.479H42.9633V237.447H42.5274V281.479H-9.78706V237.447H-10.223V281.479H-63.6273V237.447H-64.0633V281.479H-118.775V237.447H-119.211V281.479H-170V281.851H-119.211V327.369H-170V327.741H-119.211V374.374H-170V374.746H-119.211ZM636.732 554.963V511.488H583.328V554.963H636.732ZM582.892 554.963V511.488H528.18V554.963H582.892ZM527.744 554.963V511.488H475.429V554.963H527.744ZM474.993 554.963V511.488H421.589V554.963H474.993ZM421.153 554.963V511.488H366.441V554.963H421.153ZM366.005 554.963V511.488H313.691V554.963H366.005ZM313.691 555.334V600.853H366.005V555.334H313.691ZM366.441 555.334V600.853H421.153V555.334H366.441ZM421.589 555.334V600.853H474.993V555.334H421.589ZM475.429 555.334V600.853H527.744V555.334H475.429ZM528.18 555.334V600.853H582.892V555.334H528.18ZM583.328 600.853V555.334H636.732V600.853H583.328ZM582.892 601.225H528.18V647.858H582.892V601.225ZM583.328 647.858V601.225H636.732V647.858H583.328ZM527.744 647.858V601.225H475.429V647.858H527.744ZM474.993 647.858V601.225H421.589V647.858H474.993ZM421.153 647.858V601.225H366.441V647.858H421.153ZM366.005 647.858V601.225H313.691V647.858H366.005ZM366.005 511.116H313.691V464.483H366.005V511.116ZM366.005 464.111H313.691V418.593H366.005V464.111ZM366.005 418.221H313.691V374.746H366.005V418.221ZM421.153 418.221H366.441V374.746H421.153V418.221ZM421.589 418.221V374.746H474.993V418.221H421.589ZM527.744 418.221H475.429V374.746H527.744V418.221ZM528.18 418.221V374.746H582.892V418.221H528.18ZM582.892 418.593V464.111H528.18V418.593H582.892ZM583.328 418.593V464.111H636.732V418.593H583.328ZM582.892 464.483V511.116H528.18V464.483H582.892ZM583.328 464.483V511.116H636.732V464.483H583.328ZM527.744 464.483V511.116H475.429V464.483H527.744ZM474.993 464.483V511.116H421.589V464.483H474.993ZM421.153 464.483V511.116H366.441V464.483H421.153ZM583.328 418.221H636.732V374.746H583.328V418.221ZM527.744 418.593V464.111H475.429V418.593H527.744ZM474.993 418.593V464.111H421.589V418.593H474.993ZM421.153 418.593V464.111H366.441V418.593H421.153ZM313.691 281.851V327.369H366.005V281.851H313.691ZM366.441 281.851V327.369H421.153V281.851H366.441ZM421.589 281.851V327.369H474.993V281.851H421.589ZM475.429 281.851V327.369H527.744V281.851H475.429ZM528.18 281.851V327.369H582.892V281.851H528.18ZM583.328 281.851V327.369H636.732V281.851H583.328ZM636.732 327.741H583.328V374.374H636.732V327.741ZM582.892 374.374V327.741H528.18V374.374H582.892ZM527.744 374.374V327.741H475.429V374.374H527.744ZM474.993 374.374V327.741H421.589V374.374H474.993ZM421.153 374.374V327.741H366.441V374.374H421.153ZM366.005 374.374V327.741H313.691V374.374H366.005ZM313.255 554.963V511.488H259.85V554.963H313.255ZM259.414 554.963V511.488H204.702V554.963H259.414ZM204.702 555.334V600.853H259.414V555.334H204.702ZM259.85 555.334V600.853H313.255V555.334H259.85ZM313.255 647.858V601.225H259.85V647.858H313.255ZM259.414 647.858V601.225H204.702V647.858H259.414ZM259.414 511.116H204.702V464.483H259.414V511.116ZM259.414 464.111H204.702V418.593H259.414V464.111ZM259.414 418.221H204.702V374.746H259.414V418.221ZM259.85 418.221V374.746H313.255V418.221H259.85ZM313.255 464.483V511.116H259.85V464.483H313.255ZM313.255 418.593V464.111H259.85V418.593H313.255ZM204.702 281.851V327.369H259.414V281.851H204.702ZM259.85 281.851V327.369H313.255V281.851H259.85ZM313.255 374.374V327.741H259.85V374.374H313.255ZM259.414 374.374V327.741H204.702V374.374H259.414ZM204.266 554.963V511.488H151.952V554.963H204.266ZM151.516 554.963V511.488H98.1115V554.963H151.516ZM97.6755 554.963V511.488H42.9633V554.963H97.6755ZM42.9633 555.334V600.853H97.6755V555.334H42.9633ZM98.1115 555.334V600.853H151.516V555.334H98.1115ZM151.952 555.334V600.853H204.266V555.334H151.952ZM204.266 647.858V601.225H151.952V647.858H204.266ZM151.516 647.858V601.225H98.1115V647.858H151.516ZM97.6755 647.858V601.225H42.9633V647.858H97.6755ZM97.6755 511.116H42.9633V464.483H97.6755V511.116ZM97.6755 464.111H42.9633V418.593H97.6755V464.111ZM97.6755 418.221H42.9633V374.746H97.6755V418.221ZM151.516 418.221H98.1115V374.746H151.516V418.221ZM151.952 418.221V374.746H204.266V418.221H151.952ZM204.266 464.483V511.116H151.952V464.483H204.266ZM151.516 464.483V511.116H98.1115V464.483H151.516ZM204.266 418.593V464.111H151.952V418.593H204.266ZM151.516 418.593V464.111H98.1115V418.593H151.516ZM42.9633 281.851V327.369H97.6755V281.851H42.9633ZM98.1115 281.851V327.369H151.516V281.851H98.1115ZM151.952 281.851V327.369H204.266V281.851H151.952ZM204.266 374.374V327.741H151.952V374.374H204.266ZM151.516 374.374V327.741H98.1115V374.374H151.516ZM97.6755 374.374V327.741H42.9633V374.374H97.6755ZM42.5274 554.963V511.488H-9.78706V554.963H42.5274ZM-10.223 554.963V511.488H-63.6273V554.963H-10.223ZM-63.6273 555.334V600.853H-10.223V555.334H-63.6273ZM-9.78706 555.334V600.853H42.5274V555.334H-9.78706ZM-63.6273 601.225V647.858H-10.223V601.225H-63.6273ZM-9.78706 601.225V647.858H42.5274V601.225H-9.78706ZM-10.223 511.116H-63.6273V464.483H-10.223V511.116ZM-10.223 464.111H-63.6273V418.593H-10.223V464.111ZM-10.223 418.221H-63.6273V374.746H-10.223V418.221ZM42.5274 418.221H-9.78706V374.746H42.5274V418.221ZM-9.78706 464.111V418.593H42.5274V464.111H-9.78706ZM-9.78706 511.116V464.483H42.5274V511.116H-9.78706ZM-63.6273 281.851V327.369H-10.223V281.851H-63.6273ZM-9.78706 281.851V327.369H42.5274V281.851H-9.78706ZM-63.6273 327.741V374.374H-10.223V327.741H-63.6273ZM-9.78706 327.741V374.374H42.5274V327.741H-9.78706ZM-64.0633 554.963V511.488H-118.775V554.963H-64.0633ZM-118.775 555.334H-64.0633V600.853H-118.775V555.334ZM-118.775 601.225V647.858H-64.0633V601.225H-118.775ZM-118.775 464.111V418.593H-64.0633V464.111H-118.775ZM-118.775 418.221H-64.0633V374.746H-118.775V418.221ZM-64.0633 464.483V511.116H-118.775V464.483H-64.0633ZM-118.775 374.374H-64.0633V327.741H-118.775V374.374ZM-118.775 327.369H-64.0633V281.851H-118.775V327.369Z" fill="white" fill-opacity="0.9"/>
<path fill-rule="evenodd" clip-rule="evenodd" d="M-119.211 797.484V840.959H-170V841.33H-119.211V886.849H-170V887.221H-119.211V933.854H-170V934.226H-119.211V977.701H-170V978.072H-119.211V1023.59H-170V1023.96H-119.211V1070.6H-170V1070.97H-119.211V1115H-118.775V1070.97H-64.0633V1115H-63.6273V1070.97H-10.223V1115H-9.78706V1070.97H42.5274V1115H42.9633V1070.97H97.6755V1115H98.1115V1070.97H151.516V1115H151.952V1070.97H204.266V1115H204.702V1070.97H259.414V1115H259.85V1070.97H313.255V1115H313.691V1070.97H366.005V1115H366.441V1070.97H421.153V1115H421.589V1070.97H474.993V1115H475.429V1070.97H527.744V1115H528.18V1070.97H582.892V1115H583.328V1070.97H636.732V1115H637.168V1070.97H688.393V1070.6H637.168V1023.96H688.393V1023.59H637.168V978.072H688.393V977.701H637.168V934.226H688.393V933.854H637.168V887.221H688.393V886.849H637.168V841.33H688.393V840.959H637.168V797.484H688.393V797.112H637.168V750.479H688.393V750.107H637.168V704.588H688.393V704.217H637.168V660.184H636.732V704.217H583.328V660.184H582.892V704.217H528.18V660.184H527.744V704.217H475.429V660.184H474.993V704.217H421.589V660.184H421.153V704.217H366.441V660.184H366.005V704.217H313.691V660.184H313.255V704.217H259.85V660.184H259.414V704.217H204.702V660.184H204.266V704.217H151.952V660.184H151.516V704.217H98.1115V660.184H97.6755V704.217H42.9633V660.184H42.5274V704.217H-9.78706V660.184H-10.223V704.217H-63.6273V660.184H-64.0633V704.217H-118.775V660.184H-119.211V704.217H-170V704.588H-119.211V750.107H-170V750.479H-119.211V797.112H-170V797.484H-119.211ZM636.732 977.701V934.226H583.328V977.701H636.732ZM582.892 977.701V934.226H528.18V977.701H582.892ZM527.744 977.701V934.226H475.429V977.701H527.744ZM474.993 977.701V934.226H421.589V977.701H474.993ZM421.153 977.701V934.226H366.441V977.701H421.153ZM366.005 977.701V934.226H313.691V977.701H366.005ZM313.691 978.072V1023.59H366.005V978.072H313.691ZM366.441 978.072V1023.59H421.153V978.072H366.441ZM421.589 978.072V1023.59H474.993V978.072H421.589ZM475.429 978.072V1023.59H527.744V978.072H475.429ZM528.18 978.072V1023.59H582.892V978.072H528.18ZM583.328 1023.59V978.072H636.732V1023.59H583.328ZM582.892 1023.96H528.18V1070.6H582.892V1023.96ZM583.328 1070.6V1023.96H636.732V1070.6H583.328ZM527.744 1070.6V1023.96H475.429V1070.6H527.744ZM474.993 1070.6V1023.96H421.589V1070.6H474.993ZM421.153 1070.6V1023.96H366.441V1070.6H421.153ZM366.005 1070.6V1023.96H313.691V1070.6H366.005ZM366.005 933.854H313.691V887.221H366.005V933.854ZM366.005 886.849H313.691V841.33H366.005V886.849ZM366.005 840.959H313.691V797.484H366.005V840.959ZM421.153 840.959H366.441V797.484H421.153V840.959ZM421.589 840.959V797.484H474.993V840.959H421.589ZM527.744 840.959H475.429V797.484H527.744V840.959ZM528.18 840.959V797.484H582.892V840.959H528.18ZM582.892 841.33V886.849H528.18V841.33H582.892ZM583.328 841.33V886.849H636.732V841.33H583.328ZM582.892 887.221V933.854H528.18V887.221H582.892ZM583.328 887.221V933.854H636.732V887.221H583.328ZM527.744 887.221V933.854H475.429V887.221H527.744ZM474.993 887.221V933.854H421.589V887.221H474.993ZM421.153 887.221V933.854H366.441V887.221H421.153ZM583.328 840.959H636.732V797.484H583.328V840.959ZM527.744 841.33V886.849H475.429V841.33H527.744ZM474.993 841.33V886.849H421.589V841.33H474.993ZM421.153 841.33V886.849H366.441V841.33H421.153ZM313.691 704.588V750.107H366.005V704.588H313.691ZM366.441 704.588V750.107H421.153V704.588H366.441ZM421.589 704.588V750.107H474.993V704.588H421.589ZM475.429 704.588V750.107H527.744V704.588H475.429ZM528.18 704.588V750.107H582.892V704.588H528.18ZM583.328 704.588V750.107H636.732V704.588H583.328ZM636.732 750.479H583.328V797.112H636.732V750.479ZM582.892 797.112V750.479H528.18V797.112H582.892ZM527.744 797.112V750.479H475.429V797.112H527.744ZM474.993 797.112V750.479H421.589V797.112H474.993ZM421.153 797.112V750.479H366.441V797.112H421.153ZM366.005 797.112V750.479H313.691V797.112H366.005ZM313.255 977.701V934.226H259.85V977.701H313.255ZM259.414 977.701V934.226H204.702V977.701H259.414ZM204.702 978.072V1023.59H259.414V978.072H204.702ZM259.85 978.072V1023.59H313.255V978.072H259.85ZM313.255 1070.6V1023.96H259.85V1070.6H313.255ZM259.414 1070.6V1023.96H204.702V1070.6H259.414ZM259.414 933.854H204.702V887.221H259.414V933.854ZM259.414 886.849H204.702V841.33H259.414V886.849ZM259.414 840.959H204.702V797.484H259.414V840.959ZM259.85 840.959V797.484H313.255V840.959H259.85ZM313.255 887.221V933.854H259.85V887.221H313.255ZM313.255 841.33V886.849H259.85V841.33H313.255ZM204.702 704.588V750.107H259.414V704.588H204.702ZM259.85 704.588V750.107H313.255V704.588H259.85ZM313.255 797.112V750.479H259.85V797.112H313.255ZM259.414 797.112V750.479H204.702V797.112H259.414ZM204.266 977.701V934.226H151.952V977.701H204.266ZM151.516 977.701V934.226H98.1115V977.701H151.516ZM97.6755 977.701V934.226H42.9633V977.701H97.6755ZM42.9633 978.072V1023.59H97.6755V978.072H42.9633ZM98.1115 978.072V1023.59H151.516V978.072H98.1115ZM151.952 978.072V1023.59H204.266V978.072H151.952ZM204.266 1070.6V1023.96H151.952V1070.6H204.266ZM151.516 1070.6V1023.96H98.1115V1070.6H151.516ZM97.6755 1070.6V1023.96H42.9633V1070.6H97.6755ZM97.6755 933.854H42.9633V887.221H97.6755V933.854ZM97.6755 886.849H42.9633V841.33H97.6755V886.849ZM97.6755 840.959H42.9633V797.484H97.6755V840.959ZM151.516 840.959H98.1115V797.484H151.516V840.959ZM151.952 840.959V797.484H204.266V840.959H151.952ZM204.266 887.221V933.854H151.952V887.221H204.266ZM151.516 887.221V933.854H98.1115V887.221H151.516ZM204.266 841.33V886.849H151.952V841.33H204.266ZM151.516 841.33V886.849H98.1115V841.33H151.516ZM42.9633 704.588V750.107H97.6755V704.588H42.9633ZM98.1115 704.588V750.107H151.516V704.588H98.1115ZM151.952 704.588V750.107H204.266V704.588H151.952ZM204.266 797.112V750.479H151.952V797.112H204.266ZM151.516 797.112V750.479H98.1115V797.112H151.516ZM97.6755 797.112V750.479H42.9633V797.112H97.6755ZM42.5274 977.701V934.226H-9.78706V977.701H42.5274ZM-10.223 977.701V934.226H-63.6273V977.701H-10.223ZM-63.6273 978.072V1023.59H-10.223V978.072H-63.6273ZM-9.78706 978.072V1023.59H42.5274V978.072H-9.78706ZM-63.6273 1023.96V1070.6H-10.223V1023.96H-63.6273ZM-9.78706 1023.96V1070.6H42.5274V1023.96H-9.78706ZM-10.223 933.854H-63.6273V887.221H-10.223V933.854ZM-10.223 886.849H-63.6273V841.33H-10.223V886.849ZM-10.223 840.959H-63.6273V797.484H-10.223V840.959ZM42.5274 840.959H-9.78706V797.484H42.5274V840.959ZM-9.78706 886.849V841.33H42.5274V886.849H-9.78706ZM-9.78706 933.854V887.221H42.5274V933.854H-9.78706ZM-63.6273 704.588V750.107H-10.223V704.588H-63.6273ZM-9.78706 704.588V750.107H42.5274V704.588H-9.78706ZM-63.6273 750.479V797.112H-10.223V750.479H-63.6273ZM-9.78706 750.479V797.112H42.5274V750.479H-9.78706ZM-64.0633 977.701V934.226H-118.775V977.701H-64.0633ZM-118.775 978.072H-64.0633V1023.59H-118.775V978.072ZM-118.775 1023.96V1070.6H-64.0633V1023.96H-118.775ZM-118.775 886.849V841.33H-64.0633V886.849H-118.775ZM-118.775 840.959H-64.0633V797.484H-118.775V840.959ZM-64.0633 887.221V933.854H-118.775V887.221H-64.0633ZM-118.775 797.112H-64.0633V750.479H-118.775V797.112ZM-118.775 750.107H-64.0633V704.588H-118.775V750.107Z" fill="white" fill-opacity="0.9"/>
<path fill-rule="evenodd" clip-rule="evenodd" d="M694.378 -44.5551V-1.08002H643.589V-0.708466H694.378V44.8103H643.589V45.1818H694.378V91.8153H643.589V92.1869H694.378V135.662H643.589V136.033H694.378V181.552H643.589V181.924H694.378V228.557H643.589V228.929H694.378V272.961H694.814V228.929H749.526V272.961H749.962V228.929H803.366V272.961H803.802V228.929H856.117V272.961H856.552V228.929H911.265V272.961H911.701V228.929H965.105V272.961H965.541V228.929H1017.86V272.961H1018.29V228.929H1073V272.961H1073.44V228.929H1126.84V272.961H1127.28V228.929H1179.59V272.961H1180.03V228.929H1234.74V272.961H1235.18V228.929H1288.58V272.961H1289.02V228.929H1341.33V272.961H1341.77V228.929H1396.48V272.961H1396.92V228.929H1450.32V272.961H1450.76V228.929H1501.98V228.557H1450.76V181.924H1501.98V181.552H1450.76V136.033H1501.98V135.662H1450.76V92.1869H1501.98V91.8153H1450.76V45.1818H1501.98V44.8103H1450.76V-0.708466H1501.98V-1.08002H1450.76V-44.5551H1501.98V-44.9266H1450.76V-91.5601H1501.98V-91.9317H1450.76V-137.45H1501.98V-137.822H1450.76V-181.854H1450.32V-137.822H1396.92V-181.854H1396.48V-137.822H1341.77V-181.854H1341.33V-137.822H1289.02V-181.854H1288.58V-137.822H1235.18V-181.854H1234.74V-137.822H1180.03V-181.854H1179.59V-137.822H1127.28V-181.854H1126.84V-137.822H1073.44V-181.854H1073V-137.822H1018.29V-181.854H1017.86V-137.822H965.541V-181.854H965.105V-137.822H911.701V-181.854H911.265V-137.822H856.552V-181.854H856.117V-137.822H803.802V-181.854H803.366V-137.822H749.962V-181.854H749.526V-137.822H694.814V-181.854H694.378V-137.822H643.589V-137.45H694.378V-91.9317H643.589V-91.5601H694.378V-44.9266H643.589V-44.5551H694.378ZM1450.32 135.662V92.1869H1396.92V135.662H1450.32ZM1396.48 135.662V92.1869H1341.77V135.662H1396.48ZM1341.33 135.662V92.1869H1289.02V135.662H1341.33ZM1288.58 135.662V92.1869H1235.18V135.662H1288.58ZM1234.74 135.662V92.1869H1180.03V135.662H1234.74ZM1179.59 135.662V92.1869H1127.28V135.662H1179.59ZM1127.28 136.033V181.552H1179.59V136.033H1127.28ZM1180.03 136.033V181.552H1234.74V136.033H1180.03ZM1235.18 136.033V181.552H1288.58V136.033H1235.18ZM1289.02 136.033V181.552H1341.33V136.033H1289.02ZM1341.77 136.033V181.552H1396.48V136.033H1341.77ZM1396.92 181.552V136.033H1450.32V181.552H1396.92ZM1396.48 181.924H1341.77V228.557H1396.48V181.924ZM1396.92 228.557V181.924H1450.32V228.557H1396.92ZM1341.33 228.557V181.924H1289.02V228.557H1341.33ZM1288.58 228.557V181.924H1235.18V228.557H1288.58ZM1234.74 228.557V181.924H1180.03V228.557H1234.74ZM1179.59 228.557V181.924H1127.28V228.557H1179.59ZM1179.59 91.8153H1127.28V45.1818H1179.59V91.8153ZM1179.59 44.8103H1127.28V-0.708466H1179.59V44.8103ZM1179.59 -1.08002H1127.28V-44.5551H1179.59V-1.08002ZM1234.74 -1.08002H1180.03V-44.5551H1234.74V-1.08002ZM1235.18 -1.08002V-44.5551H1288.58V-1.08002H1235.18ZM1341.33 -1.08002H1289.02V-44.5551H1341.33V-1.08002ZM1341.77 -1.08002V-44.5551H1396.48V-1.08002H1341.77ZM1396.48 -0.708466V44.8103H1341.77V-0.708466H1396.48ZM1396.92 -0.708466V44.8103H1450.32V-0.708466H1396.92ZM1396.48 45.1818V91.8153H1341.77V45.1818H1396.48ZM1396.92 45.1818V91.8153H1450.32V45.1818H1396.92ZM1341.33 45.1818V91.8153H1289.02V45.1818H1341.33ZM1288.58 45.1818V91.8153H1235.18V45.1818H1288.58ZM1234.74 45.1818V91.8153H1180.03V45.1818H1234.74ZM1396.92 -1.08002H1450.32V-44.5551H1396.92V-1.08002ZM1341.33 -0.708466V44.8103H1289.02V-0.708466H1341.33ZM1288.58 -0.708466V44.8103H1235.18V-0.708466H1288.58ZM1234.74 -0.708466V44.8103H1180.03V-0.708466H1234.74ZM1127.28 -137.45V-91.9317H1179.59V-137.45H1127.28ZM1180.03 -137.45V-91.9317H1234.74V-137.45H1180.03ZM1235.18 -137.45V-91.9317H1288.58V-137.45H1235.18ZM1289.02 -137.45V-91.9317H1341.33V-137.45H1289.02ZM1341.77 -137.45V-91.9317H1396.48V-137.45H1341.77ZM1396.92 -137.45V-91.9317H1450.32V-137.45H1396.92ZM1450.32 -91.5601H1396.92V-44.9266H1450.32V-91.5601ZM1396.48 -44.9266V-91.5601H1341.77V-44.9266H1396.48ZM1341.33 -44.9266V-91.5601H1289.02V-44.9266H1341.33ZM1288.58 -44.9266V-91.5601H1235.18V-44.9266H1288.58ZM1234.74 -44.9266V-91.5601H1180.03V-44.9266H1234.74ZM1179.59 -44.9266V-91.5601H1127.28V-44.9266H1179.59ZM1126.84 135.662V92.1869H1073.44V135.662H1126.84ZM1073 135.662V92.1869H1018.29V135.662H1073ZM1018.29 136.033V181.552H1073V136.033H1018.29ZM1073.44 136.033V181.552H1126.84V136.033H1073.44ZM1126.84 228.557V181.924H1073.44V228.557H1126.84ZM1073 228.557V181.924H1018.29V228.557H1073ZM1073 91.8153H1018.29V45.1818H1073V91.8153ZM1073 44.8103H1018.29V-0.708466H1073V44.8103ZM1073 -1.08002H1018.29V-44.5551H1073V-1.08002ZM1073.44 -1.08002V-44.5551H1126.84V-1.08002H1073.44ZM1126.84 45.1818V91.8153H1073.44V45.1818H1126.84ZM1126.84 -0.708466V44.8103H1073.44V-0.708466H1126.84ZM1018.29 -137.45V-91.9317H1073V-137.45H1018.29ZM1073.44 -137.45V-91.9317H1126.84V-137.45H1073.44ZM1126.84 -44.9266V-91.5601H1073.44V-44.9266H1126.84ZM1073 -44.9266V-91.5601H1018.29V-44.9266H1073ZM1017.86 135.662V92.1869H965.541V135.662H1017.86ZM965.105 135.662V92.1869H911.701V135.662H965.105ZM911.265 135.662V92.1869H856.552V135.662H911.265ZM856.552 136.033V181.552H911.265V136.033H856.552ZM911.701 136.033V181.552H965.105V136.033H911.701ZM965.541 136.033V181.552H1017.86V136.033H965.541ZM1017.86 228.557V181.924H965.541V228.557H1017.86ZM965.105 228.557V181.924H911.701V228.557H965.105ZM911.265 228.557V181.924H856.552V228.557H911.265ZM911.265 91.8153H856.552V45.1818H911.265V91.8153ZM911.265 44.8103H856.552V-0.708466H911.265V44.8103ZM911.265 -1.08002H856.552V-44.5551H911.265V-1.08002ZM965.105 -1.08002H911.701V-44.5551H965.105V-1.08002ZM965.541 -1.08002V-44.5551H1017.86V-1.08002H965.541ZM1017.86 45.1818V91.8153H965.541V45.1818H1017.86ZM965.105 45.1818V91.8153H911.701V45.1818H965.105ZM1017.86 -0.708466V44.8103H965.541V-0.708466H1017.86ZM965.105 -0.708466V44.8103H911.701V-0.708466H965.105ZM856.552 -137.45V-91.9317H911.265V-137.45H856.552ZM911.701 -137.45V-91.9317H965.105V-137.45H911.701ZM965.541 -137.45V-91.9317H1017.86V-137.45H965.541ZM1017.86 -44.9266V-91.5601H965.541V-44.9266H1017.86ZM965.105 -44.9266V-91.5601H911.701V-44.9266H965.105ZM911.265 -44.9266V-91.5601H856.552V-44.9266H911.265ZM856.117 135.662V92.1869H803.802V135.662H856.117ZM803.366 135.662V92.1869H749.962V135.662H803.366ZM749.962 136.033V181.552H803.366V136.033H749.962ZM803.802 136.033V181.552H856.117V136.033H803.802ZM749.962 181.924V228.557H803.366V181.924H749.962ZM803.802 181.924V228.557H856.117V181.924H803.802ZM803.366 91.8153H749.962V45.1818H803.366V91.8153ZM803.366 44.8103H749.962V-0.708466H803.366V44.8103ZM803.366 -1.08002H749.962V-44.5551H803.366V-1.08002ZM856.117 -1.08002H803.802V-44.5551H856.117V-1.08002ZM803.802 44.8103V-0.708466H856.117V44.8103H803.802ZM803.802 91.8153V45.1818H856.117V91.8153H803.802ZM749.962 -137.45V-91.9317H803.366V-137.45H749.962ZM803.802 -137.45V-91.9317H856.117V-137.45H803.802ZM749.962 -91.5601V-44.9266H803.366V-91.5601H749.962ZM803.802 -91.5601V-44.9266H856.117V-91.5601H803.802ZM749.526 135.662V92.1869H694.814V135.662H749.526ZM694.814 136.033H749.526V181.552H694.814V136.033ZM694.814 181.924V228.557H749.526V181.924H694.814ZM694.814 44.8103V-0.708466H749.526V44.8103H694.814ZM694.814 -1.08002H749.526V-44.5551H694.814V-1.08002ZM749.526 45.1818V91.8153H694.814V45.1818H749.526ZM694.814 -44.9266H749.526V-91.5601H694.814V-44.9266ZM694.814 -91.9317H749.526V-137.45H694.814V-91.9317Z" fill="white" fill-opacity="0.9"/>
<path fill-rule="evenodd" clip-rule="evenodd" d="M694.378 375.892V419.367H643.589V419.738H694.378V465.257H643.589V465.628H694.378V512.262H643.589V512.633H694.378V556.108H643.589V556.48H694.378V601.999H643.589V602.37H694.378V649.004H643.589V649.375H694.378V693.408H694.814V649.375H749.526V693.408H749.962V649.375H803.366V693.408H803.802V649.375H856.117V693.408H856.552V649.375H911.265V693.408H911.701V649.375H965.105V693.408H965.541V649.375H1017.86V693.408H1018.29V649.375H1073V693.408H1073.44V649.375H1126.84V693.408H1127.28V649.375H1179.59V693.408H1180.03V649.375H1234.74V693.408H1235.18V649.375H1288.58V693.408H1289.02V649.375H1341.33V693.408H1341.77V649.375H1396.48V693.408H1396.92V649.375H1450.32V693.408H1450.76V649.375H1501.98V649.004H1450.76V602.37H1501.98V601.999H1450.76V556.48H1501.98V556.108H1450.76V512.633H1501.98V512.262H1450.76V465.628H1501.98V465.257H1450.76V419.738H1501.98V419.367H1450.76V375.892H1501.98V375.52H1450.76V328.887H1501.98V328.515H1450.76V282.996H1501.98V282.625H1450.76V238.592H1450.32V282.625H1396.92V238.592H1396.48V282.625H1341.77V238.592H1341.33V282.625H1289.02V238.592H1288.58V282.625H1235.18V238.592H1234.74V282.625H1180.03V238.592H1179.59V282.625H1127.28V238.592H1126.84V282.625H1073.44V238.592H1073V282.625H1018.29V238.592H1017.86V282.625H965.541V238.592H965.105V282.625H911.701V238.592H911.265V282.625H856.552V238.592H856.117V282.625H803.802V238.592H803.366V282.625H749.962V238.592H749.526V282.625H694.814V238.592H694.378V282.625H643.589V282.996H694.378V328.515H643.589V328.887H694.378V375.52H643.589V375.892H694.378ZM1450.32 556.108V512.633H1396.92V556.108H1450.32ZM1396.48 556.108V512.633H1341.77V556.108H1396.48ZM1341.33 556.108V512.633H1289.02V556.108H1341.33ZM1288.58 556.108V512.633H1235.18V556.108H1288.58ZM1234.74 556.108V512.633H1180.03V556.108H1234.74ZM1179.59 556.108V512.633H1127.28V556.108H1179.59ZM1127.28 556.48V601.999H1179.59V556.48H1127.28ZM1180.03 556.48V601.999H1234.74V556.48H1180.03ZM1235.18 556.48V601.999H1288.58V556.48H1235.18ZM1289.02 556.48V601.999H1341.33V556.48H1289.02ZM1341.77 556.48V601.999H1396.48V556.48H1341.77ZM1396.92 601.999V556.48H1450.32V601.999H1396.92ZM1396.48 602.37H1341.77V649.004H1396.48V602.37ZM1396.92 649.004V602.37H1450.32V649.004H1396.92ZM1341.33 649.004V602.37H1289.02V649.004H1341.33ZM1288.58 649.004V602.37H1235.18V649.004H1288.58ZM1234.74 649.004V602.37H1180.03V649.004H1234.74ZM1179.59 649.004V602.37H1127.28V649.004H1179.59ZM1179.59 512.262H1127.28V465.628H1179.59V512.262ZM1179.59 465.257H1127.28V419.738H1179.59V465.257ZM1179.59 419.367H1127.28V375.892H1179.59V419.367ZM1234.74 419.367H1180.03V375.892H1234.74V419.367ZM1235.18 419.367V375.892H1288.58V419.367H1235.18ZM1341.33 419.367H1289.02V375.892H1341.33V419.367ZM1341.77 419.367V375.892H1396.48V419.367H1341.77ZM1396.48 419.738V465.257H1341.77V419.738H1396.48ZM1396.92 419.738V465.257H1450.32V419.738H1396.92ZM1396.48 465.628V512.262H1341.77V465.628H1396.48ZM1396.92 465.628V512.262H1450.32V465.628H1396.92ZM1341.33 465.628V512.262H1289.02V465.628H1341.33ZM1288.58 465.628V512.262H1235.18V465.628H1288.58ZM1234.74 465.628V512.262H1180.03V465.628H1234.74ZM1396.92 419.367H1450.32V375.892H1396.92V419.367ZM1341.33 419.738V465.257H1289.02V419.738H1341.33ZM1288.58 419.738V465.257H1235.18V419.738H1288.58ZM1234.74 419.738V465.257H1180.03V419.738H1234.74ZM1127.28 282.996V328.515H1179.59V282.996H1127.28ZM1180.03 282.996V328.515H1234.74V282.996H1180.03ZM1235.18 282.996V328.515H1288.58V282.996H1235.18ZM1289.02 282.996V328.515H1341.33V282.996H1289.02ZM1341.77 282.996V328.515H1396.48V282.996H1341.77ZM1396.92 282.996V328.515H1450.32V282.996H1396.92ZM1450.32 328.887H1396.92V375.52H1450.32V328.887ZM1396.48 375.52V328.887H1341.77V375.52H1396.48ZM1341.33 375.52V328.887H1289.02V375.52H1341.33ZM1288.58 375.52V328.887H1235.18V375.52H1288.58ZM1234.74 375.52V328.887H1180.03V375.52H1234.74ZM1179.59 375.52V328.887H1127.28V375.52H1179.59ZM1126.84 556.108V512.633H1073.44V556.108H1126.84ZM1073 556.108V512.633H1018.29V556.108H1073ZM1018.29 556.48V601.999H1073V556.48H1018.29ZM1073.44 556.48V601.999H1126.84V556.48H1073.44ZM1126.84 649.004V602.37H1073.44V649.004H1126.84ZM1073 649.004V602.37H1018.29V649.004H1073ZM1073 512.262H1018.29V465.628H1073V512.262ZM1073 465.257H1018.29V419.738H1073V465.257ZM1073 419.367H1018.29V375.892H1073V419.367ZM1073.44 419.367V375.892H1126.84V419.367H1073.44ZM1126.84 465.628V512.262H1073.44V465.628H1126.84ZM1126.84 419.738V465.257H1073.44V419.738H1126.84ZM1018.29 282.996V328.515H1073V282.996H1018.29ZM1073.44 282.996V328.515H1126.84V282.996H1073.44ZM1126.84 375.52V328.887H1073.44V375.52H1126.84ZM1073 375.52V328.887H1018.29V375.52H1073ZM1017.86 556.108V512.633H965.541V556.108H1017.86ZM965.105 556.108V512.633H911.701V556.108H965.105ZM911.265 556.108V512.633H856.552V556.108H911.265ZM856.552 556.48V601.999H911.265V556.48H856.552ZM911.701 556.48V601.999H965.105V556.48H911.701ZM965.541 556.48V601.999H1017.86V556.48H965.541ZM1017.86 649.004V602.37H965.541V649.004H1017.86ZM965.105 649.004V602.37H911.701V649.004H965.105ZM911.265 649.004V602.37H856.552V649.004H911.265ZM911.265 512.262H856.552V465.628H911.265V512.262ZM911.265 465.257H856.552V419.738H911.265V465.257ZM911.265 419.367H856.552V375.892H911.265V419.367ZM965.105 419.367H911.701V375.892H965.105V419.367ZM965.541 419.367V375.892H1017.86V419.367H965.541ZM1017.86 465.628V512.262H965.541V465.628H1017.86ZM965.105 465.628V512.262H911.701V465.628H965.105ZM1017.86 419.738V465.257H965.541V419.738H1017.86ZM965.105 419.738V465.257H911.701V419.738H965.105ZM856.552 282.996V328.515H911.265V282.996H856.552ZM911.701 282.996V328.515H965.105V282.996H911.701ZM965.541 282.996V328.515H1017.86V282.996H965.541ZM1017.86 375.52V328.887H965.541V375.52H1017.86ZM965.105 375.52V328.887H911.701V375.52H965.105ZM911.265 375.52V328.887H856.552V375.52H911.265ZM856.117 556.108V512.633H803.802V556.108H856.117ZM803.366 556.108V512.633H749.962V556.108H803.366ZM749.962 556.48V601.999H803.366V556.48H749.962ZM803.802 556.48V601.999H856.117V556.48H803.802ZM749.962 602.37V649.004H803.366V602.37H749.962ZM803.802 602.37V649.004H856.117V602.37H803.802ZM803.366 512.262H749.962V465.628H803.366V512.262ZM803.366 465.257H749.962V419.738H803.366V465.257ZM803.366 419.367H749.962V375.892H803.366V419.367ZM856.117 419.367H803.802V375.892H856.117V419.367ZM803.802 465.257V419.738H856.117V465.257H803.802ZM803.802 512.262V465.628H856.117V512.262H803.802ZM749.962 282.996V328.515H803.366V282.996H749.962ZM803.802 282.996V328.515H856.117V282.996H803.802ZM749.962 328.887V375.52H803.366V328.887H749.962ZM803.802 328.887V375.52H856.117V328.887H803.802ZM749.526 556.108V512.633H694.814V556.108H749.526ZM694.814 556.48H749.526V601.999H694.814V556.48ZM694.814 602.37V649.004H749.526V602.37H694.814ZM694.814 465.257V419.738H749.526V465.257H694.814ZM694.814 419.367H749.526V375.892H694.814V419.367ZM749.526 465.628V512.262H694.814V465.628H749.526ZM694.814 375.52H749.526V328.887H694.814V375.52ZM694.814 328.515H722.17H749.526V282.996H694.814V328.515Z" fill="white" fill-opacity="0.9"/>
<path fill-rule="evenodd" clip-rule="evenodd" d="M695.396 797.484V840.959H644.607V841.33H695.396V886.849H644.607V887.221H695.396V933.854H644.607V934.226H695.396V977.701H644.607V978.072H695.396V1023.59H644.607V1023.96H695.396V1070.6H644.607V1070.97H695.396V1115H695.832V1070.97H750.544V1115H750.98V1070.97H804.384V1115H804.82V1070.97H857.135V1115H857.571V1070.97H912.283V1115H912.719V1070.97H966.123V1115H966.559V1070.97H1018.87V1115H1019.31V1070.97H1074.02V1115H1074.46V1070.97H1127.86V1115H1128.3V1070.97H1180.61V1115H1181.05V1070.97H1235.76V1115H1236.2V1070.97H1289.6V1115H1290.04V1070.97H1342.35V1115H1342.79V1070.97H1397.5V1115H1397.94V1070.97H1451.34V1115H1451.78V1070.97H1503V1070.6H1451.78V1023.96H1503V1023.59H1451.78V978.072H1503V977.701H1451.78V934.226H1503V933.854H1451.78V887.221H1503V886.849H1451.78V841.33H1503V840.959H1451.78V797.484H1503V797.112H1451.78V750.479H1503V750.107H1451.78V704.588H1503V704.217H1451.78V660.184H1451.34V704.217H1397.94V660.184H1397.5V704.217H1342.79V660.184H1342.35V704.217H1290.04V660.184H1289.6V704.217H1236.2V660.184H1235.76V704.217H1181.05V660.184H1180.61V704.217H1128.3V660.184H1127.86V704.217H1074.46V660.184H1074.02V704.217H1019.31V660.184H1018.87V704.217H966.559V660.184H966.123V704.217H912.719V660.184H912.283V704.217H857.571V660.184H857.135V704.217H804.82V660.184H804.384V704.217H750.98V660.184H750.544V704.217H695.832V660.184H695.396V704.217H644.607V704.588H695.396V750.107H644.607V750.479H695.396V797.112H644.607V797.484H695.396ZM1451.34 977.701V934.226H1397.94V977.701H1451.34ZM1397.5 977.701V934.226H1342.79V977.701H1397.5ZM1342.35 977.701V934.226H1290.04V977.701H1342.35ZM1289.6 977.701V934.226H1236.2V977.701H1289.6ZM1235.76 977.701V934.226H1181.05V977.701H1235.76ZM1180.61 977.701V934.226H1128.3V977.701H1180.61ZM1128.3 978.072V1023.59H1180.61V978.072H1128.3ZM1181.05 978.072V1023.59H1235.76V978.072H1181.05ZM1236.2 978.072V1023.59H1289.6V978.072H1236.2ZM1290.04 978.072V1023.59H1342.35V978.072H1290.04ZM1342.79 978.072V1023.59H1397.5V978.072H1342.79ZM1397.94 1023.59V978.072H1451.34V1023.59H1397.94ZM1397.5 1023.96H1342.79V1070.6H1397.5V1023.96ZM1397.94 1070.6V1023.96H1451.34V1070.6H1397.94ZM1342.35 1070.6V1023.96H1290.04V1070.6H1342.35ZM1289.6 1070.6V1023.96H1236.2V1070.6H1289.6ZM1235.76 1070.6V1023.96H1181.05V1070.6H1235.76ZM1180.61 1070.6V1023.96H1128.3V1070.6H1180.61ZM1180.61 933.854H1128.3V887.221H1180.61V933.854ZM1180.61 886.849H1128.3V841.33H1180.61V886.849ZM1180.61 840.959H1128.3V797.484H1180.61V840.959ZM1235.76 840.959H1181.05V797.484H1235.76V840.959ZM1236.2 840.959V797.484H1289.6V840.959H1236.2ZM1342.35 840.959H1290.04V797.484H1342.35V840.959ZM1342.79 840.959V797.484H1397.5V840.959H1342.79ZM1397.5 841.33V886.849H1342.79V841.33H1397.5ZM1397.94 841.33V886.849H1451.34V841.33H1397.94ZM1397.5 887.221V933.854H1342.79V887.221H1397.5ZM1397.94 887.221V933.854H1451.34V887.221H1397.94ZM1342.35 887.221V933.854H1290.04V887.221H1342.35ZM1289.6 887.221V933.854H1236.2V887.221H1289.6ZM1235.76 887.221V933.854H1181.05V887.221H1235.76ZM1397.94 840.959H1451.34V797.484H1397.94V840.959ZM1342.35 841.33V886.849H1290.04V841.33H1342.35ZM1289.6 841.33V886.849H1236.2V841.33H1289.6ZM1235.76 841.33V886.849H1181.05V841.33H1235.76ZM1128.3 704.588V750.107H1180.61V704.588H1128.3ZM1181.05 704.588V750.107H1235.76V704.588H1181.05ZM1236.2 704.588V750.107H1289.6V704.588H1236.2ZM1290.04 704.588V750.107H1342.35V704.588H1290.04ZM1342.79 704.588V750.107H1397.5V704.588H1342.79ZM1397.94 704.588V750.107H1451.34V704.588H1397.94ZM1451.34 750.479H1397.94V797.112H1451.34V750.479ZM1397.5 797.112V750.479H1342.79V797.112H1397.5ZM1342.35 797.112V750.479H1290.04V797.112H1342.35ZM1289.6 797.112V750.479H1236.2V797.112H1289.6ZM1235.76 797.112V750.479H1181.05V797.112H1235.76ZM1180.61 797.112V750.479H1128.3V797.112H1180.61ZM1127.86 977.701V934.226H1074.46V977.701H1127.86ZM1074.02 977.701V934.226H1019.31V977.701H1074.02ZM1019.31 978.072V1023.59H1074.02V978.072H1019.31ZM1074.46 978.072V1023.59H1127.86V978.072H1074.46ZM1127.86 1070.6V1023.96H1074.46V1070.6H1127.86ZM1074.02 1070.6V1023.96H1019.31V1070.6H1074.02ZM1074.02 933.854H1019.31V887.221H1074.02V933.854ZM1074.02 886.849H1019.31V841.33H1074.02V886.849ZM1074.02 840.959H1019.31V797.484H1074.02V840.959ZM1074.46 840.959V797.484H1127.86V840.959H1074.46ZM1127.86 887.221V933.854H1074.46V887.221H1127.86ZM1127.86 841.33V886.849H1074.46V841.33H1127.86ZM1019.31 704.588V750.107H1074.02V704.588H1019.31ZM1074.46 704.588V750.107H1127.86V704.588H1074.46ZM1127.86 797.112V750.479H1074.46V797.112H1127.86ZM1074.02 797.112V750.479H1019.31V797.112H1074.02ZM1018.87 977.701V934.226H966.559V977.701H1018.87ZM966.123 977.701V934.226H912.719V977.701H966.123ZM912.283 977.701V934.226H857.571V977.701H912.283ZM857.571 978.072V1023.59H912.283V978.072H857.571ZM912.719 978.072V1023.59H966.123V978.072H912.719ZM966.559 978.072V1023.59H1018.87V978.072H966.559ZM1018.87 1070.6V1023.96H966.559V1070.6H1018.87ZM966.123 1070.6V1023.96H912.719V1070.6H966.123ZM912.283 1070.6V1023.96H857.571V1070.6H912.283ZM912.283 933.854H857.571V887.221H912.283V933.854ZM912.283 886.849H857.571V841.33H912.283V886.849ZM912.283 840.959H857.571V797.484H912.283V840.959ZM966.123 840.959H912.719V797.484H966.123V840.959ZM966.559 840.959V797.484H1018.87V840.959H966.559ZM1018.87 887.221V933.854H966.559V887.221H1018.87ZM966.123 887.221V933.854H912.719V887.221H966.123ZM1018.87 841.33V886.849H966.559V841.33H1018.87ZM966.123 841.33V886.849H912.719V841.33H966.123ZM857.571 704.588V750.107H912.283V704.588H857.571ZM912.719 704.588V750.107H966.123V704.588H912.719ZM966.559 704.588V750.107H1018.87V704.588H966.559ZM1018.87 797.112V750.479H966.559V797.112H1018.87ZM966.123 797.112V750.479H912.719V797.112H966.123ZM912.283 797.112V750.479H857.571V797.112H912.283ZM857.135 977.701V934.226H804.82V977.701H857.135ZM804.384 977.701V934.226H750.98V977.701H804.384ZM750.98 978.072V1023.59H804.384V978.072H750.98ZM804.82 978.072V1023.59H857.135V978.072H804.82ZM750.98 1023.96V1070.6H804.384V1023.96H750.98ZM804.82 1023.96V1070.6H857.135V1023.96H804.82ZM804.384 933.854H750.98V887.221H804.384V933.854ZM804.384 886.849H750.98V841.33H804.384V886.849ZM804.384 840.959H750.98V797.484H804.384V840.959ZM857.135 840.959H804.82V797.484H857.135V840.959ZM804.82 886.849V841.33H857.135V886.849H804.82ZM804.82 933.854V887.221H857.135V933.854H804.82ZM750.98 704.588V750.107H804.384V704.588H750.98ZM804.82 704.588V750.107H857.135V704.588H804.82ZM750.98 750.479V797.112H804.384V750.479H750.98ZM804.82 750.479V797.112H857.135V750.479H804.82ZM750.544 977.701V934.226H695.832V977.701H750.544ZM695.832 978.072H750.544V1023.59H695.832V978.072ZM695.832 1023.96V1070.6H750.544V1023.96H695.832ZM695.832 886.849V841.33H750.544V886.849H695.832ZM695.832 840.959H750.544V797.484H695.832V840.959ZM750.544 887.221V933.854H695.832V887.221H750.544ZM695.832 797.112H750.544V750.479H695.832V797.112ZM695.832 750.107H750.544V704.588H695.832V750.107Z" fill="white" fill-opacity="0.9"/>
<mask id="mask0_208_119" style="mask-type:alpha" maskUnits="userSpaceOnUse" x="1332" y="203" width="191" height="190">
<circle cx="1427.77" cy="298" r="95.0001" fill="#C4C4C4"/>
</mask>
<g mask="url(#mask0_208_119)">
<g filter="url(#filter1_i_208_119)">
<circle cx="1427.77" cy="298" r="95.0001" fill="#AEE0DD"/>
</g>
<g filter="url(#filter2_f_208_119)">
<circle cx="1415.67" cy="318.159" r="42.0823" fill="#FEFEFE"/>
</g>
<g filter="url(#filter3_f_208_119)">
<circle cx="1362.63" cy="298.378" r="29.6088" fill="#FEFEFE"/>
</g>
<g filter="url(#filter4_f_208_119)">
<circle cx="1366.41" cy="259.068" r="29.6088" fill="#F9F6D1"/>
</g>
<g filter="url(#filter5_f_208_119)">
<circle cx="1475.02" cy="169.863" r="73.203" fill="#CCD3F9"/>
</g>
<g filter="url(#filter6_f_208_119)">
<circle cx="1380.52" cy="404.969" r="56.8236" fill="#CCD3F9"/>
</g>
</g>
<mask id="mask1_208_119" style="mask-type:alpha" maskUnits="userSpaceOnUse" x="-63" y="780" width="151" height="152">
<circle cx="12.3672" cy="855.927" r="75.3372" transform="rotate(9.97057 12.3672 855.927)" fill="#C4C4C4"/>
</mask>
<g mask="url(#mask1_208_119)">
<g filter="url(#filter7_i_208_119)">
<circle cx="12.3672" cy="855.927" r="75.3372" transform="rotate(9.97057 12.3672 855.927)" fill="#AEE0DD"/>
</g>
<g filter="url(#filter8_f_208_119)">
<circle cx="0.152039" cy="870.011" r="33.3722" transform="rotate(9.97057 0.152039 870.011)" fill="#FEFEFE"/>
</g>
<g filter="url(#filter9_f_208_119)">
<circle cx="-38.5612" cy="847.278" r="23.4804" transform="rotate(9.97057 -38.5612 847.278)" fill="#FEFEFE"/>
</g>
<g filter="url(#filter10_f_208_119)">
<circle cx="-30.2116" cy="817.094" r="23.4804" transform="rotate(9.97057 -30.2116 817.094)" fill="#F9F6D1"/>
</g>
<g filter="url(#filter11_f_208_119)">
<circle cx="66.8639" cy="762.334" r="58.0516" transform="rotate(9.97057 66.8639 762.334)" fill="#CCD3F9"/>
</g>
<g filter="url(#filter12_f_208_119)">
<circle cx="-39.2231" cy="932.988" r="45.0624" transform="rotate(9.97057 -39.2231 932.988)" fill="#CCD3F9"/>
</g>
</g>
<g clip-path="url(#clip1_208_119)">
<path d="M90.0343 58.8729L88.3678 55.7042L71.649 63.4543C68.7389 64.8033 67.4809 68.2488 68.8412 71.1445L69.0013 71.4853L90.8107 60.9755L95.163 69.3508C98.6761 76.1111 95.9862 84.4276 89.1716 87.8739L78.316 93.3644L72.9342 99.4451L71.6154 96.7532L65.1956 100L61.4418 92.6371L67.9789 89.3311L66.4544 86.2193L74.0789 86.2458L85.4178 80.5113C88.1272 79.1409 89.1967 75.8344 87.7999 73.1465L87.1571 71.9096L65.0513 82.5622L61.3316 74.6439C58.0281 67.6115 61.0833 59.2439 68.1506 55.9678L84.5165 48.3812L82.7383 45L97.2453 46.3296L90.0343 58.8729Z" fill="url(#paint1_linear_208_119)"/>
<path d="M113.762 57.5017C115.25 57.5017 116.536 57.6591 117.618 57.9738C118.701 58.266 119.637 58.6257 120.426 59.0527L119.276 62.7954C118.396 62.3458 117.506 61.9974 116.603 61.7501C115.724 61.4804 114.878 61.3455 114.066 61.3455C113.029 61.3455 112.239 61.5366 111.698 61.9187C111.157 62.3009 110.886 62.8066 110.886 63.436C110.886 64.1553 111.146 64.6836 111.664 65.0207C112.183 65.3354 112.984 65.6726 114.066 66.0323L116.062 66.6729C116.851 66.9426 117.585 67.2798 118.261 67.6844C118.938 68.0666 119.513 68.5161 119.986 69.0331C120.483 69.5501 120.866 70.1346 121.137 70.7864C121.407 71.4383 121.542 72.1464 121.542 72.9106C121.542 73.8098 121.374 74.664 121.035 75.4732C120.697 76.2599 120.178 76.9567 119.479 77.5637C118.802 78.1706 117.934 78.6539 116.874 79.0135C115.837 79.3507 114.608 79.5193 113.187 79.5193C111.856 79.5193 110.582 79.3844 109.364 79.1147C108.168 78.8225 107.064 78.4178 106.048 77.9008L107.199 74.1582C108.168 74.6302 109.116 75.0011 110.041 75.2709C110.965 75.5406 111.935 75.6755 112.95 75.6755C114.145 75.6755 115.002 75.4844 115.521 75.1023C116.062 74.6977 116.333 74.1582 116.333 73.4838C116.333 73.2591 116.288 73.0343 116.197 72.8095C116.107 72.5847 115.927 72.3599 115.656 72.1351C115.408 71.9104 115.047 71.6968 114.574 71.4945C114.123 71.2697 113.536 71.0449 112.814 70.8202L111.157 70.247C110.368 69.9547 109.634 69.6288 108.958 69.2692C108.281 68.9095 107.695 68.4824 107.199 67.9879C106.725 67.4934 106.353 66.9202 106.082 66.2683C105.811 65.6164 105.676 64.8409 105.676 63.9418C105.676 63.0202 105.845 62.166 106.184 61.3793C106.545 60.5925 107.064 59.9182 107.74 59.3562C108.439 58.7718 109.285 58.3222 110.277 58.0075C111.292 57.6703 112.454 57.5017 113.762 57.5017Z" fill="#333333"/>
<path d="M133.991 66.538H129.83V73.3827C129.83 74.1245 129.988 74.6415 130.304 74.9337C130.642 75.2259 131.105 75.372 131.691 75.372C132.142 75.372 132.593 75.3271 133.044 75.2372C133.496 75.1472 133.845 75.0236 134.093 74.8663L134.837 78.2717C134.454 78.474 133.868 78.6763 133.078 78.8786C132.311 79.0585 131.488 79.1484 130.608 79.1484C128.511 79.1484 127.023 78.7438 126.143 77.9345C125.286 77.1253 124.858 75.9003 124.858 74.2593V66.538H122.32V62.964H124.858V58.0412H129.83V62.964H133.991V66.538Z" fill="#333333"/>
<path d="M136.688 64.3801C137.612 63.8406 138.65 63.4135 139.8 63.0988C140.973 62.7617 142.168 62.5931 143.386 62.5931C145.393 62.5931 147.006 63.0764 148.224 64.0429C149.442 65.0095 150.051 66.5493 150.051 68.6622V79.1484H146.228L145.788 77.5299H145.653C145.202 78.1144 144.57 78.5977 143.758 78.9798C142.969 79.3394 142.033 79.5193 140.95 79.5193C140.025 79.5193 139.214 79.3844 138.515 79.1147C137.838 78.8449 137.274 78.4853 136.823 78.0357C136.372 77.5861 136.022 77.0579 135.774 76.451C135.549 75.8216 135.436 75.1585 135.436 74.4617C135.436 73.5176 135.639 72.7083 136.045 72.034C136.474 71.3596 137.037 70.8089 137.737 70.3818C138.458 69.9547 139.293 69.64 140.24 69.4377C141.209 69.2354 142.236 69.1343 143.319 69.1343H145.01V68.2576C145.01 67.6507 144.796 67.1899 144.367 66.8752C143.939 66.538 143.329 66.3694 142.54 66.3694C141.864 66.3694 141.199 66.4706 140.544 66.6729C139.89 66.8752 139.168 67.2011 138.379 67.6507L136.688 64.3801ZM145.044 72.1689L143.927 72.2026C143.296 72.2251 142.766 72.2925 142.337 72.4049C141.909 72.5173 141.559 72.6634 141.288 72.8432C141.041 73.0006 140.86 73.2029 140.747 73.4501C140.635 73.6749 140.578 73.9109 140.578 74.1582C140.578 74.855 140.781 75.3383 141.187 75.608C141.616 75.8553 142.1 75.9789 142.642 75.9789C143.183 75.9789 143.668 75.8216 144.097 75.5069C144.548 75.1922 144.863 74.8438 145.044 74.4617V72.1689Z" fill="#333333"/>
<path d="M153.018 79.1484V62.964H156.942L157.45 65.7962C157.653 65.3916 157.901 64.9983 158.194 64.6161C158.487 64.2115 158.837 63.8631 159.243 63.5709C159.649 63.2787 160.111 63.0427 160.63 62.8628C161.171 62.683 161.769 62.5931 162.423 62.5931C162.919 62.5931 163.37 62.6605 163.776 62.7954C164.205 62.9078 164.543 63.0427 164.791 63.2L163.979 67.0775C163.731 66.9426 163.415 66.819 163.032 66.7066C162.649 66.5942 162.175 66.538 161.611 66.538C160.573 66.538 159.705 66.8752 159.006 67.5496C158.33 68.2239 157.991 69.3928 157.991 71.0562V79.1484H153.018Z" fill="#333333"/>
<path d="M176.826 66.538H172.665V73.3827C172.665 74.1245 172.823 74.6415 173.139 74.9337C173.477 75.2259 173.94 75.372 174.526 75.372C174.977 75.372 175.428 75.3271 175.879 75.2372C176.33 75.1472 176.68 75.0236 176.928 74.8663L177.672 78.2717C177.289 78.474 176.703 78.6763 175.913 78.8786C175.146 79.0585 174.323 79.1484 173.443 79.1484C171.346 79.1484 169.858 78.7438 168.978 77.9345C168.121 77.1253 167.692 75.9003 167.692 74.2593V66.538H165.155V62.964H167.692V58.0412H172.665V62.964H176.826V66.538Z" fill="#333333"/>
<path d="M186.776 79.1484V58.0863H191.783V79.1484H186.776Z" fill="#333333"/>
<path d="M200.414 79.1484H195.407V62.964H199.298L199.873 64.987C200.594 64.2452 201.407 63.6608 202.308 63.2337C203.211 62.8066 204.192 62.5931 205.252 62.5931C207.079 62.5931 208.477 63.0876 209.447 64.0767C210.416 65.0657 210.901 66.5156 210.901 68.4262V79.1484H205.895V68.932C205.895 68.1452 205.703 67.5271 205.319 67.0775C204.959 66.6055 204.417 66.3694 203.696 66.3694C203.154 66.3694 202.579 66.5268 201.97 66.8415C201.384 67.1562 200.865 67.572 200.414 68.089V79.1484Z" fill="#333333"/>
<path d="M224.17 67.1112C223.562 66.819 222.919 66.5942 222.242 66.4369C221.566 66.2571 220.912 66.1671 220.28 66.1671C219.694 66.1671 219.22 66.2683 218.859 66.4706C218.499 66.6729 218.318 66.9539 218.318 67.3135C218.318 67.6957 218.487 68.0216 218.825 68.2913C219.186 68.5386 219.885 68.8083 220.923 69.1006L221.938 69.404C223.291 69.8086 224.317 70.4043 225.016 71.1911C225.716 71.9553 226.065 72.9444 226.065 74.1582C226.065 74.9674 225.896 75.7092 225.558 76.3835C225.219 77.0354 224.734 77.5974 224.103 78.0694C223.494 78.5415 222.75 78.9011 221.87 79.1484C221.013 79.3956 220.055 79.5193 218.994 79.5193C217.844 79.5193 216.818 79.4181 215.916 79.2158C215.037 79.0135 214.213 78.7213 213.447 78.3392L214.529 74.7314C215.183 75.0686 215.86 75.3495 216.559 75.5743C217.281 75.7766 218.014 75.8778 218.758 75.8778C219.615 75.8778 220.213 75.7542 220.551 75.5069C220.912 75.2596 221.092 74.9674 221.092 74.6302C221.092 74.4279 221.047 74.2593 220.957 74.1245C220.889 73.9671 220.754 73.821 220.551 73.6861C220.348 73.5513 220.055 73.4276 219.671 73.3153C219.31 73.1804 218.837 73.023 218.25 72.8432L217.202 72.5398C215.871 72.1127 214.901 71.5282 214.292 70.7864C213.683 70.0222 213.379 68.9994 213.379 67.7181C213.379 66.9764 213.525 66.302 213.819 65.6951C214.112 65.0657 214.529 64.5262 215.07 64.0767C215.634 63.6046 216.311 63.245 217.1 62.9977C217.912 62.728 218.837 62.5931 219.874 62.5931C220.912 62.5931 221.87 62.6942 222.75 62.8965C223.652 63.0764 224.464 63.3349 225.186 63.672L224.17 67.1112Z" fill="#333333"/>
<path d="M228.884 79.1484V62.964H233.891V79.1484H228.884ZM231.387 59.7945C230.53 59.7945 229.876 59.5585 229.425 59.0865C228.974 58.5919 228.749 58.0075 228.749 57.3332C228.749 56.6588 228.974 56.0856 229.425 55.6136C229.899 55.119 230.553 54.8718 231.387 54.8718C232.222 54.8718 232.865 55.1078 233.316 55.5799C233.789 56.0519 234.026 56.6363 234.026 57.3332C234.026 58.03 233.801 58.6144 233.35 59.0865C232.899 59.5585 232.244 59.7945 231.387 59.7945Z" fill="#333333"/>
<path d="M237.346 68.5274C237.346 67.6507 237.527 66.8527 237.887 66.1334C238.248 65.3916 238.744 64.7622 239.376 64.2452C240.03 63.7058 240.785 63.3012 241.642 63.0314C242.522 62.7392 243.48 62.5931 244.518 62.5931C244.901 62.5931 245.341 62.6268 245.837 62.6942C246.334 62.7617 246.785 62.8516 247.191 62.964H254.092V66.0323H252.536L250.641 65.7288C250.889 66.066 251.092 66.4931 251.25 67.0101C251.431 67.5271 251.521 68.0441 251.521 68.5611C251.521 69.4153 251.363 70.1908 251.047 70.8876C250.731 71.5844 250.269 72.1913 249.66 72.7083C249.051 73.2253 248.307 73.63 247.427 73.9222C246.548 74.1919 245.556 74.3268 244.45 74.3268C244.202 74.3268 243.965 74.3155 243.74 74.2931C243.514 74.2706 243.289 74.2369 243.063 74.1919C242.905 74.2818 242.759 74.4055 242.624 74.5628C242.488 74.7201 242.42 74.9225 242.42 75.1697C242.42 75.4619 242.522 75.698 242.725 75.8778C242.951 76.0576 243.39 76.1475 244.044 76.1475H247.461C248.341 76.1475 249.153 76.2374 249.897 76.4173C250.641 76.5971 251.273 76.8893 251.791 77.2939C252.333 77.6985 252.75 78.2268 253.043 78.8786C253.336 79.508 253.483 80.2723 253.483 81.1713C253.483 82.0481 253.268 82.8573 252.84 83.5991C252.411 84.3409 251.803 84.9815 251.013 85.5209C250.247 86.0603 249.299 86.4763 248.171 86.7686C247.066 87.0831 245.837 87.2407 244.484 87.2407C241.958 87.2407 239.974 86.8021 238.53 85.9256C237.087 85.0488 236.365 83.8014 236.365 82.1828C236.365 81.4636 236.602 80.823 237.075 80.261C237.571 79.7216 238.259 79.2945 239.139 78.9798C238.868 78.8 238.564 78.4965 238.226 78.0694C237.887 77.6199 237.718 77.0691 237.718 76.4173C237.718 75.653 237.944 75.0011 238.395 74.4617C238.868 73.8997 239.455 73.4501 240.154 73.1129C239.861 72.9556 239.545 72.7421 239.207 72.4723C238.891 72.1801 238.586 71.8429 238.293 71.4608C238.022 71.0787 237.797 70.6516 237.616 70.1795C237.436 69.685 237.346 69.1343 237.346 68.5274ZM241.913 79.8565C241.642 79.9913 241.405 80.1936 241.203 80.4634C240.999 80.7331 240.898 81.0701 240.898 81.4749C240.898 82.0368 241.157 82.5202 241.676 82.9246C242.218 83.3293 243.198 83.5317 244.619 83.5317C245.95 83.5317 246.931 83.3068 247.563 82.8573C248.217 82.4303 248.544 81.9244 248.544 81.3398C248.544 80.823 248.363 80.4408 248.002 80.1936C247.642 79.9688 247.033 79.8565 246.176 79.8565H241.913ZM246.649 68.4599C246.649 67.6732 246.435 67.0775 246.007 66.6729C245.601 66.2458 245.082 66.0323 244.45 66.0323C243.796 66.0323 243.266 66.2458 242.86 66.6729C242.454 67.0775 242.251 67.6732 242.251 68.4599C242.251 69.2467 242.454 69.8536 242.86 70.2807C243.289 70.6853 243.819 70.8876 244.45 70.8876C245.104 70.8876 245.634 70.6853 246.04 70.2807C246.446 69.8536 246.649 69.2467 246.649 68.4599Z" fill="#333333"/>
<path d="M261.406 79.1484H256.398V55.0404H261.406V64.2453C262.014 63.7732 262.736 63.3799 263.57 63.0652C264.405 62.7505 265.296 62.5931 266.243 62.5931C267.235 62.5931 268.093 62.7392 268.814 63.0314C269.536 63.3237 270.134 63.7395 270.607 64.279C271.081 64.796 271.43 65.4141 271.656 66.1334C271.904 66.8527 272.028 67.6507 272.028 68.5274V79.1484H267.021V69.3366C267.021 68.2576 266.796 67.4934 266.345 67.0438C265.916 66.5942 265.307 66.3695 264.518 66.3695C263.976 66.3695 263.424 66.4931 262.86 66.7404C262.296 66.9876 261.811 67.3135 261.406 67.7182V79.1484Z" fill="#333333"/>
<path d="M285.359 66.538H281.198V73.3827C281.198 74.1245 281.355 74.6415 281.671 74.9337C282.01 75.2259 282.472 75.372 283.058 75.372C283.509 75.372 283.96 75.3271 284.411 75.2372C284.863 75.1472 285.212 75.0236 285.46 74.8663L286.205 78.2717C285.821 78.474 285.235 78.6763 284.445 78.8786C283.679 79.0585 282.855 79.1484 281.976 79.1484C279.878 79.1484 278.39 78.7438 277.51 77.9345C276.653 77.1253 276.224 75.9003 276.224 74.2593V66.538H273.688V62.964H276.224V58.0412H281.198V62.964H285.359V66.538Z" fill="#333333"/>
<path d="M297.764 67.1112C297.155 66.819 296.512 66.5942 295.836 66.4369C295.159 66.2571 294.505 66.1671 293.874 66.1671C293.287 66.1671 292.814 66.2683 292.453 66.4706C292.092 66.6729 291.912 66.9539 291.912 67.3135C291.912 67.6957 292.081 68.0216 292.419 68.2913C292.78 68.5386 293.479 68.8083 294.517 69.1006L295.531 69.404C296.884 69.8086 297.911 70.4043 298.61 71.1911C299.309 71.9553 299.659 72.9444 299.659 74.1582C299.659 74.9674 299.489 75.7092 299.151 76.3835C298.813 77.0354 298.328 77.5974 297.696 78.0694C297.088 78.5415 296.343 78.9011 295.464 79.1484C294.607 79.3956 293.648 79.5193 292.588 79.5193C291.438 79.5193 290.412 79.4181 289.51 79.2158C288.63 79.0135 287.807 78.7213 287.04 78.3392L288.123 74.7314C288.776 75.0686 289.453 75.3495 290.152 75.5743C290.874 75.7766 291.607 75.8778 292.351 75.8778C293.208 75.8778 293.806 75.7542 294.144 75.5069C294.505 75.2596 294.685 74.9674 294.685 74.6302C294.685 74.4279 294.64 74.2593 294.55 74.1245C294.483 73.9671 294.347 73.821 294.144 73.6861C293.941 73.5513 293.648 73.4276 293.265 73.3153C292.904 73.1804 292.43 73.023 291.844 72.8432L290.795 72.5398C289.465 72.1127 288.495 71.5282 287.886 70.7864C287.277 70.0222 286.972 68.9994 286.972 67.7181C286.972 66.9764 287.119 66.302 287.412 65.6951C287.705 65.0657 288.123 64.5262 288.664 64.0767C289.228 63.6046 289.904 63.245 290.694 62.9977C291.506 62.728 292.43 62.5931 293.468 62.5931C294.505 62.5931 295.464 62.6942 296.343 62.8965C297.245 63.0764 298.057 63.3349 298.779 63.672L297.764 67.1112Z" fill="#333333"/>
<path d="M106.379 88.718V83.9883H108.1C108.54 83.9883 108.873 84.0394 109.099 84.142C109.324 84.2425 109.476 84.3895 109.555 84.5834C109.636 84.7777 109.677 85.0122 109.677 85.2868C109.677 85.4962 109.632 85.6803 109.542 85.8396C109.452 85.9986 109.297 86.1153 109.076 86.1897C109.354 86.2528 109.562 86.3914 109.7 86.605C109.838 86.8166 109.906 87.0725 109.906 87.3736C109.906 87.8425 109.774 88.1838 109.509 88.3975C109.244 88.6111 108.823 88.718 108.245 88.718H106.379ZM107.043 85.9933H108.261C108.561 85.9933 108.762 85.9302 108.862 85.8037C108.965 85.675 109.017 85.505 109.017 85.2935C109.017 85.0643 108.987 84.8923 108.928 84.7766C108.871 84.661 108.768 84.5834 108.619 84.5443C108.472 84.5031 108.266 84.4822 107.999 84.4822H107.043V85.9933ZM107.043 88.2307H108.196C108.441 88.2307 108.641 88.2067 108.797 88.1588C108.954 88.1108 109.07 88.0202 109.145 87.8873C109.219 87.754 109.256 87.5591 109.256 87.3017C109.256 87.1579 109.231 87.0204 109.181 86.8896C109.133 86.7566 109.044 86.6488 108.915 86.5659C108.786 86.4827 108.6 86.4414 108.356 86.4414H107.043V88.2307ZM113.087 88.7899C112.699 88.7899 112.381 88.7472 112.131 88.6622C111.884 88.5773 111.691 88.4606 111.553 88.3125C111.416 88.1641 111.319 87.9931 111.264 87.7988C111.212 87.6024 111.185 87.3934 111.185 87.1709V83.9883H111.849V87.2397C111.849 87.5295 111.906 87.7477 112.02 87.8937C112.136 88.0396 112.288 88.138 112.476 88.1881C112.664 88.236 112.868 88.26 113.087 88.26C113.31 88.26 113.51 88.236 113.685 88.1881C113.862 88.138 114.002 88.0396 114.105 87.8937C114.208 87.7477 114.259 87.5295 114.259 87.2397V83.9883H114.923V87.1709C114.923 87.3888 114.896 87.5961 114.841 87.7925C114.788 87.9864 114.695 88.1588 114.561 88.309C114.428 88.4595 114.242 88.5773 114.003 88.6622C113.765 88.7472 113.459 88.7899 113.087 88.7899ZM116.405 88.2272H117.312V84.4756H116.405V83.9883H118.875V84.4756H117.972V88.2272H118.875V88.718H116.405V88.2272ZM120.417 83.9883H121.077V88.211H123.208V88.718H120.417V83.9883ZM124.382 88.718V83.9883H126.267C126.707 83.9883 127.058 84.0592 127.321 84.2009C127.584 84.3405 127.773 84.5302 127.889 84.7699C128.007 85.01 128.066 85.2805 128.066 85.5812V87.1413C128.066 87.6539 127.917 88.0453 127.62 88.3157C127.324 88.584 126.875 88.718 126.273 88.718H124.382ZM125.045 88.2272H126.208C126.435 88.2272 126.639 88.2032 126.818 88.1553C127 88.1052 127.144 88.0072 127.249 87.8609C127.354 87.7149 127.406 87.4967 127.406 87.2069V85.5421C127.406 85.2498 127.353 85.0284 127.245 84.8778C127.14 84.7252 126.997 84.6219 126.815 84.5672C126.636 84.5105 126.433 84.4822 126.208 84.4822H125.045V88.2272ZM132.588 86.8599L130.907 83.9883H131.606L132.92 86.2846L134.24 83.9883H134.92L133.248 86.8599V88.718H132.588V86.8599ZM137.847 88.7899C137.451 88.7899 137.125 88.7497 136.869 88.6689C136.615 88.5882 136.417 88.4747 136.274 88.3287C136.132 88.1803 136.032 88.0051 135.976 87.802C135.919 87.5993 135.89 87.3747 135.89 87.1282V85.6401C135.89 85.3894 135.917 85.1592 135.972 84.9497C136.029 84.7407 136.129 84.5584 136.271 84.4036C136.413 84.2489 136.611 84.129 136.865 84.044C137.121 83.9587 137.449 83.9164 137.847 83.9164C138.23 83.9164 138.546 83.9612 138.793 84.0504C139.04 84.1399 139.233 84.2651 139.371 84.4265C139.509 84.5859 139.605 84.7721 139.66 84.9861C139.717 85.1997 139.745 85.4317 139.745 85.6827V87.0824C139.745 87.3246 139.717 87.5503 139.66 87.7597C139.605 87.9666 139.508 88.1479 139.368 88.3026C139.23 88.4553 139.037 88.5752 138.79 88.6622C138.542 88.7472 138.228 88.7899 137.847 88.7899ZM137.847 88.26C138.13 88.26 138.362 88.2328 138.544 88.1782C138.727 88.1214 138.863 88.0192 138.951 87.8707C139.04 87.7227 139.085 87.5087 139.085 87.2298V85.5191C139.085 85.2378 139.04 85.0196 138.951 84.8648C138.861 84.71 138.724 84.6021 138.54 84.5411C138.359 84.4777 138.127 84.4463 137.847 84.4463C137.569 84.4463 137.334 84.4777 137.141 84.5411C136.949 84.6021 136.802 84.71 136.701 84.8648C136.603 85.0196 136.553 85.2378 136.553 85.5191V87.2298C136.553 87.5087 136.603 87.7227 136.701 87.8707C136.8 88.0192 136.945 88.1214 137.138 88.1782C137.331 88.2328 137.567 88.26 137.847 88.26ZM143.116 88.7899C142.729 88.7899 142.41 88.7472 142.161 88.6622C141.913 88.5773 141.721 88.4606 141.583 88.3125C141.445 88.1641 141.348 87.9931 141.294 87.7988C141.241 87.6024 141.215 87.3934 141.215 87.1709V83.9883H141.878V87.2397C141.878 87.5295 141.935 87.7477 142.049 87.8937C142.165 88.0396 142.317 88.138 142.505 88.1881C142.694 88.236 142.897 88.26 143.116 88.26C143.34 88.26 143.539 88.236 143.714 88.1881C143.891 88.138 144.031 88.0396 144.134 87.8937C144.237 87.7477 144.289 87.5295 144.289 87.2397V83.9883H144.952V87.1709C144.952 87.3888 144.925 87.5961 144.87 87.7925C144.817 87.9864 144.724 88.1588 144.591 88.309C144.457 88.4595 144.271 88.5773 144.032 88.6622C143.794 88.7472 143.488 88.7899 143.116 88.7899ZM146.527 88.718V83.9883H148.645C148.912 83.9883 149.144 84.032 149.341 84.1191C149.54 84.2041 149.694 84.3493 149.804 84.5542C149.916 84.7569 149.972 85.0351 149.972 85.3883C149.972 85.7698 149.909 86.0533 149.784 86.2387C149.662 86.4217 149.501 86.555 149.302 86.6378L150.31 88.718H149.63L148.687 86.7556H147.19V88.718H146.527ZM147.19 86.2581H148.589C148.782 86.2581 148.929 86.2222 149.032 86.1502C149.135 86.0783 149.206 85.9814 149.246 85.8594C149.287 85.7349 149.308 85.5974 149.308 85.4472C149.308 85.2946 149.295 85.1451 149.269 84.9991C149.245 84.8528 149.188 84.7319 149.098 84.636C149.008 84.538 148.864 84.4886 148.664 84.4886H147.19V86.2581ZM153.419 83.9883H155.317C155.716 83.9883 156.036 84.1018 156.276 84.3285C156.517 84.5552 156.637 84.9378 156.637 85.4765C156.637 85.8537 156.583 86.1523 156.474 86.3727C156.364 86.593 156.209 86.751 156.01 86.8469C155.811 86.9407 155.577 86.9876 155.308 86.9876H154.083V88.718H153.419V83.9883ZM155.321 86.4873C155.514 86.4873 155.656 86.4414 155.748 86.3498C155.84 86.256 155.9 86.1351 155.928 85.9866C155.959 85.8386 155.974 85.6838 155.974 85.5223C155.974 85.3675 155.962 85.2106 155.938 85.0513C155.914 84.8923 155.857 84.759 155.767 84.6522C155.68 84.5432 155.536 84.4886 155.337 84.4886H154.083V86.4873H155.321ZM157.976 88.718V83.9883H160.094C160.361 83.9883 160.593 84.032 160.79 84.1191C160.989 84.2041 161.144 84.3493 161.253 84.5542C161.365 84.7569 161.42 85.0351 161.42 85.3883C161.42 85.7698 161.358 86.0533 161.234 86.2387C161.111 86.4217 160.95 86.555 160.751 86.6378L161.759 88.718H161.079L160.137 86.7556H158.639V88.718H157.976ZM158.639 86.2581H160.038C160.231 86.2581 160.378 86.2222 160.481 86.1502C160.584 86.0783 160.656 85.9814 160.695 85.8594C160.737 85.7349 160.757 85.5974 160.757 85.4472C160.757 85.2946 160.744 85.1451 160.718 84.9991C160.694 84.8528 160.637 84.7319 160.547 84.636C160.457 84.538 160.313 84.4886 160.114 84.4886H158.639V86.2581ZM164.837 88.7899C164.441 88.7899 164.115 88.7497 163.859 88.6689C163.605 88.5882 163.407 88.4747 163.264 88.3287C163.122 88.1803 163.023 88.0051 162.966 87.802C162.909 87.5993 162.88 87.3747 162.88 87.1282V85.6401C162.88 85.3894 162.908 85.1592 162.962 84.9497C163.019 84.7407 163.119 84.5584 163.261 84.4036C163.403 84.2489 163.601 84.129 163.856 84.044C164.112 83.9587 164.439 83.9164 164.837 83.9164C165.22 83.9164 165.536 83.9612 165.783 84.0504C166.031 84.1399 166.223 84.2651 166.361 84.4265C166.499 84.5859 166.595 84.7721 166.65 84.9861C166.707 85.1997 166.736 85.4317 166.736 85.6827V87.0824C166.736 87.3246 166.707 87.5503 166.65 87.7597C166.595 87.9666 166.498 88.1479 166.358 88.3026C166.22 88.4553 166.027 88.5752 165.78 88.6622C165.533 88.7472 165.218 88.7899 164.837 88.7899ZM164.837 88.26C165.12 88.26 165.352 88.2328 165.534 88.1782C165.717 88.1214 165.853 88.0192 165.941 87.8707C166.031 87.7227 166.075 87.5087 166.075 87.2298V85.5191C166.075 85.2378 166.031 85.0196 165.941 84.8648C165.851 84.71 165.714 84.6021 165.53 84.5411C165.349 84.4777 165.118 84.4463 164.837 84.4463C164.559 84.4463 164.324 84.4777 164.131 84.5411C163.939 84.6021 163.792 84.71 163.691 84.8648C163.593 85.0196 163.544 85.2378 163.544 85.5191V87.2298C163.544 87.5087 163.593 87.7227 163.691 87.8707C163.79 88.0192 163.936 88.1214 164.128 88.1782C164.321 88.2328 164.557 88.26 164.837 88.26ZM168.264 88.718V83.9883H168.872L170.487 86.605L172.087 83.9883H172.671V88.718H172.047V85.0513L170.717 87.2199H170.228L168.894 85.058V88.718H168.264ZM174.213 88.2272H175.119V84.4756H174.213V83.9883H176.682V84.4756H175.779V88.2272H176.682V88.718H174.213V88.2272ZM178.224 83.9883H178.727L181.446 87.7727V83.9883H182.027V88.718H181.439L178.805 85.107V88.718H178.224V83.9883ZM183.66 83.9883H186.626V84.4791H184.321V86.036H186.357V86.5264H184.321V88.2272H186.665V88.718H183.66V83.9883ZM187.987 83.9883H188.489L191.209 87.7727V83.9883H191.79V88.718H191.202L188.568 85.107V88.718H187.987V83.9883ZM194.353 88.718V84.5281H192.984V83.9883H196.386V84.5281H195.013V88.718H194.353ZM201.246 88.7899C200.849 88.7899 200.527 88.7497 200.277 88.6689C200.027 88.5882 199.835 88.4747 199.699 88.3287C199.565 88.1803 199.473 88.0051 199.42 87.802C199.369 87.5993 199.344 87.3747 199.344 87.1282V85.6432C199.344 85.3926 199.368 85.1627 199.417 84.9533C199.467 84.7417 199.559 84.5584 199.692 84.4036C199.828 84.2489 200.02 84.129 200.267 84.044C200.517 83.9587 200.841 83.9164 201.239 83.9164C201.719 83.9164 202.086 83.9742 202.343 84.0898C202.599 84.203 202.775 84.3708 202.871 84.5933C202.968 84.8158 203.016 85.0894 203.016 85.4144V85.4567L202.389 85.5124V85.4243C202.389 85.1384 202.351 84.9258 202.277 84.7865C202.205 84.6469 202.084 84.5552 201.916 84.5115C201.747 84.4681 201.522 84.4463 201.239 84.4463C200.961 84.4463 200.731 84.4777 200.55 84.5411C200.368 84.6021 200.232 84.7111 200.142 84.8683C200.053 85.0231 200.008 85.241 200.008 85.5223V87.2298C200.008 87.5087 200.054 87.7227 200.145 87.8707C200.237 88.0192 200.376 88.1214 200.559 88.1782C200.745 88.2328 200.979 88.26 201.259 88.26C201.535 88.26 201.755 88.2416 201.919 88.2043C202.085 88.1672 202.205 88.0833 202.277 87.9525C202.351 87.8196 202.389 87.6123 202.389 87.331V87.2527H203.016V87.2855C203.016 87.5231 202.993 87.7357 202.947 87.9233C202.903 88.1084 202.82 88.2656 202.697 88.3943C202.575 88.5226 202.396 88.621 202.162 88.6887C201.93 88.756 201.624 88.7899 201.246 88.7899ZM206.298 88.7899C205.902 88.7899 205.576 88.7497 205.319 88.6689C205.065 88.5882 204.867 88.4747 204.725 88.3287C204.583 88.1803 204.483 88.0051 204.426 87.802C204.369 87.5993 204.341 87.3747 204.341 87.1282V85.6401C204.341 85.3894 204.368 85.1592 204.423 84.9497C204.48 84.7407 204.579 84.5584 204.722 84.4036C204.864 84.2489 205.062 84.129 205.316 84.044C205.572 83.9587 205.899 83.9164 206.298 83.9164C206.681 83.9164 206.996 83.9612 207.244 84.0504C207.491 84.1399 207.684 84.2651 207.822 84.4265C207.96 84.5859 208.056 84.7721 208.111 84.9861C208.168 85.1997 208.196 85.4317 208.196 85.6827V87.0824C208.196 87.3246 208.168 87.5503 208.111 87.7597C208.056 87.9666 207.959 88.1479 207.818 88.3026C207.681 88.4553 207.488 88.5752 207.241 88.6622C206.993 88.7472 206.679 88.7899 206.298 88.7899ZM206.298 88.26C206.58 88.26 206.812 88.2328 206.994 88.1782C207.178 88.1214 207.314 88.0192 207.401 87.8707C207.491 87.7227 207.536 87.5087 207.536 87.2298V85.5191C207.536 85.2378 207.491 85.0196 207.401 84.8648C207.312 84.71 207.175 84.6021 206.991 84.5411C206.809 84.4777 206.578 84.4463 206.298 84.4463C206.02 84.4463 205.785 84.4777 205.592 84.5411C205.399 84.6021 205.253 84.71 205.152 84.8648C205.053 85.0196 205.004 85.2378 205.004 85.5191V87.2298C205.004 87.5087 205.053 87.7227 205.152 87.8707C205.25 88.0192 205.396 88.1214 205.589 88.1782C205.781 88.2328 206.018 88.26 206.298 88.26ZM209.725 88.718V83.9883H210.332L211.948 86.605L213.547 83.9883H214.132V88.718H213.508V85.0513L212.178 87.2199H211.688L210.355 85.058V88.718H209.725ZM215.765 83.9883H217.664C218.062 83.9883 218.382 84.1018 218.623 84.3285C218.863 84.5552 218.984 84.9378 218.984 85.4765C218.984 85.8537 218.929 86.1523 218.819 86.3727C218.71 86.593 218.556 86.751 218.356 86.8469C218.157 86.9407 217.923 86.9876 217.654 86.9876H216.429V88.718H215.765V83.9883ZM217.667 86.4873C217.859 86.4873 218.002 86.4414 218.094 86.3498C218.186 86.256 218.246 86.1351 218.274 85.9866C218.305 85.8386 218.32 85.6838 218.32 85.5223C218.32 85.3675 218.308 85.2106 218.284 85.0513C218.26 84.8923 218.203 84.759 218.114 84.6522C218.026 84.5432 217.882 84.4886 217.683 84.4886H216.429V86.4873H217.667ZM219.77 88.718L221.54 83.9883H222.121L223.895 88.718H223.222L222.903 87.7956H220.778L220.457 88.718H219.77ZM220.949 87.3116H222.736L221.849 84.7438L220.949 87.3116ZM225.095 83.9883H225.597L228.316 87.7727V83.9883H228.898V88.718H228.31L225.676 85.107V88.718H225.095V83.9883ZM231.654 86.8599L229.973 83.9883H230.673L231.986 86.2846L233.306 83.9883H233.986L232.315 86.8599V88.718H231.654V86.8599Z" fill="#333333"/>
</g>
</g>
<defs>
<filter id="filter0_f_208_119" x="-294.629" y="-1148.74" width="2294.57" height="2063.92" filterUnits="userSpaceOnUse" color-interpolation-filters="sRGB">
<feFlood flood-opacity="0" result="BackgroundImageFix"/>
<feBlend mode="normal" in="SourceGraphic" in2="BackgroundImageFix" result="shape"/>
<feGaussianBlur stdDeviation="400" result="effect1_foregroundBlur_208_119"/>
</filter>
<filter id="filter1_i_208_119" x="1332.77" y="203" width="190" height="190" filterUnits="userSpaceOnUse" color-interpolation-filters="sRGB">
<feFlood flood-opacity="0" result="BackgroundImageFix"/>
<feBlend mode="normal" in="SourceGraphic" in2="BackgroundImageFix" result="shape"/>
<feColorMatrix in="SourceAlpha" type="matrix" values="0 0 0 0 0 0 0 0 0 0 0 0 0 0 0 0 0 0 127 0" result="hardAlpha"/>
<feMorphology radius="7.59367" operator="erode" in="SourceAlpha" result="effect1_innerShadow_208_119"/>
<feOffset/>
<feGaussianBlur stdDeviation="3.99667"/>
<feComposite in2="hardAlpha" operator="arithmetic" k2="-1" k3="1"/>
<feColorMatrix type="matrix" values="0 0 0 0 0 0 0 0 0 0 0 0 0 0 0 0 0 0 0.25 0"/>
<feBlend mode="overlay" in2="shape" result="effect1_innerShadow_208_119"/>
</filter>
<filter id="filter2_f_208_119" x="1347.21" y="249.699" width="136.921" height="136.921" filterUnits="userSpaceOnUse" color-interpolation-filters="sRGB">
<feFlood flood-opacity="0" result="BackgroundImageFix"/>
<feBlend mode="normal" in="SourceGraphic" in2="BackgroundImageFix" result="shape"/>
<feGaussianBlur stdDeviation="13.189" result="effect1_foregroundBlur_208_119"/>
</filter>
<filter id="filter3_f_208_119" x="1311.84" y="247.587" width="101.582" height="101.582" filterUnits="userSpaceOnUse" color-interpolation-filters="sRGB">
<feFlood flood-opacity="0" result="BackgroundImageFix"/>
<feBlend mode="normal" in="SourceGraphic" in2="BackgroundImageFix" result="shape"/>
<feGaussianBlur stdDeviation="10.5912" result="effect1_foregroundBlur_208_119"/>
</filter>
<filter id="filter4_f_208_119" x="1315.62" y="208.276" width="101.582" height="101.582" filterUnits="userSpaceOnUse" color-interpolation-filters="sRGB">
<feFlood flood-opacity="0" result="BackgroundImageFix"/>
<feBlend mode="normal" in="SourceGraphic" in2="BackgroundImageFix" result="shape"/>
<feGaussianBlur stdDeviation="10.5912" result="effect1_foregroundBlur_208_119"/>
</filter>
<filter id="filter5_f_208_119" x="1391.82" y="86.6688" width="166.389" height="166.389" filterUnits="userSpaceOnUse" color-interpolation-filters="sRGB">
<feFlood flood-opacity="0" result="BackgroundImageFix"/>
<feBlend mode="normal" in="SourceGraphic" in2="BackgroundImageFix" result="shape"/>
<feGaussianBlur stdDeviation="4.99584" result="effect1_foregroundBlur_208_119"/>
</filter>
<filter id="filter6_f_208_119" x="1313.51" y="337.954" width="134.03" height="134.03" filterUnits="userSpaceOnUse" color-interpolation-filters="sRGB">
<feFlood flood-opacity="0" result="BackgroundImageFix"/>
<feBlend mode="normal" in="SourceGraphic" in2="BackgroundImageFix" result="shape"/>
<feGaussianBlur stdDeviation="5.09575" result="effect1_foregroundBlur_208_119"/>
</filter>
<filter id="filter7_i_208_119" x="-62.9824" y="780.577" width="150.699" height="150.7" filterUnits="userSpaceOnUse" color-interpolation-filters="sRGB">
<feFlood flood-opacity="0" result="BackgroundImageFix"/>
<feBlend mode="normal" in="SourceGraphic" in2="BackgroundImageFix" result="shape"/>
<feColorMatrix in="SourceAlpha" type="matrix" values="0 0 0 0 0 0 0 0 0 0 0 0 0 0 0 0 0 0 127 0" result="hardAlpha"/>
<feMorphology radius="7.59367" operator="erode" in="SourceAlpha" result="effect1_innerShadow_208_119"/>
<feOffset/>
<feGaussianBlur stdDeviation="3.99667"/>
<feComposite in2="hardAlpha" operator="arithmetic" k2="-1" k3="1"/>
<feColorMatrix type="matrix" values="0 0 0 0 0 0 0 0 0 0 0 0 0 0 0 0 0 0 0.25 0"/>
<feBlend mode="overlay" in2="shape" result="effect1_innerShadow_208_119"/>
</filter>
<filter id="filter8_f_208_119" x="-59.6036" y="810.256" width="119.511" height="119.512" filterUnits="userSpaceOnUse" color-interpolation-filters="sRGB">
<feFlood flood-opacity="0" result="BackgroundImageFix"/>
<feBlend mode="normal" in="SourceGraphic" in2="BackgroundImageFix" result="shape"/>
<feGaussianBlur stdDeviation="13.189" result="effect1_foregroundBlur_208_119"/>
</filter>
<filter id="filter9_f_208_119" x="-83.2278" y="802.611" width="89.3334" height="89.3334" filterUnits="userSpaceOnUse" color-interpolation-filters="sRGB">
<feFlood flood-opacity="0" result="BackgroundImageFix"/>
<feBlend mode="normal" in="SourceGraphic" in2="BackgroundImageFix" result="shape"/>
<feGaussianBlur stdDeviation="10.5912" result="effect1_foregroundBlur_208_119"/>
</filter>
<filter id="filter10_f_208_119" x="-74.8781" y="772.427" width="89.3334" height="89.3334" filterUnits="userSpaceOnUse" color-interpolation-filters="sRGB">
<feFlood flood-opacity="0" result="BackgroundImageFix"/>
<feBlend mode="normal" in="SourceGraphic" in2="BackgroundImageFix" result="shape"/>
<feGaussianBlur stdDeviation="10.5912" result="effect1_foregroundBlur_208_119"/>
</filter>
<filter id="filter11_f_208_119" x="-1.18894" y="694.281" width="136.106" height="136.106" filterUnits="userSpaceOnUse" color-interpolation-filters="sRGB">
<feFlood flood-opacity="0" result="BackgroundImageFix"/>
<feBlend mode="normal" in="SourceGraphic" in2="BackgroundImageFix" result="shape"/>
<feGaussianBlur stdDeviation="4.99584" result="effect1_foregroundBlur_208_119"/>
</filter>
<filter id="filter12_f_208_119" x="-94.4845" y="877.726" width="110.523" height="110.523" filterUnits="userSpaceOnUse" color-interpolation-filters="sRGB">
<feFlood flood-opacity="0" result="BackgroundImageFix"/>
<feBlend mode="normal" in="SourceGraphic" in2="BackgroundImageFix" result="shape"/>
<feGaussianBlur stdDeviation="5.09575" result="effect1_foregroundBlur_208_119"/>
</filter>
<linearGradient id="paint0_linear_208_119" x1="2160.06" y1="564.002" x2="2177.13" y2="2089.96" gradientUnits="userSpaceOnUse">
<stop stop-color="#5994FF"/>
<stop offset="0.598958" stop-color="#5994FF" stop-opacity="0"/>
</linearGradient>
<linearGradient id="paint1_linear_208_119" x1="94.4324" y1="46.5047" x2="55.7536" y2="90.9622" gradientUnits="userSpaceOnUse">
<stop offset="0.104981" stop-color="#00FFD1"/>
<stop offset="0.673525" stop-color="#276CEC"/>
<stop offset="0.972594" stop-color="#276CEC" stop-opacity="0"/>
</linearGradient>
<clipPath id="clip0_208_119">
<rect width="1440" height="1024" fill="white"/>
</clipPath>
<clipPath id="clip1_208_119">
<rect width="240" height="55" fill="white" transform="translate(60 45)"/>
</clipPath>
</defs>
</svg>
