<svg width="18" height="11" viewBox="0 0 18 11" fill="none" xmlns="http://www.w3.org/2000/svg">
<path d="M12.7656 1.76651V9.64151C12.7656 9.93988 12.6471 10.226 12.4361 10.437C12.2251 10.648 11.939 10.7665 11.6406 10.7665H1.51562C1.21726 10.7665 0.931108 10.648 0.72013 10.437C0.509151 10.226 0.390625 9.93988 0.390625 9.64151V1.76651C0.390625 1.46814 0.509151 1.18199 0.72013 0.971015C0.931108 0.760036 1.21726 0.64151 1.51562 0.64151H11.6406C11.939 0.64151 12.2251 0.760036 12.4361 0.971015C12.6471 1.18199 12.7656 1.46814 12.7656 1.76651ZM16.8438 1.78409C16.7644 1.76467 16.6818 1.76227 16.6015 1.77706C16.5211 1.79184 16.4448 1.82347 16.3776 1.86987L14.0158 3.44417C13.9773 3.46987 13.9457 3.50469 13.9238 3.54554C13.902 3.58639 13.8906 3.63199 13.8906 3.67831V7.72971C13.8906 7.77603 13.902 7.82163 13.9238 7.86248C13.9457 7.90333 13.9773 7.93815 14.0158 7.96385L16.3909 9.54729C16.4798 9.6066 16.5838 9.63935 16.6906 9.64171C16.7975 9.64408 16.9028 9.61596 16.9942 9.56065C17.0788 9.50687 17.1482 9.43227 17.1957 9.344C17.2432 9.25573 17.2673 9.15674 17.2656 9.05651V2.32901C17.2657 2.20426 17.2243 2.08302 17.1479 1.98438C17.0715 1.88573 16.9645 1.81528 16.8438 1.78409Z" fill="#808B9A"/>
</svg>
