<svg width="42" height="42" viewBox="0 0 42 42" fill="none" xmlns="http://www.w3.org/2000/svg">
<rect opacity="0.2" width="42" height="42" rx="21" fill="#EB5757"/>
<path d="M26.0781 11.25C23.9809 11.25 22.1446 12.1519 21 13.6763C19.8554 12.1519 18.0191 11.25 15.9219 11.25C14.2524 11.2519 12.6519 11.9159 11.4714 13.0964C10.2909 14.2769 9.62688 15.8774 9.625 17.5469C9.625 24.6562 20.1662 30.4108 20.6151 30.6484C20.7334 30.7121 20.8656 30.7454 21 30.7454C21.1344 30.7454 21.2666 30.7121 21.3849 30.6484C21.8338 30.4108 32.375 24.6562 32.375 17.5469C32.3731 15.8774 31.7091 14.2769 30.5286 13.0964C29.3481 11.9159 27.7476 11.2519 26.0781 11.25ZM21 29.0031C19.1455 27.9225 11.25 22.9998 11.25 17.5469C11.2516 16.3083 11.7443 15.1209 12.6201 14.2451C13.4959 13.3693 14.6833 12.8766 15.9219 12.875C17.8973 12.875 19.5558 13.9272 20.2484 15.6172C20.3097 15.7662 20.4138 15.8937 20.5476 15.9834C20.6814 16.0731 20.8389 16.121 21 16.121C21.1611 16.121 21.3186 16.0731 21.4524 15.9834C21.5862 15.8937 21.6903 15.7662 21.7516 15.6172C22.4442 13.9241 24.1027 12.875 26.0781 12.875C27.3167 12.8766 28.5041 13.3693 29.3799 14.2451C30.2557 15.1209 30.7484 16.3083 30.75 17.5469C30.75 22.9916 22.8525 27.9215 21 29.0031Z" fill="#FF3850"/>
</svg>
