<svg width="18" height="18" viewBox="0 0 18 18" fill="none" xmlns="http://www.w3.org/2000/svg">
<path d="M15.9834 5.15883L12.8412 2.01727C12.7367 1.91277 12.6127 1.82988 12.4762 1.77333C12.3397 1.71678 12.1934 1.68767 12.0456 1.68767C11.8978 1.68767 11.7515 1.71678 11.615 1.77333C11.4785 1.82988 11.3545 1.91277 11.25 2.01727L2.57977 10.6875C2.47485 10.7916 2.39167 10.9155 2.33506 11.052C2.27844 11.1885 2.24953 11.3349 2.25001 11.4827V14.625C2.25001 14.9234 2.36853 15.2095 2.57951 15.4205C2.79049 15.6315 3.07664 15.75 3.37501 15.75H15.1875C15.3367 15.75 15.4798 15.6907 15.5853 15.5853C15.6907 15.4798 15.75 15.3367 15.75 15.1875C15.75 15.0383 15.6907 14.8952 15.5853 14.7898C15.4798 14.6843 15.3367 14.625 15.1875 14.625H8.10844L15.9834 6.75C16.0879 6.64553 16.1708 6.5215 16.2274 6.38499C16.2839 6.24849 16.313 6.10217 16.313 5.95442C16.313 5.80666 16.2839 5.66035 16.2274 5.52384C16.1708 5.38733 16.0879 5.2633 15.9834 5.15883ZM6.51727 14.625H3.37501V11.4827L9.56251 5.29524L12.7048 8.4375L6.51727 14.625ZM13.5 7.64227L10.3584 4.5L12.0459 2.8125L15.1875 5.95477L13.5 7.64227Z" fill="#006654"/>
</svg>
