<svg width="18" height="18" viewBox="0 0 18 18" fill="none" xmlns="http://www.w3.org/2000/svg">
<circle cx="9" cy="9" r="9" fill="white"/>
<path d="M13.6848 7.55953L9.30977 11.9345C9.26914 11.9752 9.22089 12.0075 9.16778 12.0295C9.11467 12.0515 9.05774 12.0628 9.00024 12.0628C8.94275 12.0628 8.88582 12.0515 8.83271 12.0295C8.7796 12.0075 8.73134 11.9752 8.69071 11.9345L4.31571 7.55953C4.23362 7.47744 4.1875 7.3661 4.1875 7.25C4.1875 7.1339 4.23362 7.02256 4.31571 6.94047C4.3978 6.85837 4.50915 6.81226 4.62524 6.81226C4.74134 6.81226 4.85268 6.85837 4.93477 6.94047L9.00024 11.0065L13.0657 6.94047C13.1064 6.89982 13.1546 6.86758 13.2077 6.84558C13.2608 6.82358 13.3178 6.81226 13.3752 6.81226C13.4327 6.81226 13.4897 6.82358 13.5428 6.84558C13.5959 6.86758 13.6441 6.89982 13.6848 6.94047C13.7254 6.98112 13.7577 7.02937 13.7797 7.08248C13.8017 7.13559 13.813 7.19251 13.813 7.25C13.813 7.30748 13.8017 7.36441 13.7797 7.41752C13.7577 7.47063 13.7254 7.51888 13.6848 7.55953Z" fill="#276CEC"/>
</svg>
