<svg width="18" height="19" viewBox="0 0 18 19" fill="none" xmlns="http://www.w3.org/2000/svg">
<path d="M7.28834 9.43775L0.110429 0H3.14724L7.97853 6.47444C8.29141 6.88947 8.50307 7.22979 8.6135 7.49541C8.72393 7.74443 8.77914 8.02665 8.77914 8.34207H9.22086C9.22086 8.02665 9.27607 7.74443 9.3865 7.49541C9.49693 7.22979 9.70859 6.88947 10.0215 6.47444L14.8528 0H17.8896L10.7117 9.43775L18 19H14.9908L10.2423 12.7995C9.83742 12.2682 9.56135 11.8615 9.41411 11.5793C9.28528 11.2805 9.22086 10.9567 9.22086 10.6081H8.77914C8.77914 10.9567 8.70552 11.2805 8.55828 11.5793C8.42945 11.8615 8.16258 12.2682 7.75767 12.7995L3.0092 19H0L7.28834 9.43775Z" fill="#FF3850"/>
</svg>
