<svg width="18" height="18" viewBox="0 0 18 18" fill="none" xmlns="http://www.w3.org/2000/svg">
<path d="M9.67002 13.1034C9.77543 13.2089 9.83464 13.3519 9.83464 13.5011C9.83464 13.6502 9.77543 13.7932 9.67002 13.8987L8.97111 14.6018C8.232 15.3405 7.22973 15.7552 6.18479 15.7549C5.13985 15.7546 4.13784 15.3392 3.3992 14.6C2.66055 13.8609 2.24576 12.8587 2.24609 11.8137C2.24642 10.7688 2.66184 9.76678 3.40095 9.02813L5.09689 7.3322C5.80683 6.62169 6.76145 6.20935 7.76541 6.17955C8.76937 6.14975 9.74676 6.50474 10.4976 7.17188C10.553 7.22101 10.5982 7.28056 10.6306 7.34714C10.663 7.41373 10.6819 7.48604 10.6863 7.55995C10.6908 7.63386 10.6806 7.70792 10.6564 7.7779C10.6323 7.84789 10.5945 7.91242 10.5454 7.96782C10.4963 8.02322 10.4367 8.06841 10.3701 8.10079C10.3036 8.13318 10.2312 8.15213 10.1573 8.15657C10.0834 8.16101 10.0094 8.15085 9.93939 8.12667C9.86941 8.10249 9.80487 8.06476 9.74947 8.01563C9.21321 7.53941 8.51527 7.28604 7.7984 7.30735C7.08152 7.32865 6.39987 7.62302 5.89283 8.13024L4.19689 9.82407C3.66934 10.3516 3.37296 11.0671 3.37296 11.8132C3.37296 12.5593 3.66934 13.2748 4.19689 13.8024C4.72444 14.3299 5.43996 14.6263 6.18603 14.6263C6.9321 14.6263 7.64762 14.3299 8.17517 13.8024L8.87408 13.1034C8.92632 13.0511 8.98836 13.0097 9.05664 12.9813C9.12493 12.953 9.19813 12.9385 9.27205 12.9385C9.34597 12.9385 9.41917 12.953 9.48745 12.9813C9.55574 13.0097 9.61777 13.0511 9.67002 13.1034ZM14.5975 3.40032C13.8583 2.66276 12.8567 2.24854 11.8124 2.24854C10.7682 2.24854 9.76658 2.66276 9.02736 3.40032L8.32845 4.09993C8.223 4.20548 8.16379 4.34859 8.16386 4.4978C8.16392 4.647 8.22326 4.79006 8.32881 4.89552C8.43435 5.00097 8.57747 5.06018 8.72667 5.06011C8.87587 5.06005 9.01894 5.00071 9.12439 4.89516L9.8233 4.19626C10.3509 3.66871 11.0664 3.37233 11.8124 3.37233C12.5585 3.37233 13.274 3.66871 13.8016 4.19626C14.3291 4.72381 14.6255 5.43933 14.6255 6.1854C14.6255 6.93147 14.3291 7.64699 13.8016 8.17454L12.1056 9.87188C11.5983 10.3788 10.9165 10.6728 10.1997 10.6937C9.48278 10.7146 8.785 10.4609 8.249 9.98438C8.1936 9.93526 8.12906 9.89753 8.05908 9.87335C7.9891 9.84917 7.91504 9.83901 7.84113 9.84344C7.69186 9.85241 7.55227 9.92031 7.45306 10.0322C7.40394 10.0876 7.36621 10.1521 7.34203 10.2221C7.31785 10.2921 7.30769 10.3662 7.31213 10.4401C7.32109 10.5893 7.38899 10.7289 7.50088 10.8281C8.25153 11.4955 9.22882 11.8507 10.2328 11.8212C11.2367 11.7916 12.1915 11.3795 12.9016 10.6692L14.5975 8.97329C15.3355 8.23401 15.75 7.2321 15.75 6.18751C15.75 5.14292 15.3355 4.14101 14.5975 3.40173V3.40032Z" fill="#282828"/>
</svg>
