<svg width="21" height="20" viewBox="0 0 21 20" fill="none" xmlns="http://www.w3.org/2000/svg">
<path d="M13.625 8.75C13.625 8.91576 13.5592 9.07473 13.4419 9.19194C13.3247 9.30915 13.1658 9.375 13 9.375H8C7.83424 9.375 7.67527 9.30915 7.55806 9.19194C7.44085 9.07473 7.375 8.91576 7.375 8.75C7.375 8.58424 7.44085 8.42527 7.55806 8.30806C7.67527 8.19085 7.83424 8.125 8 8.125H13C13.1658 8.125 13.3247 8.19085 13.4419 8.30806C13.5592 8.42527 13.625 8.58424 13.625 8.75ZM13 10.625H8C7.83424 10.625 7.67527 10.6908 7.55806 10.8081C7.44085 10.9253 7.375 11.0842 7.375 11.25C7.375 11.4158 7.44085 11.5747 7.55806 11.6919C7.67527 11.8092 7.83424 11.875 8 11.875H13C13.1658 11.875 13.3247 11.8092 13.4419 11.6919C13.5592 11.5747 13.625 11.4158 13.625 11.25C13.625 11.0842 13.5592 10.9253 13.4419 10.8081C13.3247 10.6908 13.1658 10.625 13 10.625ZM18.625 9.6875C18.6227 11.7588 17.7989 13.7446 16.3343 15.2093C14.8696 16.6739 12.8838 17.4977 10.8125 17.5H4.22422C3.89966 17.4996 3.58852 17.3705 3.35902 17.141C3.12953 16.9115 3.00041 16.6003 3 16.2758V9.6875C3 7.6155 3.8231 5.62836 5.28823 4.16323C6.75336 2.6981 8.7405 1.875 10.8125 1.875C12.8845 1.875 14.8716 2.6981 16.3368 4.16323C17.8019 5.62836 18.625 7.6155 18.625 9.6875ZM17.375 9.6875C17.375 7.94702 16.6836 6.27782 15.4529 5.04711C14.2222 3.8164 12.553 3.125 10.8125 3.125C9.07202 3.125 7.40282 3.8164 6.17211 5.04711C4.9414 6.27782 4.25 7.94702 4.25 9.6875V16.25H10.8125C12.5524 16.2481 14.2205 15.5561 15.4508 14.3258C16.6811 13.0955 17.3731 11.4274 17.375 9.6875Z" fill="#40464D"/>
</svg>
