<svg width="69" height="69" viewBox="0 0 69 69" fill="none" xmlns="http://www.w3.org/2000/svg">
<path fill-rule="evenodd" clip-rule="evenodd" d="M7.29697 54.8359L7.3225 13.7243L38.4726 8.38595V60.159L7.29697 54.8359ZM56.3711 40.9582H39.7033V37.7265H56.3711V35.5738H39.7033V32.3473H56.3711V30.1945H39.7033V26.9629H56.3711V24.8101H39.7033V21.5785H56.3711V19.4257H39.7033L39.7339 14.343H59.91C60.9926 14.3021 61.2121 14.5169 61.1713 15.606V53.1229C61.1866 53.7723 60.9875 54.3297 59.91 54.207H39.7339L39.7033 48.4953H56.3711V46.3426H39.7033V43.1109H56.3711V40.9582ZM-0.0820312 61C-0.0820312 65.4183 3.49969 69 7.91797 69H60.9073C65.3297 69 68.9132 65.4118 68.9073 60.9893L68.8367 7.98935C68.8308 3.57523 65.2508 0 60.8367 0H7.91796C3.49968 0 -0.0820312 3.58172 -0.0820312 8V61Z" fill="#2B5797"/>
<path fill-rule="evenodd" clip-rule="evenodd" d="M28.9496 24.7181L26.4831 37.9822L23.9298 25.1374L20.4727 25.3368L18.0215 37.5169L15.9483 25.7152L12.8945 25.751L16.0708 42.8399L19.2777 43.0138L21.9127 31.2019L23.317 37.1896C23.7256 39.2248 24.1392 41.173 24.5171 43.249L28.1428 43.6223L32.3455 24.5903L28.9496 24.7181Z" fill="#2B5797"/>
</svg>
