<svg width="128" height="128" viewBox="0 0 128 128" fill="none" xmlns="http://www.w3.org/2000/svg">
<rect width="128" height="128" fill="#ECEFF2"/>
<path d="M86.1085 37.4846L82.9397 31.4352L51.1499 46.2309C45.6166 48.8063 43.2246 55.3841 45.811 60.9122L46.1155 61.5629L87.5848 41.4986L95.8605 57.4879C102.54 70.3939 97.4255 86.2707 84.4682 92.8503L63.8268 103.332L53.5937 114.94L51.086 109.801L38.8792 116L31.7415 101.944L44.1715 95.6319L41.2727 89.6915L55.7703 89.7421L77.3305 78.7941C82.4822 76.1781 84.5159 69.8656 81.86 64.7343L80.6377 62.3728L38.6047 82.7098L31.5319 67.5929C25.2506 54.1675 31.0599 38.1928 44.4979 31.9385L75.6168 17.455L72.2356 11L99.8201 13.5383L86.1085 37.4846Z" fill="#B3BECD"/>
</svg>
