<svg width="68" height="68" viewBox="0 0 68 68" fill="none" xmlns="http://www.w3.org/2000/svg">
<g clip-path="url(#clip0_477_295)" filter="url(#filter0_d_477_295)">
<path d="M58.8375 0H9.16274C6.5714 0 4.4707 2.1007 4.4707 4.69204V54.3668C4.4707 56.9581 6.5714 59.0588 9.16274 59.0588H58.8375C61.4288 59.0588 63.5295 56.9581 63.5295 54.3668V4.69204C63.5295 2.1007 61.4288 0 58.8375 0Z" fill="#E31E24"/>
<path fill-rule="evenodd" clip-rule="evenodd" d="M32.9273 15.5017C32.9273 15.5017 32.7474 16.4844 32.3737 18.1453C32 19.8062 31.6955 20.4706 31.6955 20.4706C31.6955 20.4706 30.6574 17.7163 30.4637 14.3945C30.2837 11.0865 30.2837 9.74396 30.9481 9.06576C31.6263 8.37372 32.609 10.2284 32.8443 11.0312C33.0934 11.8339 33.3979 13.6056 33.3979 13.6056C33.3979 13.6056 33.8132 11.7232 33.6471 10.0485C33.4671 8.37372 31.0727 8.37372 31.0727 8.37372C31.0727 8.37372 28.1246 8.38756 28.1938 10.6021C28.2491 12.8166 28.0139 13.6056 28.6782 17.3426C29.1488 19.9723 29.6886 22.3668 29.9654 23.5571C29.9654 23.5709 29.9792 23.654 30.0208 23.8062C30.1038 24.1523 30.1453 24.346 30.1453 24.346C30.1453 24.346 28.4291 28.5121 24.4983 36.3599C20.5675 44.2076 17.2042 48.4429 15.9723 49.7301C14.7405 51.0173 11.8616 52.8581 12.5398 51.0727C13.218 49.3011 15.1142 46.7128 16.7059 45.4256C18.2976 44.1384 19.4602 43.2111 19.4602 43.2111C19.4602 43.2111 19.9446 42.4775 18.6575 42.962C17.3703 43.4464 14.5052 45.2872 12.5813 47.6263C10.6713 49.9516 10.2561 50.8235 11.1696 51.7924C12.0831 52.7613 13.6886 53.135 15.3357 52.2768C16.9966 51.4187 19.9308 48.4152 21.1626 46.2699C22.3945 44.1246 24.0415 41.3703 24.0415 41.3703C24.0415 41.3703 26.9204 40.1384 31.9585 39.1004C36.4844 38.1592 40.4568 37.4671 41.218 37.3426C42.7959 38.2145 44.4706 38.9066 46.3114 39.5294C51.1557 41.1903 51.7647 41.1211 53.5502 41.1903C55.3218 41.2457 56.2215 40.1523 56.2215 39.7232C56.2215 39.2941 55.8754 38.8651 55.8754 38.8651C55.8754 38.8651 55.5017 40.8305 48.8858 38.436C47.2664 37.8547 45.9239 37.3564 44.7751 36.8581C46.2422 36.7197 48.0831 36.5952 50.173 36.5952C55.4325 36.5952 56.2215 38.0623 55.8754 38.0623C56.8581 35.6125 52.6228 34.8097 49.1903 34.8097C46.8789 34.8097 43.7924 35.2249 42.0069 35.5017C39.9862 34.3114 38.3945 32.8443 36.1799 30.2699C34.3391 28.1246 33.0796 25.3841 32.2491 23.0173C32.8166 20.4844 33.3287 17.3011 32.8581 15.5017H32.9273ZM39.2249 36.0831C37.6332 36.3184 35.1696 36.7889 32.2491 37.6886C27.1004 39.2803 24.7613 40.2076 24.7613 40.2076C24.7613 40.2076 27.3356 35.6125 28.4429 33.3426C29.4533 31.2526 31.045 27.4602 31.2941 26.8651C31.917 28.0554 32.8305 29.5225 34.1453 31.1972C35.7786 33.2734 37.4395 34.8374 39.2249 36.0831Z" fill="#FEFEFE"/>
</g>
<defs>
<filter id="filter0_d_477_295" x="0" y="0" width="68" height="68" filterUnits="userSpaceOnUse" color-interpolation-filters="sRGB">
<feFlood flood-opacity="0" result="BackgroundImageFix"/>
<feColorMatrix in="SourceAlpha" type="matrix" values="0 0 0 0 0 0 0 0 0 0 0 0 0 0 0 0 0 0 127 0" result="hardAlpha"/>
<feOffset dy="4"/>
<feGaussianBlur stdDeviation="2"/>
<feComposite in2="hardAlpha" operator="out"/>
<feColorMatrix type="matrix" values="0 0 0 0 0 0 0 0 0 0 0 0 0 0 0 0 0 0 0.25 0"/>
<feBlend mode="normal" in2="BackgroundImageFix" result="effect1_dropShadow_477_295"/>
<feBlend mode="normal" in="SourceGraphic" in2="effect1_dropShadow_477_295" result="shape"/>
</filter>
<clipPath id="clip0_477_295">
<rect width="60" height="60" fill="white" transform="translate(4)"/>
</clipPath>
</defs>
</svg>
