<svg width="20" height="20" viewBox="0 0 20 20" fill="none" xmlns="http://www.w3.org/2000/svg">
<rect width="20" height="20" rx="10" fill="#328D3A"/>
<path d="M14.9301 6.5491C14.884 6.44121 14.8164 6.34319 14.7312 6.26065C14.6461 6.17802 14.545 6.11247 14.4337 6.06775C14.3224 6.02302 14.2032 6 14.0827 6C13.9623 6 13.843 6.02302 13.7317 6.06775C13.6205 6.11247 13.5194 6.17802 13.4342 6.26065L7.66677 11.8541L5.56554 9.81559C5.39356 9.64883 5.1603 9.55514 4.91707 9.55514C4.67385 9.55514 4.44059 9.64883 4.2686 9.81559C4.09662 9.98235 4 10.2085 4 10.4444C4 10.6802 4.09662 10.9064 4.2686 11.0731L7.0183 13.7393C7.10342 13.822 7.20451 13.8875 7.31578 13.9323C7.42705 13.977 7.54632 14 7.66677 14C7.78722 14 7.90649 13.977 8.01776 13.9323C8.12902 13.8875 8.23011 13.822 8.31524 13.7393L14.7312 7.51821C14.8164 7.43567 14.884 7.33766 14.9301 7.22976C14.9763 7.12187 15 7.00623 15 6.88943C15 6.77264 14.9763 6.65699 14.9301 6.5491Z" fill="white"/>
</svg>
