<svg width="20" height="20" viewBox="0 0 20 20" fill="none" xmlns="http://www.w3.org/2000/svg">
<path d="M18.125 10V16.25C18.125 17.0788 17.7958 17.8737 17.2097 18.4597C16.6237 19.0458 15.8288 19.375 15 19.375H10.625C10.4592 19.375 10.3003 19.3092 10.1831 19.1919C10.0658 19.0747 10 18.9158 10 18.75C10 18.5842 10.0658 18.4253 10.1831 18.3081C10.3003 18.1908 10.4592 18.125 10.625 18.125H15C15.4973 18.125 15.9742 17.9275 16.3258 17.5758C16.6775 17.2242 16.875 16.7473 16.875 16.25H15C14.5027 16.25 14.0258 16.0525 13.6742 15.7008C13.3225 15.3492 13.125 14.8723 13.125 14.375V11.25C13.125 10.7527 13.3225 10.2758 13.6742 9.92418C14.0258 9.57255 14.5027 9.375 15 9.375H16.8477C16.7294 8.07574 16.2439 6.83694 15.4478 5.80332C14.6518 4.76969 13.578 3.98391 12.352 3.53776C11.1261 3.09161 9.79844 3.0035 8.52425 3.28373C7.25007 3.56396 6.08192 4.20095 5.15625 5.12031C4.0052 6.25618 3.29525 7.76413 3.15313 9.375H5C5.49728 9.375 5.97419 9.57255 6.32583 9.92418C6.67746 10.2758 6.875 10.7527 6.875 11.25V14.375C6.875 14.8723 6.67746 15.3492 6.32583 15.7008C5.97419 16.0525 5.49728 16.25 5 16.25H3.75C3.25272 16.25 2.77581 16.0525 2.42417 15.7008C2.07254 15.3492 1.875 14.8723 1.875 14.375V10C1.87675 8.39055 2.35596 6.81779 3.25196 5.4808C4.14796 4.14382 5.42047 3.10271 6.90843 2.48926C8.39639 1.87581 10.0329 1.71759 11.6108 2.03464C13.1887 2.35168 14.6371 3.12973 15.7727 4.27031C16.5224 5.02368 17.1161 5.91757 17.5197 6.90077C17.9234 7.88398 18.1291 8.93717 18.125 10Z" fill="#40464D"/>
</svg>
