<svg width="364" height="202" viewBox="0 0 364 202" fill="none" xmlns="http://www.w3.org/2000/svg">
<g clip-path="url(#clip0_820_1302)">
<path d="M307.176 94.1886L305.509 92.7666C303.544 92.1444 293.967 89.777 286.096 99.0447L286.379 98.9801L286.339 106.179L293.352 104.474L293.311 111.682L300.324 109.985L300.284 117.192L307.297 115.488C309.6 113.445 311.178 110.712 311.795 107.698C312.326 105.24 312.177 102.683 311.363 100.303C310.55 97.9225 309.102 95.8088 307.176 94.1886Z" fill="#C5DBFF"/>
<path d="M229.554 140.641C231.274 142.176 233.215 143.445 235.313 144.406C241.652 147.323 248.68 148.42 255.608 147.573C260.201 147.075 264.543 145.224 268.081 142.257L268.72 141.683L269.311 141.061C269.715 140.665 270.071 140.204 270.451 139.768C271.195 138.879 271.907 137.966 272.57 137.021C273.912 135.142 275.061 133.134 276 131.025C276.918 128.905 277.625 126.699 278.111 124.44C278.576 122.167 278.927 119.872 279.163 117.564C279.43 115.245 279.68 112.91 280.15 110.591C281.027 105.898 283.224 101.551 286.483 98.0589C287.286 97.1835 288.157 96.373 289.088 95.6349C290.033 94.9166 291.037 94.2788 292.089 93.728C294.217 92.6336 296.541 91.9728 298.927 91.7841C301.312 91.5955 303.712 91.8827 305.986 92.6292L305.678 93.1463L280.603 71.6616H280.667C277.295 70.7561 273.78 70.5065 270.314 70.9263C267.712 71.1947 265.189 71.9756 262.891 73.2238C260.594 74.472 258.566 76.1627 256.926 78.1983C255.809 79.5212 254.936 81.0312 254.346 82.6584C253.206 85.9605 252.414 89.3727 251.984 92.8392C251.475 96.3056 251.07 99.7961 250.52 103.262C250.04 106.75 249.228 110.183 248.093 113.516C247.503 115.185 246.71 116.775 245.731 118.251C244.721 119.712 243.481 121 242.059 122.065C239.243 124.243 235.889 125.62 232.352 126.048C232.338 126.052 232.323 126.053 232.308 126.051C232.293 126.048 232.279 126.042 232.267 126.033C232.255 126.024 232.245 126.012 232.238 125.999C232.231 125.985 232.228 125.97 232.228 125.955C232.228 125.94 232.231 125.925 232.238 125.912C232.245 125.898 232.255 125.886 232.267 125.877C232.279 125.868 232.293 125.862 232.308 125.86C232.323 125.857 232.338 125.858 232.352 125.862C239.26 124.925 245.699 120.166 247.721 113.395C248.858 110.085 249.671 106.673 250.148 103.206C250.682 99.7396 251.07 96.2571 251.572 92.7746C251.987 89.2735 252.77 85.8258 253.909 82.4888C254.513 80.8085 255.412 79.249 256.562 77.8832C257.689 76.5072 258.988 75.2823 260.429 74.2391C263.341 72.176 266.732 70.891 270.281 70.5061C273.806 70.083 277.379 70.3576 280.797 71.3141H280.861L306.083 92.6049C306.111 92.6335 306.134 92.6674 306.15 92.7049C306.166 92.7423 306.174 92.7825 306.174 92.8231C306.174 92.8637 306.166 92.9038 306.15 92.9413C306.134 92.9787 306.111 93.0127 306.083 93.0412C306.044 93.0876 305.993 93.121 305.935 93.1369C305.877 93.1528 305.816 93.1505 305.759 93.1301C303.57 92.4365 301.265 92.1822 298.977 92.3819C296.69 92.5816 294.464 93.2313 292.429 94.2936C288.384 96.4268 285.246 100.135 283.118 104.175C282.104 106.245 281.369 108.441 280.934 110.704C280.481 112.967 280.239 115.285 279.972 117.604C279.741 119.942 279.392 122.267 278.928 124.569C278.437 126.883 277.719 129.143 276.785 131.316C275.825 133.48 274.652 135.542 273.282 137.473C272.611 138.443 271.883 139.38 271.131 140.285C270.742 140.729 270.378 141.19 269.958 141.618L269.335 142.273L268.672 142.871C266.883 144.461 264.826 145.722 262.597 146.595C260.393 147.484 258.081 148.079 255.721 148.365C251.014 148.927 246.243 148.604 241.655 147.412C239.359 146.832 237.128 146.019 234.997 144.988C232.85 143.974 230.87 142.639 229.125 141.028C229.069 140.97 229.037 140.892 229.037 140.81C229.037 140.729 229.069 140.651 229.125 140.592C229.182 140.536 229.259 140.505 229.339 140.505C229.419 140.505 229.496 140.536 229.554 140.592V140.641Z" fill="#15181A"/>
<path d="M266.245 75.4833C269.78 78.0446 273.185 80.7595 276.607 83.4501L281.751 87.4901L286.863 91.5301C286.928 91.5805 286.969 91.6543 286.979 91.7354C286.989 91.8165 286.966 91.8981 286.916 91.9624C286.866 92.0267 286.792 92.0684 286.711 92.0782C286.629 92.0881 286.548 92.0653 286.483 92.0149L281.314 87.9749L276.17 83.9349C272.74 81.2524 269.294 78.586 265.97 75.7661C265.949 75.7457 265.932 75.7212 265.92 75.6942C265.908 75.6671 265.902 75.6379 265.902 75.6085C265.902 75.5791 265.908 75.5499 265.92 75.5228C265.932 75.4958 265.949 75.4713 265.97 75.4509C266.012 75.4237 266.063 75.4121 266.113 75.418C266.163 75.4239 266.21 75.447 266.245 75.4833ZM282.56 95.6267C280.781 94.3339 279.106 92.9118 277.399 91.5301L272.295 87.3689L262.079 79.0304C262.058 79.01 262.041 78.9856 262.029 78.9585C262.018 78.9314 262.012 78.9023 262.012 78.8728C262.012 78.8434 262.018 78.8142 262.029 78.7872C262.041 78.7601 262.058 78.7356 262.079 78.7153C262.121 78.6766 262.176 78.6552 262.233 78.6552C262.29 78.6552 262.345 78.6766 262.386 78.7153L272.708 86.9003L277.861 91.0049C279.567 92.3785 281.314 93.7117 282.957 95.1742C283.021 95.2257 283.062 95.3005 283.071 95.3823C283.08 95.4642 283.057 95.5463 283.005 95.6105C282.954 95.6748 282.879 95.7161 282.797 95.7252C282.715 95.7342 282.633 95.7105 282.568 95.659L282.56 95.6267ZM252.057 114.914C255.559 117.208 258.892 119.762 262.289 122.186C265.687 124.61 269.068 127.09 272.433 129.571C272.499 129.619 272.544 129.692 272.557 129.773C272.57 129.854 272.55 129.937 272.502 130.003C272.453 130.069 272.381 130.114 272.299 130.127C272.218 130.14 272.135 130.12 272.069 130.072C268.672 127.648 265.298 125.167 261.917 122.695C258.536 120.222 255.131 117.847 251.863 115.196C251.833 115.166 251.817 115.126 251.817 115.083C251.817 115.041 251.833 115 251.863 114.97C251.885 114.941 251.916 114.92 251.951 114.91C251.985 114.9 252.023 114.901 252.057 114.914ZM268.615 135.744L258.682 128.278L253.723 124.545C252.105 123.293 250.399 122.073 248.797 120.756C248.763 120.73 248.74 120.692 248.734 120.649C248.728 120.607 248.739 120.564 248.765 120.529C248.791 120.495 248.829 120.472 248.871 120.466C248.914 120.46 248.957 120.471 248.991 120.497C250.714 121.652 252.356 122.921 254.023 124.141L259.005 127.85L268.979 135.251C269.012 135.275 269.041 135.305 269.062 135.341C269.084 135.376 269.098 135.415 269.104 135.455C269.11 135.496 269.108 135.538 269.097 135.578C269.087 135.617 269.069 135.655 269.044 135.687C268.994 135.751 268.921 135.793 268.841 135.804C268.761 135.814 268.679 135.793 268.615 135.744ZM254.144 107.69L259.377 111.504L264.587 115.358C268.041 117.944 271.575 120.424 274.9 123.188C274.956 123.245 274.987 123.322 274.987 123.402C274.987 123.482 274.956 123.559 274.9 123.616C274.85 123.674 274.78 123.711 274.704 123.722C274.628 123.732 274.551 123.715 274.487 123.672C270.912 121.248 267.539 118.55 264.093 115.948L258.949 112.021L253.828 108.062C253.804 108.044 253.784 108.021 253.768 107.994C253.753 107.968 253.743 107.939 253.739 107.909C253.736 107.879 253.738 107.848 253.746 107.819C253.755 107.79 253.769 107.762 253.788 107.739C253.804 107.707 253.827 107.68 253.856 107.66C253.885 107.639 253.918 107.626 253.953 107.621C253.988 107.616 254.024 107.62 254.057 107.632C254.09 107.644 254.12 107.664 254.144 107.69Z" fill="#15181A"/>
<path d="M96.4929 71.5807C67.6237 59.9375 40.3722 87.159 52.0041 116.021C53.5462 119.826 55.838 123.283 58.7435 126.187C61.649 129.091 65.109 131.382 68.9179 132.924C97.7872 144.559 125.039 117.338 113.407 88.4841C111.866 84.6779 109.574 81.22 106.669 78.3162C103.763 75.4124 100.303 73.1218 96.4929 71.5807ZM92.0602 103.335L102.576 113.839C102.72 113.983 102.835 114.153 102.913 114.341C102.992 114.529 103.032 114.73 103.032 114.934C103.032 115.138 102.992 115.339 102.913 115.527C102.835 115.715 102.72 115.885 102.576 116.029L96.5253 122.073C96.3817 122.217 96.2109 122.332 96.0228 122.41C95.8347 122.488 95.633 122.528 95.4293 122.528C95.2255 122.528 95.0238 122.488 94.8357 122.41C94.6476 122.332 94.4768 122.217 94.3332 122.073L83.8177 111.569C83.6741 111.424 83.5033 111.31 83.3152 111.232C83.1271 111.153 82.9254 111.113 82.7216 111.113C82.5179 111.113 82.3161 111.153 82.128 111.232C81.9399 111.31 81.7692 111.424 81.6256 111.569L71.11 122.073C70.9664 122.217 70.7956 122.332 70.6075 122.41C70.4194 122.488 70.2177 122.528 70.014 122.528C69.8102 122.528 69.6085 122.488 69.4204 122.41C69.2323 122.332 69.0615 122.217 68.9179 122.073L62.8593 116.029C62.7148 115.885 62.6001 115.715 62.5218 115.527C62.4435 115.339 62.4032 115.138 62.4032 114.934C62.4032 114.73 62.4435 114.529 62.5218 114.341C62.6001 114.153 62.7148 113.983 62.8593 113.839L73.3749 103.335C73.5194 103.192 73.6341 103.021 73.7124 102.833C73.7907 102.645 73.831 102.444 73.831 102.24C73.831 102.037 73.7907 101.835 73.7124 101.647C73.6341 101.459 73.5194 101.289 73.3749 101.145L62.8593 90.6011C62.7148 90.4576 62.6001 90.2871 62.5218 90.0992C62.4435 89.9113 62.4032 89.7097 62.4032 89.5062C62.4032 89.3027 62.4435 89.1012 62.5218 88.9133C62.6001 88.7254 62.7148 88.5548 62.8593 88.4114L68.9179 82.3675C69.0615 82.2232 69.2323 82.1086 69.4204 82.0304C69.6085 81.9522 69.8102 81.9119 70.014 81.9119C70.2177 81.9119 70.4194 81.9522 70.6075 82.0304C70.7956 82.1086 70.9664 82.2232 71.11 82.3675L81.6256 92.8715C81.7692 93.0159 81.9399 93.1305 82.128 93.2087C82.3161 93.2869 82.5179 93.3272 82.7216 93.3272C82.9254 93.3272 83.1271 93.2869 83.3152 93.2087C83.5033 93.1305 83.6741 93.0159 83.8177 92.8715L94.3332 82.3675C94.4768 82.2232 94.6476 82.1086 94.8357 82.0304C95.0238 81.9522 95.2255 81.9119 95.4293 81.9119C95.633 81.9119 95.8347 81.9522 96.0228 82.0304C96.2109 82.1086 96.3817 82.2232 96.5253 82.3675L102.576 88.4114C102.72 88.5548 102.835 88.7254 102.913 88.9133C102.992 89.1012 103.032 89.3027 103.032 89.5062C103.032 89.7097 102.992 89.9113 102.913 90.0992C102.835 90.2871 102.72 90.4576 102.576 90.6011L92.0602 101.145C91.9157 101.289 91.801 101.459 91.7227 101.647C91.6444 101.835 91.6041 102.037 91.6041 102.24C91.6041 102.444 91.6444 102.645 91.7227 102.833C91.801 103.021 91.9157 103.192 92.0602 103.335Z" fill="#FF5F4A"/>
<path d="M80.0798 137.99C83.3653 137.948 86.6302 137.465 89.7864 136.552C92.8937 135.569 95.8519 134.166 98.5791 132.383C101.26 130.534 103.683 128.339 105.786 125.854C109.935 120.781 112.493 114.597 113.139 108.078C113.37 104.837 113.199 101.581 112.629 98.382C111.974 95.1998 110.886 92.1223 109.394 89.2355C106.311 83.4551 101.582 78.7173 95.8046 75.6207C92.9167 74.1109 89.836 73.0018 86.6479 72.324C83.4481 71.7342 80.1845 71.5685 76.9413 71.8311C73.6946 72.1834 70.5109 72.9744 67.4773 74.1824C66.725 74.4895 66.0051 74.8692 65.269 75.2167C64.905 75.4025 64.5167 75.5399 64.1689 75.7499L63.1093 76.3721C61.6744 77.157 60.3056 78.0569 59.0163 79.0627C56.5189 81.1831 54.3179 83.629 52.4724 86.3347C50.6957 89.0955 49.3051 92.0858 48.339 95.2227C47.4448 98.377 46.9956 101.64 47.0043 104.919C47.0043 104.953 46.9974 104.988 46.9838 105.02C46.9703 105.051 46.9505 105.08 46.9256 105.104C46.9007 105.129 46.8712 105.147 46.8389 105.16C46.8066 105.173 46.772 105.178 46.7374 105.177C46.668 105.175 46.6021 105.146 46.5538 105.096C46.5055 105.047 46.4785 104.98 46.4785 104.911C46.5765 101.609 47.0984 98.3345 48.0316 95.1662C49.0407 92.0234 50.4749 89.0331 52.2944 86.2782C54.1754 83.5732 56.4057 81.1281 58.9273 79.0062C60.2046 77.9674 61.5358 76.9965 62.9151 76.0974L63.902 75.3863C64.2498 75.1682 64.63 75.0066 65.0021 74.8207C65.7463 74.4652 66.4823 74.0774 67.2427 73.7623C70.3176 72.5222 73.5482 71.7093 76.8442 71.3463C80.1426 71.0615 83.4643 71.2191 86.7207 71.815C89.9567 72.4946 93.0839 73.6147 96.0149 75.1439C101.904 78.2778 106.734 83.0824 109.895 88.9527C111.429 91.8866 112.555 95.0153 113.244 98.2527C113.867 101.511 114.02 104.841 113.697 108.143C113.338 111.439 112.521 114.67 111.271 117.742C109.962 120.786 108.248 123.64 106.175 126.226C104.031 128.752 101.561 130.982 98.8298 132.859C96.0493 134.663 93.0371 136.081 89.8754 137.077C86.6892 137.992 83.3946 138.475 80.0798 138.515C80.0458 138.516 80.0119 138.511 79.9801 138.499C79.9483 138.487 79.9191 138.469 79.8943 138.445C79.8695 138.422 79.8496 138.394 79.8356 138.363C79.8216 138.332 79.8139 138.299 79.8128 138.265C79.8127 138.195 79.8395 138.127 79.8876 138.076C79.9357 138.025 80.0016 137.994 80.0717 137.99H80.0798ZM173.814 51.0736C175.763 52.4311 177.672 53.8451 179.597 55.251C181.523 56.6569 183.423 58.0709 185.324 59.493C189.134 62.3371 192.952 65.149 196.738 68.0578C196.784 68.1044 196.812 68.166 196.816 68.2314C196.821 68.2968 196.802 68.3618 196.763 68.4145C196.724 68.4672 196.667 68.5042 196.603 68.5188C196.539 68.5334 196.472 68.5246 196.414 68.4941C192.564 65.6984 188.754 62.8381 184.928 60.0263C183.019 58.6123 181.102 57.1983 179.217 55.7519C177.332 54.3056 175.424 52.8916 173.555 51.4211C173.532 51.4036 173.513 51.3818 173.498 51.3569C173.484 51.332 173.475 51.3045 173.471 51.276C173.467 51.2474 173.469 51.2184 173.476 51.1906C173.484 51.1628 173.497 51.1368 173.515 51.114C173.551 51.0717 173.601 51.0442 173.656 51.0367C173.712 51.0293 173.768 51.0424 173.814 51.0736ZM183.852 39.2768C188.083 42.1533 192.2 45.1671 196.301 48.2133C200.402 51.2595 204.487 54.3137 208.548 57.4164C208.59 57.4526 208.617 57.503 208.625 57.5582C208.632 57.6133 208.619 57.6693 208.588 57.7154C208.548 57.7512 208.496 57.7709 208.442 57.7709C208.389 57.7709 208.337 57.7512 208.297 57.7154C204.123 54.7904 199.979 51.8197 195.864 48.8031C191.706 45.7974 187.662 42.7674 183.618 39.5919C183.583 39.5559 183.564 39.5082 183.564 39.4586C183.564 39.409 183.583 39.3613 183.618 39.3253C183.646 39.2922 183.684 39.2694 183.726 39.2606C183.769 39.2518 183.813 39.2575 183.852 39.2768ZM203.84 60.8989C199.795 57.9659 195.751 54.9843 191.787 52.0109L185.777 47.5346C183.771 46.0559 181.773 44.5531 179.88 42.9128C179.847 42.8782 179.828 42.8318 179.828 42.7835C179.828 42.7353 179.847 42.6889 179.88 42.6543C179.913 42.6259 179.955 42.6102 179.998 42.6102C180.041 42.6102 180.083 42.6259 180.115 42.6543C182.234 43.9875 184.24 45.4742 186.238 46.969L192.24 51.4453C196.285 54.4268 200.256 57.4083 204.22 60.4464C204.253 60.4703 204.28 60.5005 204.301 60.5352C204.321 60.5699 204.335 60.6084 204.34 60.6485C204.345 60.6885 204.342 60.7292 204.331 60.768C204.32 60.8069 204.302 60.8432 204.277 60.8747C204.25 60.9051 204.217 60.93 204.18 60.9477C204.144 60.9654 204.104 60.9757 204.063 60.978C204.023 60.9802 203.982 60.9744 203.944 60.9608C203.905 60.9473 203.87 60.9262 203.84 60.8989Z" fill="#15181A"/>
<path d="M60.5862 90.3747L64.1938 86.6741L65.9976 84.8399L66.4506 84.3793C66.6135 84.1934 66.8079 84.0375 67.0249 83.9188C67.2546 83.8016 67.5058 83.7326 67.7631 83.7159C68.0204 83.6993 68.2785 83.7353 68.5214 83.8218C68.768 83.9131 68.9936 84.0532 69.1846 84.2339L69.6457 84.6864L70.5678 85.5913L72.4121 87.4093L76.0926 91.0292L79.773 94.6571C79.8785 94.7746 80.0075 94.8686 80.1518 94.9329C80.296 94.9973 80.4522 95.0305 80.6102 95.0305C80.7682 95.0305 80.9244 94.9973 81.0686 94.9329C81.2129 94.8686 81.3419 94.7746 81.4474 94.6571L83.2674 92.8229L90.5474 85.5025L91.4614 84.5894L91.9225 84.1208C92.1293 83.9247 92.3744 83.7734 92.6424 83.6764C92.9056 83.5841 93.1848 83.5466 93.463 83.566C93.7412 83.5855 94.0125 83.6615 94.2602 83.7895C94.4924 83.9201 94.7026 84.0865 94.883 84.2824L95.336 84.7349L98.9841 88.3951L100.812 90.2293C101.109 90.5357 101.302 90.9279 101.363 91.35C101.424 91.7721 101.35 92.2027 101.152 92.5805C101.024 92.8097 100.86 93.017 100.667 93.1946L97.067 96.7983L93.4028 100.442L91.5747 102.268L90.6606 103.181C90.5095 103.319 90.3663 103.464 90.2319 103.618C90.129 103.732 90.0517 103.867 90.0054 104.014C89.9247 104.313 89.9654 104.633 90.1187 104.903C90.1602 104.967 90.2091 105.027 90.2643 105.08L90.4746 105.298L90.9357 105.759L92.7557 107.585L96.4118 111.245L100.06 114.906L100.513 115.366C100.686 115.524 100.848 115.694 100.998 115.875C101.24 116.211 101.37 116.613 101.37 117.027C101.37 117.44 101.24 117.843 100.998 118.178C100.848 118.363 100.686 118.539 100.513 118.703L99.6069 119.584L95.9508 123.228L95.0286 124.141C94.872 124.313 94.7016 124.473 94.519 124.618C94.305 124.786 94.0564 124.904 93.791 124.965C93.5273 125.025 93.2541 125.03 92.9883 124.98C92.7225 124.93 92.4699 124.826 92.2461 124.674C92.137 124.596 92.0343 124.51 91.9387 124.416L91.7122 124.189L91.2592 123.729L83.9792 116.457L82.1592 114.623L81.6982 114.17L81.4717 113.936C81.4105 113.88 81.3457 113.829 81.2775 113.782C81.1413 113.691 80.9874 113.629 80.8257 113.602C80.664 113.574 80.4982 113.58 80.3392 113.621C79.9995 113.685 79.7973 113.912 79.4656 114.251L78.5516 115.164L76.7154 116.982L69.4354 124.254C69.2694 124.436 69.0788 124.594 68.8692 124.723C68.6404 124.852 68.3868 124.932 68.125 124.957C67.8644 124.983 67.6012 124.954 67.352 124.874C67.1029 124.793 66.8731 124.662 66.6771 124.488L64.8409 122.638L61.2009 118.97C60.8447 118.666 60.5171 118.331 60.2222 117.968C60.0958 117.747 60.0169 117.502 59.9904 117.249C59.9639 116.996 59.9905 116.74 60.0685 116.497C60.1421 116.254 60.2693 116.031 60.4406 115.843C60.6104 115.657 60.7479 115.528 60.9097 115.374L61.8238 114.461L65.5204 110.841L69.1927 107.205L71.0289 105.387C71.1761 105.267 71.2966 105.117 71.3828 104.947C71.469 104.778 71.519 104.592 71.5297 104.402C71.5403 104.212 71.5114 104.022 71.4447 103.844C71.378 103.666 71.2749 103.504 71.1422 103.367C71.1068 103.332 71.0869 103.284 71.0869 103.234C71.0869 103.184 71.1068 103.136 71.1422 103.101C71.1775 103.065 71.2256 103.045 71.2756 103.045C71.3257 103.045 71.3737 103.065 71.4091 103.101C71.5814 103.271 71.7158 103.475 71.8036 103.701C71.8914 103.926 71.9307 104.168 71.9187 104.41C71.9081 104.65 71.8489 104.885 71.7447 105.102C71.6404 105.319 71.4932 105.512 71.312 105.67L69.492 107.504L65.852 111.173L62.2201 114.849L61.3061 115.762C61.1605 115.916 60.9906 116.077 60.8693 116.215C60.7508 116.348 60.6625 116.505 60.6104 116.675C60.5596 116.844 60.5441 117.022 60.565 117.197C60.5859 117.372 60.6426 117.541 60.7318 117.693C60.9772 118.008 61.2477 118.303 61.5406 118.574L65.213 122.21L67.0411 124.012C67.1681 124.124 67.3172 124.208 67.4787 124.26C67.6403 124.311 67.8108 124.329 67.9794 124.311C68.147 124.286 68.3087 124.232 68.4566 124.149C68.6147 124.05 68.7566 123.928 68.8773 123.785L76.1573 116.513L77.9773 114.679L78.8913 113.766C79.0531 113.613 79.1663 113.475 79.3847 113.29C79.5986 113.126 79.8435 113.008 80.1046 112.942C80.3674 112.856 80.6458 112.827 80.9208 112.857C81.1958 112.888 81.4609 112.978 81.6982 113.12C81.8075 113.198 81.9103 113.284 82.0055 113.378L82.232 113.605L82.6931 114.057L84.5212 115.883L91.8497 123.155L92.3027 123.616L92.5373 123.842C92.5931 123.903 92.6555 123.957 92.7233 124.004C92.8568 124.094 93.0078 124.156 93.1665 124.185C93.3253 124.214 93.4884 124.21 93.6454 124.173C93.9771 124.101 94.1631 123.899 94.4543 123.559L95.3684 122.646L99.0165 118.986L99.9305 118.073C100.07 117.942 100.199 117.802 100.319 117.653C100.412 117.526 100.475 117.379 100.505 117.225C100.532 117.073 100.528 116.918 100.493 116.768C100.458 116.618 100.394 116.476 100.303 116.352C100.177 116.203 100.042 116.063 99.8982 115.932L99.4371 115.479L95.7809 111.827L92.1166 108.183L90.2805 106.357L89.8275 105.904L89.5929 105.662C89.496 105.565 89.4117 105.457 89.3421 105.339C89.1939 105.1 89.0978 104.833 89.0602 104.554C89.0226 104.276 89.0442 103.992 89.1238 103.723C89.2052 103.456 89.3401 103.209 89.5201 102.996C89.7142 102.777 89.8356 102.672 89.9974 102.503L90.9114 101.59L92.7395 99.7637L96.3876 96.1034L100.036 92.4432C100.157 92.3501 100.257 92.2329 100.33 92.099C100.403 91.9651 100.448 91.8174 100.461 91.6654C100.474 91.5134 100.455 91.3604 100.405 91.2161C100.356 91.0717 100.277 90.9393 100.173 90.8272L98.3451 89.0092L94.6808 85.3651C94.437 85.0711 94.1662 84.8006 93.8719 84.5571C93.7411 84.4879 93.597 84.4471 93.4493 84.4373C93.3015 84.4276 93.1534 84.4491 93.0145 84.5005C92.875 84.5471 92.7479 84.6244 92.6424 84.7268L92.1894 85.1712L91.2754 86.0842L83.9469 93.3562L82.1107 95.1742C81.9236 95.3737 81.6983 95.5337 81.4482 95.6448C81.1982 95.7558 80.9283 95.8156 80.6547 95.8206C80.3791 95.8222 80.1062 95.7671 79.8529 95.6586C79.5996 95.5502 79.3714 95.3908 79.1825 95.1904L75.5587 91.514L71.9268 87.8295L70.1149 85.9873L69.2008 85.0742L68.7559 84.6137C68.6374 84.4907 68.494 84.3943 68.3353 84.3309C68.1754 84.2631 68.0035 84.2281 67.8298 84.2281C67.656 84.2281 67.4841 84.2631 67.3242 84.3309C66.9938 84.5636 66.6924 84.8348 66.4263 85.1389L64.574 86.9407L60.8693 90.5444C60.8349 90.5776 60.7888 90.5958 60.741 90.5951C60.6932 90.5943 60.6477 90.5746 60.6145 90.5403C60.5812 90.506 60.563 90.46 60.5637 90.4122C60.5645 90.3645 60.5842 90.319 60.6185 90.2858L60.5862 90.3747Z" fill="#15181A"/>
<path d="M222.979 154.538L218.23 162.755H227.735L222.979 154.538Z" fill="#0055FF"/>
<path d="M204.494 154.538L199.746 162.755H209.242L204.494 154.538Z" fill="#0055FF"/>
<path d="M213.741 138.386L208.984 146.612H218.489L213.741 138.386Z" fill="#0055FF"/>
<path d="M44.4891 120.764H34.9442C34.8899 120.765 34.8364 120.751 34.7894 120.724C34.7424 120.697 34.7036 120.658 34.6772 120.61C34.6494 120.564 34.6348 120.511 34.6348 120.457C34.6348 120.403 34.6494 120.35 34.6772 120.303L39.4254 112.086C39.4538 112.041 39.4932 112.004 39.5399 111.978C39.5866 111.952 39.639 111.939 39.6924 111.939C39.7457 111.939 39.7981 111.952 39.8448 111.978C39.8915 112.004 39.9309 112.041 39.9593 112.086L44.7156 120.303C44.7397 120.351 44.7523 120.403 44.7523 120.457C44.7523 120.51 44.7397 120.563 44.7156 120.61C44.6918 120.651 44.6591 120.686 44.6198 120.713C44.5806 120.739 44.5359 120.757 44.4891 120.764ZM35.5185 120.15H43.9148L39.6924 112.878L35.5185 120.15ZM264.159 56.3096H254.655C254.6 56.3105 254.547 56.2968 254.5 56.2697C254.453 56.2427 254.414 56.2034 254.388 56.156C254.36 56.1112 254.345 56.0594 254.345 56.0066C254.345 55.9537 254.36 55.9019 254.388 55.8571L259.136 47.672C259.165 47.6287 259.205 47.5933 259.252 47.5688C259.298 47.5443 259.35 47.5315 259.403 47.5315C259.455 47.5315 259.507 47.5443 259.554 47.5688C259.6 47.5933 259.64 47.6287 259.67 47.672L264.418 55.8975C264.446 55.9423 264.461 55.9941 264.461 56.047C264.461 56.0998 264.446 56.1516 264.418 56.1964C264.388 56.2357 264.348 56.2667 264.303 56.2865C264.258 56.3063 264.208 56.3142 264.159 56.3096ZM255.188 55.7036H263.625L259.403 48.4316L255.188 55.7036ZM100.157 64.3492C101.137 62.3948 102.242 60.5055 103.465 58.6932C103.527 58.6076 103.619 58.549 103.723 58.5294C103.827 58.5099 103.934 58.5309 104.023 58.5881C104.112 58.6474 104.174 58.7392 104.195 58.8436C104.216 58.948 104.195 59.0566 104.137 59.1456C102.896 60.9015 101.772 62.7369 100.772 64.64C100.729 64.7214 100.655 64.7824 100.567 64.8096C100.479 64.8369 100.384 64.8282 100.302 64.7855C100.23 64.7418 100.176 64.6739 100.149 64.594C100.123 64.5141 100.125 64.4273 100.157 64.3492ZM107.493 53.6108C108.957 51.9968 110.527 50.4824 112.193 49.078C112.24 49.038 112.295 49.0077 112.354 48.9889C112.413 48.9701 112.475 48.9631 112.536 48.9684C112.598 48.9736 112.658 48.991 112.713 49.0195C112.768 49.048 112.817 49.0871 112.856 49.1345C112.935 49.2306 112.973 49.3536 112.963 49.4773C112.952 49.601 112.894 49.7158 112.8 49.7971C111.16 51.1674 109.611 52.6438 108.165 54.2168C108.081 54.2883 107.973 54.3266 107.863 54.3246C107.753 54.3226 107.647 54.2805 107.566 54.2061C107.484 54.1317 107.433 54.0302 107.421 53.9206C107.409 53.811 107.438 53.7008 107.501 53.6108H107.493ZM117.443 45.248C119.279 44.0706 121.192 43.0179 123.17 42.0968C123.231 42.0633 123.298 42.0426 123.368 42.0362C123.437 42.0297 123.507 42.0376 123.574 42.0593C123.64 42.0811 123.701 42.1161 123.753 42.1624C123.806 42.2087 123.848 42.2652 123.877 42.3285C123.906 42.3917 123.923 42.4603 123.924 42.5299C123.926 42.5996 123.914 42.669 123.887 42.7336C123.861 42.7982 123.822 42.8568 123.772 42.9058C123.723 42.9547 123.664 42.9929 123.598 43.018C121.647 43.9131 119.756 44.9333 117.936 46.0722C117.829 46.1258 117.707 46.1382 117.591 46.1071C117.476 46.0759 117.376 46.0033 117.311 45.9033C117.246 45.8032 117.22 45.6827 117.239 45.5648C117.257 45.4469 117.318 45.3399 117.41 45.2642L117.443 45.248ZM129.253 39.6809C131.331 39.0241 133.453 38.5111 135.602 38.1457C135.741 38.1222 135.883 38.1545 135.997 38.2355C136.112 38.3166 136.189 38.4398 136.213 38.578C136.237 38.7162 136.204 38.8581 136.123 38.9726C136.042 39.087 135.919 39.1645 135.78 39.188C133.682 39.5676 131.608 40.0694 129.568 40.6909C129.502 40.7121 129.432 40.72 129.362 40.7139C129.293 40.7079 129.225 40.6882 129.164 40.6558C129.102 40.6235 129.047 40.5792 129.003 40.5256C128.958 40.472 128.925 40.4101 128.905 40.3435C128.866 40.2096 128.881 40.0659 128.946 39.9425C129.01 39.8191 129.12 39.7254 129.253 39.6809ZM142.098 37.4751C144.275 37.3942 146.456 37.459 148.625 37.669C148.688 37.6741 148.749 37.6915 148.805 37.7203C148.861 37.7491 148.911 37.7887 148.952 37.8367C148.992 37.8848 149.023 37.9404 149.042 38.0004C149.061 38.0604 149.068 38.1235 149.062 38.1861C149.05 38.3134 148.988 38.4307 148.889 38.5124C148.791 38.5942 148.664 38.6337 148.536 38.6224C146.409 38.4353 144.272 38.3894 142.138 38.4851C142.067 38.4965 141.994 38.4928 141.925 38.474C141.855 38.4553 141.79 38.4221 141.734 38.3765C141.679 38.331 141.633 38.2741 141.601 38.2097C141.569 38.1453 141.551 38.0748 141.548 38.0029C141.545 37.9309 141.557 37.8592 141.584 37.7925C141.611 37.7257 141.652 37.6654 141.704 37.6155C141.756 37.5656 141.818 37.5273 141.886 37.5031C141.954 37.4789 142.026 37.4694 142.098 37.4751ZM155.064 38.7194C157.188 39.2018 159.272 39.8419 161.301 40.6344C161.352 40.6522 161.398 40.6803 161.438 40.7167C161.477 40.7532 161.509 40.7974 161.531 40.8465C161.553 40.8957 161.565 40.9488 161.566 41.0026C161.566 41.0564 161.556 41.1098 161.535 41.1596C161.497 41.2588 161.421 41.339 161.325 41.3829C161.228 41.4267 161.117 41.4307 161.018 41.3939C159.004 40.6685 156.949 40.0668 154.862 39.592C154.744 39.5653 154.641 39.4927 154.577 39.3905C154.513 39.2882 154.491 39.1645 154.518 39.0466C154.545 38.9288 154.618 38.8264 154.72 38.762C154.822 38.6976 154.946 38.6765 155.064 38.7032V38.7194ZM256.725 154.166C255.277 155.782 253.749 157.326 252.155 158.796C252.078 158.868 251.975 158.906 251.87 158.902C251.764 158.899 251.665 158.853 251.593 158.776C251.521 158.699 251.483 158.596 251.487 158.491C251.49 158.386 251.536 158.286 251.613 158.215C253.231 156.782 254.762 155.281 256.208 153.714C256.239 153.682 256.277 153.656 256.319 153.639C256.36 153.621 256.405 153.612 256.45 153.612C256.496 153.612 256.54 153.621 256.582 153.639C256.624 153.656 256.661 153.682 256.693 153.714C256.75 153.774 256.785 153.852 256.791 153.934C256.797 154.017 256.774 154.099 256.725 154.166ZM247.164 162.974C245.433 164.283 243.643 165.508 241.793 166.65C241.689 166.713 241.564 166.732 241.446 166.703C241.328 166.674 241.226 166.6 241.162 166.497C241.131 166.446 241.111 166.389 241.102 166.33C241.093 166.271 241.096 166.211 241.11 166.154C241.124 166.096 241.15 166.041 241.185 165.993C241.22 165.946 241.265 165.905 241.316 165.874C243.144 164.759 244.924 163.555 246.638 162.271C246.732 162.201 246.849 162.171 246.964 162.188C247.021 162.196 247.076 162.216 247.126 162.245C247.175 162.275 247.219 162.313 247.253 162.36C247.288 162.406 247.313 162.458 247.327 162.514C247.341 162.57 247.344 162.628 247.336 162.685C247.328 162.742 247.308 162.797 247.279 162.846C247.249 162.896 247.21 162.939 247.164 162.974ZM236.099 169.801C234.152 170.76 232.162 171.63 230.129 172.411C230.068 172.438 230.002 172.452 229.935 172.452C229.868 172.453 229.801 172.44 229.74 172.414C229.678 172.388 229.622 172.349 229.576 172.301C229.53 172.253 229.493 172.196 229.47 172.133C229.446 172.071 229.436 172.004 229.439 171.937C229.442 171.871 229.458 171.805 229.487 171.745C229.516 171.685 229.557 171.631 229.608 171.587C229.659 171.543 229.717 171.51 229.781 171.49C231.787 170.736 233.753 169.89 235.678 168.953C235.792 168.899 235.923 168.892 236.042 168.933C236.161 168.973 236.26 169.059 236.317 169.171C236.345 169.227 236.361 169.287 236.365 169.349C236.368 169.411 236.36 169.473 236.34 169.532C236.319 169.59 236.288 169.644 236.246 169.691C236.205 169.737 236.155 169.774 236.099 169.801ZM223.941 174.455C221.846 175.037 219.735 175.53 217.591 175.902C217.454 175.923 217.314 175.89 217.201 175.81C217.088 175.73 217.01 175.609 216.985 175.473C216.963 175.339 216.995 175.201 217.074 175.089C217.152 174.978 217.271 174.901 217.405 174.875C219.516 174.496 221.603 174.067 223.674 173.47C223.738 173.451 223.806 173.446 223.872 173.454C223.938 173.462 224.002 173.483 224.06 173.516C224.118 173.549 224.169 173.594 224.21 173.647C224.251 173.7 224.28 173.76 224.297 173.825C224.332 173.956 224.314 174.095 224.248 174.213C224.181 174.331 224.071 174.418 223.941 174.455ZM211.12 176.734C208.952 176.904 206.785 176.984 204.649 176.96C204.584 176.959 204.52 176.945 204.461 176.92C204.401 176.894 204.348 176.857 204.303 176.81C204.257 176.764 204.222 176.709 204.198 176.648C204.174 176.588 204.163 176.524 204.164 176.459C204.164 176.394 204.177 176.329 204.202 176.269C204.227 176.208 204.264 176.154 204.311 176.108C204.358 176.062 204.413 176.026 204.474 176.001C204.535 175.977 204.6 175.965 204.665 175.966C206.801 175.966 208.944 175.902 211.08 175.716C211.147 175.711 211.214 175.718 211.278 175.739C211.342 175.76 211.401 175.793 211.452 175.836C211.503 175.88 211.545 175.933 211.575 175.993C211.606 176.052 211.624 176.118 211.63 176.184C211.635 176.251 211.627 176.319 211.606 176.382C211.586 176.446 211.553 176.505 211.509 176.556C211.466 176.607 211.412 176.649 211.353 176.68C211.293 176.71 211.228 176.729 211.161 176.734H211.12ZM198.121 176.588C195.962 176.362 193.81 176.039 191.65 175.611C191.589 175.599 191.53 175.576 191.478 175.541C191.426 175.507 191.381 175.462 191.347 175.41C191.312 175.358 191.288 175.3 191.276 175.239C191.265 175.177 191.265 175.114 191.278 175.053C191.304 174.932 191.375 174.826 191.478 174.756C191.58 174.687 191.706 174.66 191.828 174.682C193.931 175.094 196.059 175.409 198.186 175.619C198.315 175.632 198.433 175.695 198.515 175.795C198.597 175.895 198.636 176.024 198.623 176.152C198.61 176.281 198.546 176.399 198.446 176.481C198.346 176.563 198.218 176.601 198.089 176.588H198.121ZM185.365 174.043C183.286 173.421 181.232 172.702 179.226 171.886C179.17 171.865 179.119 171.834 179.076 171.793C179.033 171.752 178.999 171.703 178.975 171.649C178.952 171.594 178.939 171.536 178.939 171.477C178.939 171.417 178.952 171.359 178.975 171.304C179.02 171.195 179.106 171.107 179.215 171.06C179.324 171.013 179.447 171.011 179.557 171.054C181.547 171.856 183.569 172.557 185.624 173.154C185.742 173.189 185.842 173.268 185.901 173.376C185.96 173.484 185.974 173.61 185.939 173.728C185.905 173.846 185.825 173.945 185.718 174.005C185.61 174.064 185.483 174.078 185.365 174.043ZM173.313 169.171C171.379 168.177 169.511 167.07 167.691 165.899C167.6 165.841 167.535 165.749 167.512 165.644C167.488 165.538 167.508 165.428 167.566 165.337C167.623 165.246 167.715 165.182 167.821 165.158C167.926 165.135 168.037 165.154 168.128 165.212C169.94 166.359 171.808 167.41 173.709 168.395C173.816 168.448 173.898 168.541 173.937 168.654C173.976 168.767 173.968 168.89 173.915 168.997C173.863 169.104 173.77 169.186 173.657 169.225C173.544 169.264 173.42 169.256 173.313 169.203V169.171ZM162.401 162.109L158.275 158.578C158.233 158.552 158.197 158.516 158.17 158.475C158.143 158.433 158.124 158.386 158.117 158.337C158.109 158.288 158.112 158.238 158.126 158.19C158.139 158.142 158.163 158.098 158.195 158.06C158.227 158.022 158.267 157.991 158.312 157.97C158.357 157.949 158.406 157.937 158.456 157.937C158.506 157.936 158.555 157.946 158.601 157.966C158.646 157.986 158.687 158.016 158.72 158.053L162.846 161.503C162.92 161.567 162.967 161.658 162.976 161.756C162.985 161.854 162.956 161.952 162.894 162.028C162.863 162.066 162.825 162.097 162.781 162.12C162.738 162.143 162.69 162.157 162.641 162.162C162.593 162.166 162.543 162.161 162.496 162.147C162.45 162.132 162.406 162.108 162.368 162.077L162.401 162.109Z" fill="#15181A"/>
<path d="M243.256 70.2959L236.615 64.8985C232.568 63.0561 228.26 61.8514 223.843 61.3271C224.706 64.6138 224.781 68.0576 224.061 71.3787C221.788 82.1331 208.814 80.7353 202.359 92.9199C195.597 105.694 204.996 119.228 204.996 119.228L230.638 143.468C230.638 143.468 219.532 129.894 227.321 113.467C232.984 101.566 243.386 102.083 248.506 90.8919C251.653 84.0319 249.137 75.0955 243.256 70.2959Z" fill="#C5DBFF"/>
<path d="M248.037 76.461C247.503 74.7236 246.727 73.0699 245.732 71.5483C245.241 70.7942 244.7 70.0735 244.114 69.391C243.79 69.0678 243.483 68.7284 243.159 68.4133C242.813 68.1191 242.487 67.8033 242.181 67.4679L242.124 67.4195C242.091 67.3961 242.053 67.3796 242.013 67.3708C241.973 67.362 241.932 67.3612 241.892 67.3683C241.851 67.3754 241.813 67.3904 241.779 67.4123C241.744 67.4343 241.715 67.4628 241.691 67.4962C241.668 67.5296 241.651 67.5673 241.643 67.6071C241.634 67.647 241.633 67.6881 241.64 67.7282C241.647 67.7684 241.662 67.8067 241.684 67.8411C241.706 67.8754 241.735 67.9051 241.768 67.9285C242.126 68.1777 242.469 68.4475 242.795 68.7365C243.103 69.0435 243.402 69.3748 243.701 69.6899C244.294 70.3506 244.834 71.0556 245.319 71.7988C246.282 73.292 247.023 74.9168 247.519 76.6226C248.581 80.0024 248.545 83.6315 247.414 86.9892L246.921 88.2012L246.306 89.3728C245.893 90.1502 245.431 90.9005 244.923 91.6191C243.883 93.0441 242.677 94.3406 241.331 95.4813C238.662 97.8003 235.532 99.5859 232.725 101.881C229.86 104.139 227.531 107.003 225.906 110.268C224.311 113.533 223.329 117.063 223.01 120.683C222.58 127.014 224.159 133.319 227.524 138.701L203.953 116.449C203.31 115.436 202.721 114.389 202.189 113.314C202.424 109.363 202.78 103.691 202.998 99.7879C203.218 96.595 202.625 93.3984 201.275 90.4959V90.4394L202.221 88.8799C203.539 86.8228 205.177 84.9897 207.075 83.4502C209.01 81.9495 211.057 80.5989 213.198 79.4102C215.382 78.2371 217.43 76.8282 219.305 75.2086C219.75 74.7723 220.114 74.2875 220.575 73.835C221.036 73.3825 221.279 72.8088 221.602 72.2755C221.926 71.7422 222.144 71.1524 222.371 70.5787L222.872 68.785C222.875 68.7585 222.869 68.7318 222.854 68.7096C222.839 68.6875 222.817 68.6712 222.792 68.6638C222.765 68.659 222.737 68.6647 222.715 68.6798C222.692 68.6948 222.676 68.718 222.67 68.7446C222.16 71.1464 220.896 73.3231 219.063 74.9581C217.193 76.5406 215.156 77.9143 212.988 79.0546C210.814 80.2413 208.735 81.5918 206.767 83.0947C204.823 84.6571 203.139 86.517 201.777 88.6052L200.968 89.9303C200.782 89.5667 200.579 89.2112 200.369 88.8719C200.62 89.8152 200.74 90.7885 200.725 91.7645C200.696 92.9872 200.486 94.1988 200.102 95.3601C199.739 96.5453 199.139 97.6447 198.339 98.5921C194.909 102.05 191.463 105.452 187.993 108.854L167.229 129.28L146.408 149.65L135.957 159.806C135.076 160.614 134.226 161.519 133.248 162.287C132.276 163.064 131.183 163.675 130.012 164.097C128.894 164.498 127.695 164.626 126.518 164.468L127.472 165.276C130.4 167.7 135.173 167.644 138.166 165.656C141.158 163.668 193.534 128.682 196.584 126.686C200.054 124.408 201.712 121.345 201.979 116.449C201.979 115.899 202.044 115.205 202.092 114.421C202.521 115.229 202.974 116.037 203.459 116.796L229.077 141.036C229.133 141.082 229.203 141.106 229.275 141.106C229.347 141.106 229.417 141.082 229.473 141.036C229.506 141.013 229.534 140.983 229.556 140.949C229.577 140.915 229.591 140.876 229.597 140.836C229.603 140.796 229.601 140.755 229.591 140.716C229.581 140.677 229.563 140.64 229.538 140.608C225.313 134.86 223.254 127.807 223.722 120.691C224.048 117.174 225.013 113.746 226.569 110.575C228.131 107.403 230.377 104.616 233.145 102.414C235.871 100.152 239.002 98.3739 241.728 95.9499C243.11 94.7536 244.346 93.3974 245.408 91.9099C245.927 91.1652 246.397 90.3879 246.816 89.5829L247.438 88.3709C247.616 87.9507 247.778 87.5629 247.948 87.1023C249.096 83.6527 249.127 79.9293 248.037 76.461Z" fill="#15181A"/>
<path d="M242.084 67.5407L220.624 50.1525L215.261 45.8055L212.584 43.632C211.678 42.9128 210.813 42.1614 209.858 41.5069L208.459 40.4888C207.981 40.1576 207.48 39.8748 206.995 39.5596C206.509 39.2445 206.016 38.9375 205.514 38.6628L203.969 37.8548C202.945 37.3231 201.895 36.843 200.823 36.4165C200.297 36.166 199.731 36.0287 199.205 35.8267C198.679 35.6247 198.113 35.4308 197.547 35.3015C193.075 33.9661 188.326 33.8544 183.796 34.9783L182.987 35.1884C182.704 35.2692 182.437 35.3904 182.178 35.4873C181.636 35.6974 181.086 35.8913 180.56 36.1176C179.509 36.6141 178.5 37.195 177.543 37.8548C176.575 38.5047 175.666 39.2374 174.825 40.0444C174.404 40.4404 174.016 40.9009 173.644 41.3211C173.248 41.7453 172.878 42.1933 172.536 42.6624L171.501 44.0521C171.161 44.5288 170.853 45.0136 170.53 45.4904C169.867 46.4438 169.308 47.4538 168.702 48.4396C167.56 50.4463 166.526 52.5123 165.604 54.6288C164.388 57.363 163.335 60.1662 162.449 63.024C160.894 63.3865 159.485 64.2087 158.405 65.3833C156.18 67.7669 133.766 92.6048 117.022 111.213C107.582 121.644 100.035 130.007 99.1131 131.049C98.9513 131.235 98.8057 131.437 98.6601 131.639C97.5804 132.981 97.0198 134.667 97.0807 136.387C97.1415 138.108 97.8198 139.75 98.9917 141.012C101.354 143.477 117.839 157.358 123.695 162.303C124.178 162.718 124.707 163.076 125.273 163.369C125.362 163.45 125.451 163.531 125.548 163.604C125.81 163.697 126.081 163.768 126.356 163.814C127.511 164.004 128.694 163.896 129.794 163.499C130.913 163.104 131.957 162.525 132.884 161.786C133.823 161.059 134.664 160.17 135.554 159.362L146.012 149.238L166.858 128.884L187.686 108.506C191.132 105.097 194.675 101.751 198.137 98.374C199.695 96.5094 200.553 94.1607 200.564 91.7322C200.601 90.5385 200.4 89.3493 199.973 88.2336C199.235 87.1862 198.349 86.2501 197.345 85.454L195.411 83.9431C195.411 83.8623 195.411 83.7896 195.468 83.7088C196.247 81.0341 197.316 78.4521 198.655 76.0085C199.995 73.5577 201.624 71.2764 203.508 69.2132C203.969 68.6961 204.487 68.2356 204.98 67.7346C205.231 67.4922 205.474 67.2417 205.725 67.0074L206.534 66.3448C209.765 63.6722 213.723 62.0261 217.898 61.618C220.676 61.3283 223.481 61.4317 226.23 61.9251C231.753 62.9589 237.046 64.973 241.858 67.872C241.903 67.8965 241.955 67.9037 242.005 67.8922C242.055 67.8807 242.1 67.8513 242.129 67.8095C242.159 67.7678 242.173 67.7166 242.167 67.6656C242.162 67.6146 242.138 67.5673 242.1 67.5326L242.084 67.5407ZM126.009 107.714L129.366 104.167C129.488 104.04 129.654 103.963 129.83 103.951C130.007 103.939 130.181 103.993 130.32 104.103L137.365 109.662C137.443 109.723 137.506 109.799 137.553 109.885C137.599 109.972 137.627 110.067 137.634 110.165C137.642 110.263 137.629 110.362 137.597 110.454C137.565 110.547 137.513 110.632 137.446 110.704L134.089 114.308C133.969 114.44 133.802 114.521 133.623 114.535C133.444 114.548 133.266 114.493 133.127 114.38L126.081 108.724C126.01 108.663 125.951 108.588 125.908 108.504C125.866 108.42 125.84 108.329 125.834 108.235C125.827 108.141 125.839 108.046 125.869 107.957C125.899 107.868 125.946 107.785 126.009 107.714ZM128.492 126.234C128.415 126.172 128.352 126.096 128.307 126.009C128.261 125.922 128.234 125.826 128.227 125.729C128.22 125.631 128.234 125.532 128.267 125.44C128.3 125.348 128.352 125.263 128.419 125.191L131.776 121.652C131.899 121.523 132.066 121.444 132.245 121.432C132.423 121.42 132.599 121.476 132.739 121.588L139.768 127.244C139.844 127.305 139.908 127.382 139.953 127.469C139.999 127.556 140.026 127.651 140.033 127.749C140.039 127.847 140.026 127.945 139.993 128.038C139.96 128.13 139.908 128.215 139.841 128.286L136.459 131.874C136.335 132.004 136.166 132.083 135.987 132.095C135.807 132.106 135.629 132.051 135.489 131.938L128.492 126.234ZM131.792 136.794L128.419 140.374C128.294 140.507 128.123 140.587 127.941 140.597C127.759 140.608 127.58 140.548 127.44 140.43L120.524 134.629C120.451 134.567 120.39 134.491 120.347 134.405C120.304 134.319 120.278 134.226 120.272 134.13C120.266 134.034 120.28 133.938 120.312 133.847C120.344 133.756 120.394 133.673 120.46 133.603L123.76 130.088C123.883 129.956 124.053 129.876 124.234 129.865C124.415 129.855 124.593 129.914 124.731 130.031L131.695 135.792C131.768 135.851 131.829 135.924 131.874 136.006C131.918 136.089 131.946 136.18 131.955 136.273C131.964 136.366 131.954 136.461 131.926 136.55C131.898 136.64 131.853 136.723 131.792 136.794ZM137.107 117.54C137.029 117.478 136.966 117.402 136.92 117.314C136.875 117.227 136.848 117.131 136.842 117.033C136.836 116.935 136.851 116.836 136.885 116.744C136.919 116.652 136.973 116.568 137.042 116.497L140.399 112.95C140.521 112.823 140.687 112.746 140.864 112.734C141.04 112.722 141.215 112.776 141.353 112.886L148.415 118.461C148.493 118.522 148.557 118.598 148.603 118.685C148.649 118.772 148.677 118.868 148.684 118.966C148.69 119.064 148.677 119.163 148.643 119.255C148.609 119.348 148.556 119.432 148.488 119.503L145.107 123.091C144.983 123.22 144.816 123.299 144.638 123.311C144.46 123.323 144.283 123.267 144.144 123.155L137.107 117.54ZM117.467 116.352L120.799 112.789C120.922 112.659 121.09 112.581 121.268 112.569C121.446 112.557 121.623 112.612 121.762 112.724L128.815 118.38C128.892 118.441 128.955 118.518 129.001 118.605C129.046 118.692 129.073 118.787 129.08 118.885C129.087 118.983 129.074 119.081 129.041 119.174C129.008 119.266 128.956 119.351 128.888 119.422L125.507 123.002C125.385 123.133 125.218 123.213 125.039 123.225C124.86 123.237 124.683 123.18 124.545 123.066L117.531 117.41C117.453 117.348 117.388 117.271 117.342 117.182C117.295 117.093 117.268 116.996 117.262 116.896C117.256 116.796 117.271 116.696 117.306 116.602C117.342 116.508 117.396 116.423 117.467 116.352ZM109.645 124.61L112.994 121.071C113.118 120.94 113.288 120.862 113.468 120.851C113.648 120.841 113.825 120.899 113.964 121.014L120.896 126.743C120.969 126.806 121.029 126.883 121.072 126.97C121.114 127.056 121.14 127.15 121.146 127.246C121.152 127.343 121.138 127.439 121.107 127.53C121.075 127.621 121.026 127.705 120.961 127.777L117.637 131.348C117.512 131.481 117.342 131.561 117.16 131.573C116.978 131.585 116.799 131.528 116.658 131.413L109.71 125.636C109.631 125.575 109.567 125.497 109.52 125.409C109.474 125.321 109.447 125.225 109.441 125.125C109.434 125.026 109.449 124.926 109.485 124.833C109.52 124.74 109.574 124.656 109.645 124.585V124.61ZM108.642 139.897L101.734 134.047C101.661 133.984 101.601 133.907 101.558 133.82C101.515 133.733 101.491 133.639 101.485 133.542C101.48 133.446 101.494 133.349 101.527 133.258C101.56 133.167 101.611 133.084 101.677 133.013L105.026 129.482C105.149 129.35 105.319 129.27 105.5 129.259C105.681 129.249 105.859 129.308 105.997 129.425L112.937 135.235C113.01 135.298 113.07 135.375 113.113 135.462C113.155 135.549 113.18 135.643 113.185 135.74C113.191 135.837 113.176 135.933 113.143 136.024C113.111 136.115 113.06 136.198 112.994 136.269L109.621 139.849C109.492 139.979 109.319 140.054 109.136 140.059C108.953 140.063 108.776 139.997 108.642 139.873V139.897ZM119.392 148.979L112.484 143.121C112.411 143.059 112.351 142.982 112.309 142.896C112.266 142.81 112.241 142.716 112.236 142.62C112.231 142.524 112.245 142.428 112.278 142.338C112.311 142.248 112.362 142.165 112.427 142.095L115.776 138.564C115.9 138.432 116.069 138.352 116.25 138.341C116.431 138.331 116.609 138.39 116.747 138.507L123.687 144.317C123.76 144.38 123.82 144.457 123.863 144.544C123.906 144.631 123.93 144.725 123.936 144.822C123.941 144.918 123.927 145.015 123.894 145.106C123.861 145.197 123.81 145.28 123.744 145.351L120.371 148.922C120.243 149.052 120.07 149.127 119.888 149.133C119.706 149.139 119.528 149.076 119.392 148.955V148.979ZM134.445 154.223L130.862 157.754C130.731 157.872 130.561 157.937 130.385 157.937C130.208 157.937 130.038 157.872 129.907 157.754L123.275 152.098C123.2 152.035 123.139 151.958 123.096 151.871C123.052 151.784 123.027 151.689 123.023 151.591C123.018 151.494 123.034 151.397 123.069 151.306C123.104 151.215 123.157 151.133 123.226 151.064L126.704 147.452C126.83 147.322 127 147.245 127.18 147.236C127.36 147.227 127.537 147.287 127.675 147.403L134.413 153.108C134.496 153.171 134.564 153.253 134.612 153.346C134.66 153.439 134.686 153.541 134.689 153.646C134.692 153.75 134.672 153.854 134.63 153.95C134.588 154.045 134.525 154.13 134.445 154.199V154.223ZM142.745 145.666L139.185 149.213C139.062 149.34 138.895 149.415 138.718 149.424C138.541 149.433 138.367 149.375 138.231 149.262L131.517 143.606C131.443 143.543 131.382 143.466 131.339 143.379C131.296 143.293 131.27 143.198 131.265 143.101C131.26 143.004 131.274 142.907 131.308 142.816C131.342 142.725 131.394 142.642 131.461 142.572L134.914 138.992C135.045 138.865 135.219 138.792 135.401 138.789C135.583 138.786 135.759 138.853 135.893 138.976L142.712 144.632C142.781 144.696 142.837 144.773 142.876 144.858C142.915 144.944 142.936 145.036 142.939 145.13C142.942 145.224 142.927 145.318 142.893 145.406C142.86 145.493 142.809 145.574 142.745 145.642V145.666ZM151.375 137.15L147.865 140.754C147.742 140.881 147.576 140.958 147.399 140.969C147.222 140.979 147.047 140.923 146.91 140.81L140.027 135.227C139.941 135.166 139.869 135.087 139.817 134.996C139.765 134.905 139.734 134.803 139.725 134.698C139.717 134.593 139.732 134.488 139.768 134.39C139.805 134.291 139.863 134.202 139.938 134.128L143.4 130.549C143.523 130.422 143.69 130.347 143.866 130.336C144.042 130.326 144.217 130.381 144.354 130.492L151.286 136.059C151.369 136.118 151.438 136.195 151.488 136.284C151.539 136.372 151.569 136.47 151.577 136.572C151.586 136.673 151.572 136.775 151.537 136.871C151.502 136.967 151.447 137.053 151.375 137.126V137.15ZM160.055 128.221L156.577 131.857C156.453 131.984 156.287 132.059 156.11 132.07C155.934 132.08 155.76 132.025 155.622 131.914L148.625 126.331C148.547 126.269 148.483 126.192 148.437 126.105C148.39 126.017 148.363 125.921 148.356 125.822C148.349 125.723 148.363 125.623 148.397 125.53C148.431 125.437 148.484 125.352 148.552 125.28L152.006 121.693C152.13 121.567 152.295 121.491 152.471 121.479C152.647 121.467 152.821 121.52 152.961 121.628L159.982 127.171C160.056 127.232 160.117 127.308 160.161 127.394C160.205 127.479 160.231 127.573 160.238 127.669C160.245 127.765 160.232 127.861 160.201 127.952C160.169 128.043 160.12 128.126 160.055 128.197V128.221ZM166.744 121.087C166.499 121.344 166.166 121.499 165.811 121.523C165.456 121.547 165.105 121.438 164.827 121.216L137.818 99.6183C137.924 99.4412 138.052 99.2783 138.199 99.1335L139.703 97.5175L142.696 94.2855L148.698 87.8215L154.7 81.3575L157.693 78.1255L159.197 76.5095C159.405 76.2487 159.705 76.0785 160.036 76.0348C160.366 75.9911 160.701 76.0773 160.969 76.2752L174.809 87.2074L181.733 92.6776L185.195 95.4086L186.926 96.7741L187.792 97.4609C188.075 97.654 188.333 97.882 188.56 98.1396C188.56 98.1396 188.56 98.1962 188.6 98.2204L166.744 121.087ZM189.458 97.3559L188.94 97.8972C188.823 97.7334 188.681 97.5889 188.52 97.469L188.083 97.1296L187.217 96.4509L185.478 95.0935L182 92.3544L175.052 86.9165L161.163 76.0489C160.836 75.8063 160.43 75.6957 160.025 75.7391C159.62 75.7825 159.247 75.9768 158.979 76.2832L157.474 77.8992L154.457 81.1312L148.415 87.5952L142.381 94.0592L139.363 97.2912L137.851 98.9072C137.695 99.0605 137.554 99.2282 137.43 99.4082L136.419 98.6002C136.267 98.4767 136.141 98.3232 136.051 98.1494C135.961 97.9755 135.907 97.7849 135.893 97.5895C135.88 97.394 135.906 97.1978 135.972 97.0131C136.037 96.8283 136.14 96.659 136.273 96.5156L158.486 72.7684C158.73 72.5109 159.062 72.3534 159.416 72.3265C159.77 72.2996 160.122 72.4053 160.403 72.623L189.28 95.2389C189.439 95.3578 189.571 95.5089 189.667 95.6824C189.764 95.8559 189.822 96.0477 189.839 96.2454C189.856 96.4431 189.83 96.642 189.765 96.8293C189.699 97.0165 189.595 97.1877 189.458 97.3316V97.3559ZM226.303 61.408C223.503 60.8845 220.644 60.7594 217.809 61.0363C214.958 61.3225 212.186 62.145 209.64 63.4603C208.378 64.1338 207.183 64.9265 206.072 65.8277L205.264 66.5064L204.495 67.2498C203.994 67.7508 203.46 68.2275 202.983 68.7527C201.053 70.8465 199.38 73.163 198 75.653C196.613 78.1395 195.504 80.7704 194.691 83.4987C193.858 86.2298 193.334 89.0458 193.13 91.8938C193.127 91.9522 193.135 92.0106 193.155 92.0658C193.174 92.121 193.204 92.1718 193.243 92.2153C193.282 92.2589 193.33 92.2943 193.382 92.3195C193.435 92.3448 193.492 92.3593 193.551 92.3624C193.61 92.3668 193.669 92.3593 193.724 92.3404C193.78 92.3214 193.831 92.2915 193.875 92.2522C193.919 92.213 193.954 92.1653 193.979 92.112C194.004 92.0588 194.018 92.001 194.02 91.9423C194.02 91.5787 194.085 91.207 194.125 90.8434L194.481 91.1262C194.641 91.2551 194.773 91.4157 194.868 91.598C194.963 91.7802 195.019 91.9801 195.032 92.1851C195.046 92.3901 195.017 92.5957 194.947 92.7889C194.877 92.9822 194.768 93.1588 194.627 93.3078C194.37 93.5776 194.021 93.7408 193.649 93.7647C193.277 93.7887 192.91 93.6717 192.621 93.4371L162.49 69.3668C162.234 69.1613 162.054 68.8767 161.978 68.5579C161.902 68.239 161.934 67.904 162.069 67.6053C162.349 66.0262 162.708 64.4621 163.145 62.9189H163.096C163.925 60.1714 164.911 57.4737 166.049 54.8389C166.947 52.73 167.998 50.6939 169.098 48.69C169.689 47.7043 170.239 46.7024 170.894 45.757C171.209 45.2803 171.517 44.7955 171.848 44.3349L172.868 42.9532C173.185 42.4937 173.534 42.0564 173.911 41.6443C174.299 41.2322 174.647 40.7797 175.06 40.3838C175.88 39.5952 176.765 38.8763 177.705 38.2345C178.64 37.5873 179.624 37.0145 180.649 36.5216C181.175 36.3034 181.709 36.1095 182.267 35.8994C182.542 35.8024 182.801 35.6812 183.076 35.6085L183.885 35.3904C188.338 34.2701 193.011 34.3622 197.417 35.657C201.833 36.9302 205.974 39.0095 209.632 41.7897C210.57 42.4442 211.443 43.2037 212.341 43.9228L215.019 46.0964L220.374 50.4515L239.787 66.1994C238.069 65.2906 236.3 64.4812 234.489 63.7754C231.844 62.7225 229.102 61.9296 226.303 61.408ZM309.804 97.5013C308.923 95.6374 307.651 93.9842 306.075 92.6533C306.041 92.6223 306.001 92.5986 305.957 92.5837C305.913 92.5689 305.866 92.5632 305.82 92.567C305.774 92.5707 305.729 92.5839 305.688 92.6057C305.647 92.6275 305.611 92.6575 305.582 92.6937L305.857 92.92L305.525 92.8068C305.5 92.8731 305.496 92.9457 305.515 93.014C305.534 93.0824 305.575 93.1429 305.63 93.1866C307.14 94.4533 308.36 96.0296 309.206 97.8084C310.038 99.5951 310.469 101.542 310.468 103.513C310.475 105.488 310.067 107.442 309.27 109.25C308.482 111.04 307.321 112.643 305.865 113.952L299.289 115.544L299.176 108.724C299.172 108.705 299.164 108.687 299.153 108.67C299.142 108.654 299.127 108.64 299.111 108.63C299.094 108.619 299.076 108.612 299.056 108.609C299.037 108.606 299.017 108.607 298.998 108.611L292.324 110.074L292.195 103.254C292.193 103.221 292.179 103.189 292.155 103.165C292.131 103.141 292.099 103.127 292.065 103.125L285.392 104.571L285.352 100.103C285.19 100.321 285.02 100.531 284.858 100.766L284.777 104.951C284.773 104.978 284.773 105.005 284.777 105.032C284.788 105.07 284.805 105.106 284.83 105.138C284.854 105.169 284.885 105.195 284.919 105.215C284.954 105.235 284.992 105.247 285.032 105.252C285.071 105.256 285.111 105.253 285.149 105.242L291.952 103.416L291.742 110.445C291.737 110.475 291.737 110.505 291.742 110.534C291.752 110.573 291.77 110.609 291.794 110.64C291.819 110.672 291.849 110.698 291.884 110.717C291.918 110.737 291.957 110.749 291.996 110.754C292.036 110.759 292.076 110.755 292.114 110.744L298.901 108.943L298.706 115.956C298.706 116.033 298.737 116.107 298.792 116.162C298.846 116.216 298.92 116.247 298.998 116.247H299.087L306.092 114.518C306.13 114.51 306.166 114.493 306.197 114.469C307.747 113.101 308.988 111.418 309.837 109.532C310.677 107.648 311.115 105.608 311.123 103.545C311.138 101.458 310.688 99.3932 309.804 97.5013Z" fill="#15181A"/>
</g>
<defs>
<clipPath id="clip0_820_1302">
<rect width="364" height="202" fill="white"/>
</clipPath>
</defs>
</svg>
