<svg width="120" height="120" viewBox="0 0 120 120" fill="none" xmlns="http://www.w3.org/2000/svg">
<circle cx="60" cy="60" r="60" fill="url(#paint0_linear_778_316)"/>
<g clip-path="url(#clip0_778_316)">
<path d="M52.1787 38.6108C50.6387 35.6998 48.3317 33.2655 45.5075 31.5714C42.6833 29.8774 39.4495 28.9882 36.1563 29.0001C31.3426 29.0056 26.7277 30.9203 23.3239 34.324C19.9201 37.7278 18.0055 42.3427 18 47.1564C18 53.0321 20.7355 58.3856 25.5011 61.8439C25.9762 62.1896 26.5547 62.3635 27.1416 62.3372C27.7286 62.3108 28.2891 62.0856 28.7312 61.6987L51.5908 41.7787C52.0321 41.3946 52.3305 40.8725 52.4372 40.2973C52.544 39.7221 52.4529 39.1277 52.1787 38.6108ZM82.8438 29.0001C79.5505 28.9882 76.3167 29.8774 73.4925 31.5714C70.6683 33.2655 68.3613 35.6998 66.8213 38.6108C66.5478 39.1278 66.457 39.722 66.5637 40.2971C66.6705 40.8722 66.9684 41.3943 67.4092 41.7787L90.2688 61.6987C90.7115 62.083 91.2711 62.3065 91.8568 62.3329C92.4425 62.3593 93.02 62.1869 93.4954 61.8439C95.8286 60.1732 97.7275 57.9678 99.0332 55.4124C100.339 52.857 101.013 50.026 101 47.1564C100.995 42.3427 99.0799 37.7278 95.6761 34.324C92.2723 30.9203 87.6574 29.0056 82.8438 29.0001Z" fill="#424242"/>
<path d="M59.5002 112C80.51 112 97.5418 94.9681 97.5418 73.9583C97.5418 52.9485 80.51 35.9166 59.5002 35.9166C38.4903 35.9166 21.4585 52.9485 21.4585 73.9583C21.4585 94.9681 38.4903 112 59.5002 112Z" fill="white"/>
<path d="M87.554 66.433L80.8587 59.7342C78.8904 57.7711 76.2239 56.6686 73.444 56.6686C70.6641 56.6686 67.9976 57.7711 66.0293 59.7342C64.0662 61.7025 62.9637 64.369 62.9637 67.1489C62.9637 69.9288 64.0662 72.5953 66.0293 74.5636L72.7247 81.2624C74.7686 83.3062 77.4522 84.3264 80.1393 84.3264C82.8265 84.3264 85.5101 83.3062 87.554 81.2624C89.5155 79.2932 90.6168 76.6271 90.6168 73.8477C90.6168 71.0683 89.5155 68.4022 87.554 66.433ZM52.9707 59.7377C51.0024 57.7745 48.336 56.672 45.556 56.672C42.7761 56.672 40.1096 57.7745 38.1413 59.7377L31.446 66.4365C29.4828 68.4047 28.3804 71.0712 28.3804 73.8511C28.3804 76.6311 29.4828 79.2976 31.446 81.2658C32.4191 82.2401 33.575 83.0126 34.8474 83.539C36.1198 84.0654 37.4837 84.3354 38.8607 84.3333C41.5443 84.3333 44.228 83.3097 46.2753 81.2658L52.9707 74.567C54.9322 72.5979 56.0335 69.9317 56.0335 67.1523C56.0335 64.373 54.9322 61.7068 52.9707 59.7377Z" fill="#424242"/>
<path d="M78.5208 98.1667C73.7518 98.1667 69.875 94.1585 69.875 89.2338C69.875 85.2637 74.8377 77.4305 76.3559 75.1273C77.3139 73.6679 79.7278 73.6679 80.6857 75.1273C82.204 77.4305 87.1667 85.2637 87.1667 89.2338C87.1667 94.1585 83.2899 98.1667 78.5208 98.1667Z" fill="#4FC3F7"/>
<path d="M67.2813 103.399C66.9249 103.4 66.5723 103.327 66.2456 103.184C65.9188 103.042 65.625 102.834 65.3827 102.573C64.6281 101.769 63.7169 101.128 62.7051 100.69C61.6933 100.252 60.6025 100.026 59.5001 100.026C58.3976 100.026 57.3068 100.252 56.295 100.69C55.2833 101.128 54.372 101.769 53.6174 102.573C53.1487 103.076 52.4992 103.373 51.8117 103.398C51.1243 103.422 50.4551 103.173 49.9516 102.704C49.4481 102.235 49.1513 101.586 49.1267 100.898C49.102 100.211 49.3515 99.5417 49.8202 99.0382C52.3932 96.275 55.8308 94.7533 59.5001 94.7533C63.1693 94.7533 66.6069 96.275 69.1799 99.0382C69.5241 99.4079 69.7528 99.87 69.838 100.368C69.9232 100.866 69.8611 101.378 69.6595 101.841C69.4579 102.304 69.1254 102.698 68.703 102.975C68.2805 103.252 67.7864 103.399 67.2813 103.399Z" fill="#424242"/>
<path d="M46.5312 72.2291H41.3438C40.6558 72.2291 39.9961 71.9559 39.5097 71.4694C39.0233 70.983 38.75 70.3233 38.75 69.6354C38.75 68.9475 39.0233 68.2877 39.5097 67.8013C39.9961 67.3149 40.6558 67.0416 41.3438 67.0416H46.5312C47.2192 67.0416 47.8789 67.3149 48.3653 67.8013C48.8517 68.2877 49.125 68.9475 49.125 69.6354C49.125 70.3233 48.8517 70.983 48.3653 71.4694C47.8789 71.9559 47.2192 72.2291 46.5312 72.2291ZM77.6562 72.2291H72.4688C71.7808 72.2291 71.1211 71.9559 70.6347 71.4694C70.1483 70.983 69.875 70.3233 69.875 69.6354C69.875 68.9475 70.1483 68.2877 70.6347 67.8013C71.1211 67.3149 71.7808 67.0416 72.4688 67.0416H77.6562C78.3442 67.0416 79.0039 67.3149 79.4903 67.8013C79.9767 68.2877 80.25 68.9475 80.25 69.6354C80.25 70.3233 79.9767 70.983 79.4903 71.4694C79.0039 71.9559 78.3442 72.2291 77.6562 72.2291Z" fill="white"/>
<path d="M59.5002 91.25C55.6856 91.25 52.5835 88.1479 52.5835 84.3334V83.4688C52.5835 81.086 54.5236 79.1459 56.9064 79.1459H62.0939C64.4767 79.1459 66.4168 81.086 66.4168 83.4688V84.3334C66.4168 88.1479 63.3147 91.25 59.5002 91.25Z" fill="#424242"/>
</g>
<defs>
<linearGradient id="paint0_linear_778_316" x1="52.5" y1="-312.857" x2="52.5" y2="111.964" gradientUnits="userSpaceOnUse">
<stop stop-color="#276CEC"/>
<stop offset="1" stop-color="white"/>
</linearGradient>
<clipPath id="clip0_778_316">
<rect width="83" height="83" fill="white" transform="translate(18 29)"/>
</clipPath>
</defs>
</svg>
